<?xml version="1.0" encoding="UTF-8"?>
<svg xmlns="http://www.w3.org/2000/svg" xmlns:inkscape="http://www.inkscape.org/namespaces/inkscape" width="1600" height="900" viewBox="0 0 1600 900" version="1.1">
  <title>LG 77 C6 HDR FILMMAKER模式 峰值亮度高 8.xlsx AI layered luminance SVG</title>
  <desc>Each percentage window is a separate group/layer. Y scale: 0 to 2500 nits.</desc>
  <rect id="artboard-background" data-name="Artboard background" x="0" y="0" width="1600" height="900" fill="#FFFFFF"/>

  <g id="window-1-percent" data-name="1%" inkscape:groupmode="layer" inkscape:label="1%">
    <path id="window-1-percent-bar" data-name="1% bar" d="M 120 780 L 120 181.021 L 121.784 181.021 L 123.647 180.737 L 125.52 180.631 L 127.372 180.525 L 129.235 180.135 L 131.091 180.206 L 132.941 180.241 L 134.8 180.064 L 136.624 179.781 L 138.492 179.604 L 140.367 179.497 L 142.235 179.249 L 144.088 179.285 L 145.955 179.178 L 147.809 179.178 L 149.668 179.037 L 151.522 178.611 L 153.377 178.576 L 155.228 178.576 L 157.089 178.221 L 158.972 178.115 L 160.821 177.903 L 162.663 177.903 L 164.506 177.619 L 166.366 177.655 L 168.217 177.619 L 170.07 177.336 L 171.934 176.946 L 173.789 176.769 L 175.626 176.84 L 177.48 176.698 L 179.333 176.379 L 181.176 176.415 L 183.028 176.202 L 184.884 175.954 L 186.955 175.813 L 188.809 175.706 L 190.647 175.742 L 192.529 175.635 L 194.371 175.423 L 196.232 175.281 L 198.089 175.174 L 199.948 175.104 L 201.803 174.749 L 203.669 174.501 L 205.52 174.608 L 207.367 174.502 L 209.217 174.43 L 211.066 174.253 L 212.727 174.253 L 212.727 780 Z" fill="#B3B3B3"/>
    <path id="window-1-percent-wave" data-name="1% waveform" d="M 120 181.021 L 121.784 181.021 L 123.647 180.737 L 125.52 180.631 L 127.372 180.525 L 129.235 180.135 L 131.091 180.206 L 132.941 180.241 L 134.8 180.064 L 136.624 179.781 L 138.492 179.604 L 140.367 179.497 L 142.235 179.249 L 144.088 179.285 L 145.955 179.178 L 147.809 179.178 L 149.668 179.037 L 151.522 178.611 L 153.377 178.576 L 155.228 178.576 L 157.089 178.221 L 158.972 178.115 L 160.821 177.903 L 162.663 177.903 L 164.506 177.619 L 166.366 177.655 L 168.217 177.619 L 170.07 177.336 L 171.934 176.946 L 173.789 176.769 L 175.626 176.84 L 177.48 176.698 L 179.333 176.379 L 181.176 176.415 L 183.028 176.202 L 184.884 175.954 L 186.955 175.813 L 188.809 175.706 L 190.647 175.742 L 192.529 175.635 L 194.371 175.423 L 196.232 175.281 L 198.089 175.174 L 199.948 175.104 L 201.803 174.749 L 203.669 174.501 L 205.52 174.608 L 207.367 174.502 L 209.217 174.43 L 211.066 174.253 L 212.727 174.253" fill="none" stroke="#8C8C8C" stroke-width="1.2" stroke-linecap="round" stroke-linejoin="round"/>
  </g>

  <g id="window-2-percent" data-name="2%" inkscape:groupmode="layer" inkscape:label="2%">
    <path id="window-2-percent-bar" data-name="2% bar" d="M 246.727 780 L 246.727 175.777 L 248.169 175.777 L 250.12 175.6 L 252.067 175.316 L 253.998 175.423 L 255.911 175.352 L 257.838 175.245 L 259.8 174.927 L 261.978 174.82 L 263.922 174.501 L 265.862 174.607 L 267.842 174.501 L 269.787 174.254 L 271.711 174.147 L 273.664 174.041 L 275.591 173.97 L 277.766 173.793 L 279.698 173.757 L 281.661 173.367 L 283.599 173.332 L 285.52 173.367 L 287.466 173.119 L 289.392 172.836 L 291.34 172.836 L 293.534 172.836 L 295.472 172.446 L 297.414 172.446 L 299.376 172.198 L 301.34 172.198 L 303.275 172.199 L 305.209 172.304 L 307.16 172.092 L 309.335 171.915 L 311.28 171.667 L 313.206 171.773 L 315.168 171.56 L 317.112 171.525 L 319.034 171.277 L 320.983 171.383 L 322.909 171.206 L 325.118 171.1 L 327.058 170.993 L 328.991 170.71 L 330.94 170.781 L 332.883 170.675 L 334.828 170.427 L 336.78 170.356 L 338.7 170.391 L 339.455 170.391 L 339.455 780 Z" fill="#B3B3B3"/>
    <path id="window-2-percent-wave" data-name="2% waveform" d="M 246.727 175.777 L 248.169 175.777 L 250.12 175.6 L 252.067 175.316 L 253.998 175.423 L 255.911 175.352 L 257.838 175.245 L 259.8 174.927 L 261.978 174.82 L 263.922 174.501 L 265.862 174.607 L 267.842 174.501 L 269.787 174.254 L 271.711 174.147 L 273.664 174.041 L 275.591 173.97 L 277.766 173.793 L 279.698 173.757 L 281.661 173.367 L 283.599 173.332 L 285.52 173.367 L 287.466 173.119 L 289.392 172.836 L 291.34 172.836 L 293.534 172.836 L 295.472 172.446 L 297.414 172.446 L 299.376 172.198 L 301.34 172.198 L 303.275 172.199 L 305.209 172.304 L 307.16 172.092 L 309.335 171.915 L 311.28 171.667 L 313.206 171.773 L 315.168 171.56 L 317.112 171.525 L 319.034 171.277 L 320.983 171.383 L 322.909 171.206 L 325.118 171.1 L 327.058 170.993 L 328.991 170.71 L 330.94 170.781 L 332.883 170.675 L 334.828 170.427 L 336.78 170.356 L 338.7 170.391 L 339.455 170.391" fill="none" stroke="#8C8C8C" stroke-width="1.2" stroke-linecap="round" stroke-linejoin="round"/>
  </g>

  <g id="window-3-percent" data-name="3%" inkscape:groupmode="layer" inkscape:label="3%">
    <path id="window-3-percent-bar" data-name="3% bar" d="M 373.455 780 L 373.455 173.757 L 374.751 173.757 L 376.707 173.509 L 378.628 173.439 L 380.575 173.332 L 382.543 173.439 L 384.5 172.907 L 386.461 172.8 L 388.421 172.73 L 390.37 172.659 L 392.304 172.376 L 394.239 172.305 L 396.193 172.34 L 398.136 172.163 L 400.069 171.667 L 402.002 171.738 L 403.941 171.844 L 405.89 171.419 L 407.833 171.454 L 409.797 171.348 L 411.711 171.242 L 413.663 170.923 L 415.589 170.923 L 417.53 170.923 L 419.448 170.675 L 421.378 170.569 L 423.294 170.569 L 425.227 170.356 L 427.167 170.285 L 429.138 170.179 L 431.097 170.108 L 433.024 170.143 L 434.955 169.789 L 436.915 169.754 L 438.899 169.718 L 440.846 169.612 L 442.782 169.541 L 444.746 169.329 L 446.697 169.222 L 448.645 169.151 L 450.58 168.974 L 452.534 169.045 L 454.729 169.009 L 456.672 168.868 L 458.615 168.726 L 460.545 168.514 L 462.499 168.478 L 464.425 168.584 L 466.182 168.584 L 466.182 780 Z" fill="#B3B3B3"/>
    <path id="window-3-percent-wave" data-name="3% waveform" d="M 373.455 173.757 L 374.751 173.757 L 376.707 173.509 L 378.628 173.439 L 380.575 173.332 L 382.543 173.439 L 384.5 172.907 L 386.461 172.8 L 388.421 172.73 L 390.37 172.659 L 392.304 172.376 L 394.239 172.305 L 396.193 172.34 L 398.136 172.163 L 400.069 171.667 L 402.002 171.738 L 403.941 171.844 L 405.89 171.419 L 407.833 171.454 L 409.797 171.348 L 411.711 171.242 L 413.663 170.923 L 415.589 170.923 L 417.53 170.923 L 419.448 170.675 L 421.378 170.569 L 423.294 170.569 L 425.227 170.356 L 427.167 170.285 L 429.138 170.179 L 431.097 170.108 L 433.024 170.143 L 434.955 169.789 L 436.915 169.754 L 438.899 169.718 L 440.846 169.612 L 442.782 169.541 L 444.746 169.329 L 446.697 169.222 L 448.645 169.151 L 450.58 168.974 L 452.534 169.045 L 454.729 169.009 L 456.672 168.868 L 458.615 168.726 L 460.545 168.514 L 462.499 168.478 L 464.425 168.584 L 466.182 168.584" fill="none" stroke="#8C8C8C" stroke-width="1.2" stroke-linecap="round" stroke-linejoin="round"/>
  </g>

  <g id="window-5-percent" data-name="5%" inkscape:groupmode="layer" inkscape:label="5%">
    <path id="window-5-percent-bar" data-name="5% bar" d="M 500.182 780 L 500.182 172.589 L 501.261 172.589 L 503.189 172.411 L 505.116 172.589 L 507.059 172.376 L 509.029 172.163 L 510.973 172.234 L 512.936 172.021 L 514.871 171.951 L 516.801 171.561 L 518.743 171.632 L 520.677 171.596 L 522.617 171.455 L 524.562 171.136 L 526.524 171.348 L 528.482 171.171 L 530.432 170.817 L 532.362 170.923 L 534.295 170.746 L 536.24 170.64 L 538.215 170.746 L 540.152 170.675 L 542.092 170.604 L 544.033 170.533 L 545.988 170.392 L 547.923 170.285 L 550.105 170.179 L 552.047 170.214 L 553.978 170.002 L 555.91 169.931 L 557.846 169.612 L 559.779 169.754 L 561.711 169.577 L 563.676 169.435 L 565.598 169.435 L 567.547 169.471 L 569.482 169.4 L 571.426 169.116 L 573.377 169.222 L 575.305 168.974 L 577.238 168.797 L 579.175 168.762 L 581.362 168.797 L 583.295 168.691 L 585.255 168.514 L 587.2 168.301 L 589.139 168.443 L 591.11 168.407 L 592.909 168.407 L 592.909 780 Z" fill="#B3B3B3"/>
    <path id="window-5-percent-wave" data-name="5% waveform" d="M 500.182 172.589 L 501.261 172.589 L 503.189 172.411 L 505.116 172.589 L 507.059 172.376 L 509.029 172.163 L 510.973 172.234 L 512.936 172.021 L 514.871 171.951 L 516.801 171.561 L 518.743 171.632 L 520.677 171.596 L 522.617 171.455 L 524.562 171.136 L 526.524 171.348 L 528.482 171.171 L 530.432 170.817 L 532.362 170.923 L 534.295 170.746 L 536.24 170.64 L 538.215 170.746 L 540.152 170.675 L 542.092 170.604 L 544.033 170.533 L 545.988 170.392 L 547.923 170.285 L 550.105 170.179 L 552.047 170.214 L 553.978 170.002 L 555.91 169.931 L 557.846 169.612 L 559.779 169.754 L 561.711 169.577 L 563.676 169.435 L 565.598 169.435 L 567.547 169.471 L 569.482 169.4 L 571.426 169.116 L 573.377 169.222 L 575.305 168.974 L 577.238 168.797 L 579.175 168.762 L 581.362 168.797 L 583.295 168.691 L 585.255 168.514 L 587.2 168.301 L 589.139 168.443 L 591.11 168.407 L 592.909 168.407" fill="none" stroke="#8C8C8C" stroke-width="1.2" stroke-linecap="round" stroke-linejoin="round"/>
  </g>

  <g id="window-10-percent" data-name="10%" inkscape:groupmode="layer" inkscape:label="10%">
    <path id="window-10-percent-bar" data-name="10% bar" d="M 626.909 780 L 626.909 176.593 L 627.875 176.593 L 629.807 176.344 L 631.756 176.026 L 633.691 176.309 L 635.646 176.025 L 637.593 175.919 L 639.523 175.813 L 641.484 175.707 L 643.42 175.459 L 645.374 175.494 L 647.374 175.813 L 649.341 175.494 L 651.259 175.317 L 653.191 175.069 L 655.137 175.104 L 657.083 175.034 L 659.012 174.75 L 660.963 174.856 L 662.918 174.927 L 664.858 174.608 L 666.796 174.573 L 668.744 174.679 L 670.689 174.467 L 672.642 174.325 L 674.594 174.289 L 676.543 174.29 L 678.491 174.112 L 680.434 173.971 L 682.391 173.9 L 684.332 173.935 L 686.275 173.935 L 688.233 173.617 L 690.203 173.758 L 692.154 173.687 L 694.118 173.369 L 696.068 173.404 L 698.039 173.51 L 699.997 173.226 L 701.938 173.049 L 703.898 173.014 L 705.833 173.12 L 707.799 173.014 L 709.738 172.837 L 711.681 172.731 L 713.636 172.624 L 715.58 172.731 L 717.518 172.411 L 719.453 172.412 L 719.636 172.412 L 719.636 780 Z" fill="#B3B3B3"/>
    <path id="window-10-percent-wave" data-name="10% waveform" d="M 626.909 176.593 L 627.875 176.593 L 629.807 176.344 L 631.756 176.026 L 633.691 176.309 L 635.646 176.025 L 637.593 175.919 L 639.523 175.813 L 641.484 175.707 L 643.42 175.459 L 645.374 175.494 L 647.374 175.813 L 649.341 175.494 L 651.259 175.317 L 653.191 175.069 L 655.137 175.104 L 657.083 175.034 L 659.012 174.75 L 660.963 174.856 L 662.918 174.927 L 664.858 174.608 L 666.796 174.573 L 668.744 174.679 L 670.689 174.467 L 672.642 174.325 L 674.594 174.289 L 676.543 174.29 L 678.491 174.112 L 680.434 173.971 L 682.391 173.9 L 684.332 173.935 L 686.275 173.935 L 688.233 173.617 L 690.203 173.758 L 692.154 173.687 L 694.118 173.369 L 696.068 173.404 L 698.039 173.51 L 699.997 173.226 L 701.938 173.049 L 703.898 173.014 L 705.833 173.12 L 707.799 173.014 L 709.738 172.837 L 711.681 172.731 L 713.636 172.624 L 715.58 172.731 L 717.518 172.411 L 719.453 172.412 L 719.636 172.412" fill="none" stroke="#8C8C8C" stroke-width="1.2" stroke-linecap="round" stroke-linejoin="round"/>
  </g>

  <g id="window-15-percent" data-name="15%" inkscape:groupmode="layer" inkscape:label="15%">
    <path id="window-15-percent-bar" data-name="15% bar" d="M 753.636 780 L 753.636 291.819 L 754.954 291.819 L 756.905 291.854 L 758.87 291.748 L 760.847 291.677 L 762.787 291.642 L 764.734 291.607 L 766.7 291.535 L 768.634 291.642 L 770.597 291.252 L 772.538 291.5 L 774.488 291.287 L 776.433 291.216 L 778.397 291.216 L 780.339 291.252 L 782.284 291.181 L 784.277 291.075 L 786.245 290.473 L 788.215 290.933 L 790.144 290.543 L 792.099 290.579 L 794.063 290.827 L 796.015 290.65 L 797.974 290.614 L 799.91 290.331 L 801.837 290.72 L 803.782 290.614 L 805.724 290.473 L 807.674 290.366 L 809.616 290.402 L 811.57 290.331 L 813.524 290.154 L 815.468 290.118 L 817.399 290.189 L 819.348 290.189 L 821.299 290.083 L 823.263 290.225 L 825.213 289.941 L 827.149 290.047 L 829.09 289.941 L 831.036 289.551 L 832.997 289.728 L 835.204 289.906 L 837.167 289.374 L 839.107 289.374 L 841.051 289.693 L 842.994 289.551 L 844.933 289.587 L 846.364 289.587 L 846.364 780 Z" fill="#B3B3B3"/>
    <path id="window-15-percent-wave" data-name="15% waveform" d="M 753.636 291.819 L 754.954 291.819 L 756.905 291.854 L 758.87 291.748 L 760.847 291.677 L 762.787 291.642 L 764.734 291.607 L 766.7 291.535 L 768.634 291.642 L 770.597 291.252 L 772.538 291.5 L 774.488 291.287 L 776.433 291.216 L 778.397 291.216 L 780.339 291.252 L 782.284 291.181 L 784.277 291.075 L 786.245 290.473 L 788.215 290.933 L 790.144 290.543 L 792.099 290.579 L 794.063 290.827 L 796.015 290.65 L 797.974 290.614 L 799.91 290.331 L 801.837 290.72 L 803.782 290.614 L 805.724 290.473 L 807.674 290.366 L 809.616 290.402 L 811.57 290.331 L 813.524 290.154 L 815.468 290.118 L 817.399 290.189 L 819.348 290.189 L 821.299 290.083 L 823.263 290.225 L 825.213 289.941 L 827.149 290.047 L 829.09 289.941 L 831.036 289.551 L 832.997 289.728 L 835.204 289.906 L 837.167 289.374 L 839.107 289.374 L 841.051 289.693 L 842.994 289.551 L 844.933 289.587 L 846.364 289.587" fill="none" stroke="#8C8C8C" stroke-width="1.2" stroke-linecap="round" stroke-linejoin="round"/>
  </g>

  <g id="window-20-percent" data-name="20%" inkscape:groupmode="layer" inkscape:label="20%">
    <path id="window-20-percent-bar" data-name="20% bar" d="M 880.364 780 L 880.364 398.612 L 881.676 398.612 L 883.608 398.648 L 885.544 398.612 L 887.491 398.329 L 889.416 398.613 L 891.382 398.364 L 893.311 398.471 L 895.251 398.506 L 897.201 398.435 L 899.135 398.293 L 901.082 398.222 L 903.027 398.293 L 904.982 398.293 L 906.955 398.01 L 908.88 398.01 L 910.827 398.081 L 912.759 398.081 L 914.702 397.939 L 916.635 397.939 L 918.599 398.152 L 920.527 398.01 L 922.469 397.868 L 924.405 397.904 L 926.377 397.939 L 928.285 397.833 L 930.255 397.762 L 932.214 397.833 L 934.177 397.762 L 936.133 397.797 L 938.058 397.585 L 939.997 397.797 L 941.962 397.549 L 943.902 397.514 L 946.086 397.585 L 948.014 397.514 L 949.949 397.656 L 951.909 397.549 L 953.895 397.585 L 955.868 397.443 L 957.834 397.478 L 959.776 397.443 L 961.725 397.231 L 963.687 397.231 L 965.636 397.337 L 967.592 397.478 L 969.554 397.301 L 971.499 397.089 L 973.091 397.089 L 973.091 780 Z" fill="#B3B3B3"/>
    <path id="window-20-percent-wave" data-name="20% waveform" d="M 880.364 398.612 L 881.676 398.612 L 883.608 398.648 L 885.544 398.612 L 887.491 398.329 L 889.416 398.613 L 891.382 398.364 L 893.311 398.471 L 895.251 398.506 L 897.201 398.435 L 899.135 398.293 L 901.082 398.222 L 903.027 398.293 L 904.982 398.293 L 906.955 398.01 L 908.88 398.01 L 910.827 398.081 L 912.759 398.081 L 914.702 397.939 L 916.635 397.939 L 918.599 398.152 L 920.527 398.01 L 922.469 397.868 L 924.405 397.904 L 926.377 397.939 L 928.285 397.833 L 930.255 397.762 L 932.214 397.833 L 934.177 397.762 L 936.133 397.797 L 938.058 397.585 L 939.997 397.797 L 941.962 397.549 L 943.902 397.514 L 946.086 397.585 L 948.014 397.514 L 949.949 397.656 L 951.909 397.549 L 953.895 397.585 L 955.868 397.443 L 957.834 397.478 L 959.776 397.443 L 961.725 397.231 L 963.687 397.231 L 965.636 397.337 L 967.592 397.478 L 969.554 397.301 L 971.499 397.089 L 973.091 397.089" fill="none" stroke="#8C8C8C" stroke-width="1.2" stroke-linecap="round" stroke-linejoin="round"/>
  </g>

  <g id="window-25-percent" data-name="25%" inkscape:groupmode="layer" inkscape:label="25%">
    <path id="window-25-percent-bar" data-name="25% bar" d="M 1007.091 780 L 1007.091 476.493 L 1008.5 476.493 L 1010.431 476.599 L 1012.366 476.458 L 1014.319 476.493 L 1016.26 476.351 L 1018.199 476.422 L 1020.138 476.351 L 1022.357 476.422 L 1024.311 476.28 L 1026.242 476.387 L 1028.198 476.245 L 1030.145 476.351 L 1032.08 476.387 L 1034.049 476.245 L 1035.977 476.139 L 1038.153 476.21 L 1040.109 476.068 L 1042.056 476.245 L 1043.987 476.21 L 1045.917 476.068 L 1047.856 476.174 L 1049.809 476.174 L 1051.736 475.997 L 1053.938 475.891 L 1055.89 475.926 L 1057.823 475.926 L 1059.782 476.033 L 1061.735 476.032 L 1063.723 475.926 L 1065.648 475.997 L 1067.591 475.997 L 1069.804 475.962 L 1071.771 475.855 L 1073.716 475.855 L 1075.655 475.714 L 1077.599 475.82 L 1079.538 475.82 L 1081.472 475.714 L 1083.431 475.856 L 1085.633 475.749 L 1087.572 475.82 L 1089.524 475.855 L 1091.479 475.714 L 1093.433 475.749 L 1095.374 475.678 L 1097.318 475.785 L 1099.253 475.643 L 1099.818 475.643 L 1099.818 780 Z" fill="#B3B3B3"/>
    <path id="window-25-percent-wave" data-name="25% waveform" d="M 1007.091 476.493 L 1008.5 476.493 L 1010.431 476.599 L 1012.366 476.458 L 1014.319 476.493 L 1016.26 476.351 L 1018.199 476.422 L 1020.138 476.351 L 1022.357 476.422 L 1024.311 476.28 L 1026.242 476.387 L 1028.198 476.245 L 1030.145 476.351 L 1032.08 476.387 L 1034.049 476.245 L 1035.977 476.139 L 1038.153 476.21 L 1040.109 476.068 L 1042.056 476.245 L 1043.987 476.21 L 1045.917 476.068 L 1047.856 476.174 L 1049.809 476.174 L 1051.736 475.997 L 1053.938 475.891 L 1055.89 475.926 L 1057.823 475.926 L 1059.782 476.033 L 1061.735 476.032 L 1063.723 475.926 L 1065.648 475.997 L 1067.591 475.997 L 1069.804 475.962 L 1071.771 475.855 L 1073.716 475.855 L 1075.655 475.714 L 1077.599 475.82 L 1079.538 475.82 L 1081.472 475.714 L 1083.431 475.856 L 1085.633 475.749 L 1087.572 475.82 L 1089.524 475.855 L 1091.479 475.714 L 1093.433 475.749 L 1095.374 475.678 L 1097.318 475.785 L 1099.253 475.643 L 1099.818 475.643" fill="none" stroke="#8C8C8C" stroke-width="1.2" stroke-linecap="round" stroke-linejoin="round"/>
  </g>

  <g id="window-50-percent" data-name="50%" inkscape:groupmode="layer" inkscape:label="50%">
    <path id="window-50-percent-bar" data-name="50% bar" d="M 1133.818 780 L 1133.818 619.676 L 1134.866 619.676 L 1136.807 619.746 L 1138.744 619.605 L 1140.687 619.605 L 1142.628 619.711 L 1144.552 619.64 L 1146.499 619.676 L 1148.441 619.64 L 1150.363 619.817 L 1152.296 619.676 L 1154.241 619.64 L 1156.166 619.676 L 1158.105 619.711 L 1160.061 619.569 L 1161.991 619.747 L 1163.908 619.605 L 1165.832 619.746 L 1167.739 619.747 L 1169.681 619.711 L 1171.634 619.711 L 1173.581 619.64 L 1175.522 619.64 L 1177.465 619.675 L 1179.418 619.746 L 1181.375 619.782 L 1183.317 619.605 L 1185.254 619.746 L 1187.167 619.711 L 1189.119 619.605 L 1191.072 619.64 L 1193.021 619.711 L 1194.948 619.747 L 1196.882 619.499 L 1198.811 619.676 L 1200.776 619.782 L 1202.717 619.64 L 1204.636 619.64 L 1206.565 619.711 L 1208.52 619.711 L 1210.448 619.64 L 1212.391 619.605 L 1214.329 619.782 L 1216.275 619.676 L 1218.224 619.64 L 1220.177 619.747 L 1222.107 619.782 L 1224.061 619.711 L 1226.014 619.605 L 1226.545 619.605 L 1226.545 780 Z" fill="#B3B3B3"/>
    <path id="window-50-percent-wave" data-name="50% waveform" d="M 1133.818 619.676 L 1134.866 619.676 L 1136.807 619.746 L 1138.744 619.605 L 1140.687 619.605 L 1142.628 619.711 L 1144.552 619.64 L 1146.499 619.676 L 1148.441 619.64 L 1150.363 619.817 L 1152.296 619.676 L 1154.241 619.64 L 1156.166 619.676 L 1158.105 619.711 L 1160.061 619.569 L 1161.991 619.747 L 1163.908 619.605 L 1165.832 619.746 L 1167.739 619.747 L 1169.681 619.711 L 1171.634 619.711 L 1173.581 619.64 L 1175.522 619.64 L 1177.465 619.675 L 1179.418 619.746 L 1181.375 619.782 L 1183.317 619.605 L 1185.254 619.746 L 1187.167 619.711 L 1189.119 619.605 L 1191.072 619.64 L 1193.021 619.711 L 1194.948 619.747 L 1196.882 619.499 L 1198.811 619.676 L 1200.776 619.782 L 1202.717 619.64 L 1204.636 619.64 L 1206.565 619.711 L 1208.52 619.711 L 1210.448 619.64 L 1212.391 619.605 L 1214.329 619.782 L 1216.275 619.676 L 1218.224 619.64 L 1220.177 619.747 L 1222.107 619.782 L 1224.061 619.711 L 1226.014 619.605 L 1226.545 619.605" fill="none" stroke="#8C8C8C" stroke-width="1.2" stroke-linecap="round" stroke-linejoin="round"/>
  </g>

  <g id="window-75-percent" data-name="75%" inkscape:groupmode="layer" inkscape:label="75%">
    <path id="window-75-percent-bar" data-name="75% bar" d="M 1260.545 780 L 1260.545 668.537 L 1262.02 668.537 L 1263.94 668.644 L 1265.895 668.679 L 1267.815 668.573 L 1269.763 668.573 L 1271.698 668.643 L 1273.641 668.644 L 1275.824 668.537 L 1277.757 668.714 L 1279.703 668.608 L 1281.642 668.75 L 1283.593 668.679 L 1285.534 668.502 L 1287.476 668.608 L 1289.427 668.644 L 1291.608 668.679 L 1293.54 668.608 L 1295.491 668.573 L 1297.463 668.608 L 1299.405 668.75 L 1301.34 668.679 L 1303.268 668.608 L 1305.2 668.608 L 1307.386 668.608 L 1309.325 668.679 L 1311.265 668.608 L 1313.213 668.679 L 1315.172 668.644 L 1317.13 668.679 L 1319.081 668.715 L 1321.03 668.644 L 1323.202 668.608 L 1325.138 668.537 L 1327.08 668.679 L 1329.042 668.679 L 1331.007 668.679 L 1332.953 668.572 L 1334.887 668.714 L 1336.846 668.749 L 1339.03 668.608 L 1340.996 668.75 L 1342.921 668.715 L 1344.873 668.644 L 1346.822 668.785 L 1348.756 668.75 L 1350.698 668.608 L 1352.647 668.785 L 1353.273 668.785 L 1353.273 780 Z" fill="#B3B3B3"/>
    <path id="window-75-percent-wave" data-name="75% waveform" d="M 1260.545 668.537 L 1262.02 668.537 L 1263.94 668.644 L 1265.895 668.679 L 1267.815 668.573 L 1269.763 668.573 L 1271.698 668.643 L 1273.641 668.644 L 1275.824 668.537 L 1277.757 668.714 L 1279.703 668.608 L 1281.642 668.75 L 1283.593 668.679 L 1285.534 668.502 L 1287.476 668.608 L 1289.427 668.644 L 1291.608 668.679 L 1293.54 668.608 L 1295.491 668.573 L 1297.463 668.608 L 1299.405 668.75 L 1301.34 668.679 L 1303.268 668.608 L 1305.2 668.608 L 1307.386 668.608 L 1309.325 668.679 L 1311.265 668.608 L 1313.213 668.679 L 1315.172 668.644 L 1317.13 668.679 L 1319.081 668.715 L 1321.03 668.644 L 1323.202 668.608 L 1325.138 668.537 L 1327.08 668.679 L 1329.042 668.679 L 1331.007 668.679 L 1332.953 668.572 L 1334.887 668.714 L 1336.846 668.749 L 1339.03 668.608 L 1340.996 668.75 L 1342.921 668.715 L 1344.873 668.644 L 1346.822 668.785 L 1348.756 668.75 L 1350.698 668.608 L 1352.647 668.785 L 1353.273 668.785" fill="none" stroke="#8C8C8C" stroke-width="1.2" stroke-linecap="round" stroke-linejoin="round"/>
  </g>

  <g id="window-100-percent" data-name="100%" inkscape:groupmode="layer" inkscape:label="100%">
    <path id="window-100-percent-bar" data-name="100% bar" d="M 1387.273 780 L 1387.273 684.021 L 1388.298 684.021 L 1390.255 683.951 L 1392.208 684.057 L 1394.167 684.021 L 1396.111 684.128 L 1398.057 684.021 L 1399.988 683.951 L 1401.953 684.093 L 1403.923 684.163 L 1405.866 684.092 L 1407.821 683.986 L 1409.789 684.057 L 1411.75 684.128 L 1413.689 684.092 L 1415.645 683.986 L 1417.579 684.093 L 1419.51 684.163 L 1421.455 683.951 L 1423.4 683.986 L 1425.332 684.092 L 1427.256 684.128 L 1429.186 684.092 L 1431.134 684.092 L 1433.056 684.128 L 1434.985 683.986 L 1436.921 684.057 L 1438.868 684.163 L 1440.795 684.092 L 1442.707 684.021 L 1444.643 684.057 L 1446.588 684.128 L 1448.518 684.057 L 1450.461 684.057 L 1452.384 684.128 L 1454.319 684.128 L 1456.261 683.986 L 1458.201 684.163 L 1460.153 684.057 L 1462.088 684.057 L 1464.016 684.057 L 1465.96 684.163 L 1467.916 684.163 L 1469.888 684.128 L 1471.838 684.092 L 1473.78 684.128 L 1475.748 684.163 L 1477.708 684.057 L 1479.649 684.092 L 1480 684.092 L 1480 780 Z" fill="#B3B3B3"/>
    <path id="window-100-percent-wave" data-name="100% waveform" d="M 1387.273 684.021 L 1388.298 684.021 L 1390.255 683.951 L 1392.208 684.057 L 1394.167 684.021 L 1396.111 684.128 L 1398.057 684.021 L 1399.988 683.951 L 1401.953 684.093 L 1403.923 684.163 L 1405.866 684.092 L 1407.821 683.986 L 1409.789 684.057 L 1411.75 684.128 L 1413.689 684.092 L 1415.645 683.986 L 1417.579 684.093 L 1419.51 684.163 L 1421.455 683.951 L 1423.4 683.986 L 1425.332 684.092 L 1427.256 684.128 L 1429.186 684.092 L 1431.134 684.092 L 1433.056 684.128 L 1434.985 683.986 L 1436.921 684.057 L 1438.868 684.163 L 1440.795 684.092 L 1442.707 684.021 L 1444.643 684.057 L 1446.588 684.128 L 1448.518 684.057 L 1450.461 684.057 L 1452.384 684.128 L 1454.319 684.128 L 1456.261 683.986 L 1458.201 684.163 L 1460.153 684.057 L 1462.088 684.057 L 1464.016 684.057 L 1465.96 684.163 L 1467.916 684.163 L 1469.888 684.128 L 1471.838 684.092 L 1473.78 684.128 L 1475.748 684.163 L 1477.708 684.057 L 1479.649 684.092 L 1480 684.092" fill="none" stroke="#8C8C8C" stroke-width="1.2" stroke-linecap="round" stroke-linejoin="round"/>
  </g>
</svg>
