<?xml version="1.0" encoding="UTF-8"?>
<svg xmlns="http://www.w3.org/2000/svg" xmlns:inkscape="http://www.inkscape.org/namespaces/inkscape" width="1600" height="900" viewBox="0 0 1600 900" version="1.1">
  <title>LG 77 C6 专家（明亮空间，白天）模式 峰值亮度关 8.xlsx AI layered luminance SVG</title>
  <desc>Each percentage window is a separate group/layer. Y scale: 0 to 2500 nits.</desc>
  <rect id="artboard-background" data-name="Artboard background" x="0" y="0" width="1600" height="900" fill="#FFFFFF"/>

  <g id="window-1-percent" data-name="1%" inkscape:groupmode="layer" inkscape:label="1%">
    <path id="window-1-percent-bar" data-name="1% bar" d="M 120 780 L 120 622.883 L 121.835 622.883 L 123.919 622.954 L 125.781 622.954 L 127.657 622.848 L 129.523 622.741 L 131.375 622.706 L 133.246 622.883 L 135.096 622.777 L 136.945 622.706 L 139.019 622.706 L 140.886 622.635 L 142.748 622.777 L 144.605 622.742 L 146.468 622.564 L 148.325 622.67 L 150.208 622.777 L 152.067 622.706 L 154.14 622.6 L 155.991 622.706 L 157.847 622.599 L 159.708 622.706 L 161.576 622.706 L 163.417 622.635 L 165.273 622.493 L 167.156 622.671 L 169.216 622.635 L 171.081 622.706 L 172.928 622.6 L 174.783 622.423 L 176.608 622.493 L 178.455 622.635 L 180.334 622.458 L 182.194 622.423 L 184.26 622.493 L 186.128 622.493 L 187.992 622.564 L 189.833 622.458 L 191.671 622.352 L 193.527 622.493 L 195.374 622.423 L 197.237 622.352 L 199.313 622.316 L 201.148 622.352 L 203.009 622.352 L 204.851 622.529 L 206.7 622.316 L 208.537 622.316 L 210.398 622.387 L 212.231 622.387 L 212.727 622.387 L 212.727 780 Z" fill="#B3B3B3"/>
    <path id="window-1-percent-wave" data-name="1% waveform" d="M 120 622.883 L 121.835 622.883 L 123.919 622.954 L 125.781 622.954 L 127.657 622.848 L 129.523 622.741 L 131.375 622.706 L 133.246 622.883 L 135.096 622.777 L 136.945 622.706 L 139.019 622.706 L 140.886 622.635 L 142.748 622.777 L 144.605 622.742 L 146.468 622.564 L 148.325 622.67 L 150.208 622.777 L 152.067 622.706 L 154.14 622.6 L 155.991 622.706 L 157.847 622.599 L 159.708 622.706 L 161.576 622.706 L 163.417 622.635 L 165.273 622.493 L 167.156 622.671 L 169.216 622.635 L 171.081 622.706 L 172.928 622.6 L 174.783 622.423 L 176.608 622.493 L 178.455 622.635 L 180.334 622.458 L 182.194 622.423 L 184.26 622.493 L 186.128 622.493 L 187.992 622.564 L 189.833 622.458 L 191.671 622.352 L 193.527 622.493 L 195.374 622.423 L 197.237 622.352 L 199.313 622.316 L 201.148 622.352 L 203.009 622.352 L 204.851 622.529 L 206.7 622.316 L 208.537 622.316 L 210.398 622.387 L 212.231 622.387 L 212.727 622.387" fill="none" stroke="#8C8C8C" stroke-width="1.2" stroke-linecap="round" stroke-linejoin="round"/>
  </g>

  <g id="window-2-percent" data-name="2%" inkscape:groupmode="layer" inkscape:label="2%">
    <path id="window-2-percent-bar" data-name="2% bar" d="M 246.727 780 L 246.727 622.954 L 247.717 622.954 L 249.674 622.848 L 251.608 622.777 L 253.527 622.883 L 255.459 622.883 L 257.411 622.812 L 259.348 622.812 L 261.305 622.919 L 263.234 622.883 L 265.165 622.706 L 267.12 622.706 L 269.061 622.812 L 270.987 622.67 L 272.913 622.67 L 274.843 622.848 L 276.778 622.671 L 278.723 622.6 L 280.648 622.635 L 282.593 622.777 L 284.544 622.635 L 286.509 622.564 L 288.441 622.67 L 290.386 622.741 L 292.309 622.529 L 294.243 622.6 L 296.179 622.706 L 298.108 622.6 L 300.049 622.423 L 301.993 622.529 L 303.924 622.6 L 305.866 622.422 L 307.824 622.493 L 309.773 622.564 L 311.711 622.529 L 313.637 622.387 L 315.593 622.423 L 317.516 622.529 L 319.457 622.458 L 321.392 622.387 L 323.339 622.493 L 325.282 622.458 L 327.23 622.422 L 329.19 622.387 L 331.135 622.458 L 333.085 622.458 L 335.031 622.387 L 336.958 622.352 L 338.88 622.564 L 339.455 622.564 L 339.455 780 Z" fill="#B3B3B3"/>
    <path id="window-2-percent-wave" data-name="2% waveform" d="M 246.727 622.954 L 247.717 622.954 L 249.674 622.848 L 251.608 622.777 L 253.527 622.883 L 255.459 622.883 L 257.411 622.812 L 259.348 622.812 L 261.305 622.919 L 263.234 622.883 L 265.165 622.706 L 267.12 622.706 L 269.061 622.812 L 270.987 622.67 L 272.913 622.67 L 274.843 622.848 L 276.778 622.671 L 278.723 622.6 L 280.648 622.635 L 282.593 622.777 L 284.544 622.635 L 286.509 622.564 L 288.441 622.67 L 290.386 622.741 L 292.309 622.529 L 294.243 622.6 L 296.179 622.706 L 298.108 622.6 L 300.049 622.423 L 301.993 622.529 L 303.924 622.6 L 305.866 622.422 L 307.824 622.493 L 309.773 622.564 L 311.711 622.529 L 313.637 622.387 L 315.593 622.423 L 317.516 622.529 L 319.457 622.458 L 321.392 622.387 L 323.339 622.493 L 325.282 622.458 L 327.23 622.422 L 329.19 622.387 L 331.135 622.458 L 333.085 622.458 L 335.031 622.387 L 336.958 622.352 L 338.88 622.564 L 339.455 622.564" fill="none" stroke="#8C8C8C" stroke-width="1.2" stroke-linecap="round" stroke-linejoin="round"/>
  </g>

  <g id="window-3-percent" data-name="3%" inkscape:groupmode="layer" inkscape:label="3%">
    <path id="window-3-percent-bar" data-name="3% bar" d="M 373.455 780 L 373.455 622.635 L 374.421 622.635 L 376.361 622.741 L 378.312 622.847 L 380.253 622.671 L 382.169 622.564 L 384.116 622.812 L 386.045 622.67 L 387.997 622.564 L 389.955 622.564 L 391.893 622.706 L 393.827 622.6 L 395.745 622.529 L 397.684 622.67 L 399.624 622.6 L 401.575 622.458 L 403.507 622.529 L 405.446 622.67 L 407.374 622.423 L 409.314 622.493 L 411.282 622.671 L 413.257 622.564 L 415.168 622.529 L 417.112 622.458 L 419.067 622.564 L 420.996 622.493 L 422.929 622.387 L 424.882 622.458 L 426.83 622.6 L 428.772 622.458 L 430.72 622.316 L 432.676 622.387 L 434.631 622.422 L 436.568 622.316 L 438.513 622.316 L 440.458 622.387 L 442.39 622.493 L 444.356 622.175 L 446.318 622.316 L 448.284 622.458 L 450.221 622.458 L 452.172 622.174 L 454.097 622.245 L 456.04 622.352 L 457.993 622.352 L 459.946 622.245 L 461.891 622.21 L 463.832 622.387 L 465.782 622.316 L 466.182 622.316 L 466.182 780 Z" fill="#B3B3B3"/>
    <path id="window-3-percent-wave" data-name="3% waveform" d="M 373.455 622.635 L 374.421 622.635 L 376.361 622.741 L 378.312 622.847 L 380.253 622.671 L 382.169 622.564 L 384.116 622.812 L 386.045 622.67 L 387.997 622.564 L 389.955 622.564 L 391.893 622.706 L 393.827 622.6 L 395.745 622.529 L 397.684 622.67 L 399.624 622.6 L 401.575 622.458 L 403.507 622.529 L 405.446 622.67 L 407.374 622.423 L 409.314 622.493 L 411.282 622.671 L 413.257 622.564 L 415.168 622.529 L 417.112 622.458 L 419.067 622.564 L 420.996 622.493 L 422.929 622.387 L 424.882 622.458 L 426.83 622.6 L 428.772 622.458 L 430.72 622.316 L 432.676 622.387 L 434.631 622.422 L 436.568 622.316 L 438.513 622.316 L 440.458 622.387 L 442.39 622.493 L 444.356 622.175 L 446.318 622.316 L 448.284 622.458 L 450.221 622.458 L 452.172 622.174 L 454.097 622.245 L 456.04 622.352 L 457.993 622.352 L 459.946 622.245 L 461.891 622.21 L 463.832 622.387 L 465.782 622.316 L 466.182 622.316" fill="none" stroke="#8C8C8C" stroke-width="1.2" stroke-linecap="round" stroke-linejoin="round"/>
  </g>

  <g id="window-5-percent" data-name="5%" inkscape:groupmode="layer" inkscape:label="5%">
    <path id="window-5-percent-bar" data-name="5% bar" d="M 500.182 780 L 500.182 622.6 L 501.484 622.6 L 503.423 622.741 L 505.37 622.706 L 507.34 622.6 L 509.27 622.564 L 511.21 622.671 L 513.158 622.706 L 515.091 622.493 L 517.052 622.529 L 519.017 622.635 L 520.97 622.706 L 522.923 622.529 L 524.863 622.493 L 526.768 622.67 L 528.725 622.564 L 530.688 622.564 L 532.655 622.599 L 534.61 622.6 L 536.563 622.529 L 538.506 622.458 L 540.435 622.529 L 542.409 622.6 L 544.359 622.423 L 546.323 622.281 L 548.257 622.493 L 550.197 622.564 L 552.132 622.316 L 554.08 622.352 L 556.023 622.458 L 557.939 622.529 L 559.896 622.387 L 561.837 622.387 L 563.784 622.6 L 565.73 622.422 L 567.677 622.316 L 569.629 622.458 L 571.602 622.458 L 573.553 622.422 L 575.513 622.387 L 577.466 622.352 L 579.416 622.493 L 581.347 622.352 L 583.28 622.316 L 585.203 622.422 L 587.148 622.422 L 589.083 622.281 L 591.03 622.281 L 592.909 622.281 L 592.909 780 Z" fill="#B3B3B3"/>
    <path id="window-5-percent-wave" data-name="5% waveform" d="M 500.182 622.6 L 501.484 622.6 L 503.423 622.741 L 505.37 622.706 L 507.34 622.6 L 509.27 622.564 L 511.21 622.671 L 513.158 622.706 L 515.091 622.493 L 517.052 622.529 L 519.017 622.635 L 520.97 622.706 L 522.923 622.529 L 524.863 622.493 L 526.768 622.67 L 528.725 622.564 L 530.688 622.564 L 532.655 622.599 L 534.61 622.6 L 536.563 622.529 L 538.506 622.458 L 540.435 622.529 L 542.409 622.6 L 544.359 622.423 L 546.323 622.281 L 548.257 622.493 L 550.197 622.564 L 552.132 622.316 L 554.08 622.352 L 556.023 622.458 L 557.939 622.529 L 559.896 622.387 L 561.837 622.387 L 563.784 622.6 L 565.73 622.422 L 567.677 622.316 L 569.629 622.458 L 571.602 622.458 L 573.553 622.422 L 575.513 622.387 L 577.466 622.352 L 579.416 622.493 L 581.347 622.352 L 583.28 622.316 L 585.203 622.422 L 587.148 622.422 L 589.083 622.281 L 591.03 622.281 L 592.909 622.281" fill="none" stroke="#8C8C8C" stroke-width="1.2" stroke-linecap="round" stroke-linejoin="round"/>
  </g>

  <g id="window-10-percent" data-name="10%" inkscape:groupmode="layer" inkscape:label="10%">
    <path id="window-10-percent-bar" data-name="10% bar" d="M 626.909 780 L 626.909 622.812 L 628.29 622.812 L 630.265 622.777 L 632.198 622.706 L 634.137 622.777 L 636.336 622.706 L 638.291 622.777 L 640.259 622.776 L 642.2 622.635 L 644.158 622.706 L 646.112 622.67 L 648.068 622.635 L 650.003 622.6 L 652.219 622.6 L 654.155 622.493 L 656.099 622.635 L 658.051 622.671 L 659.986 622.493 L 661.953 622.493 L 663.895 622.564 L 665.851 622.671 L 668.05 622.387 L 669.993 622.529 L 671.96 622.458 L 673.9 622.493 L 675.85 622.529 L 677.78 622.529 L 679.72 622.458 L 681.675 622.529 L 683.857 622.493 L 685.804 622.564 L 687.747 622.422 L 689.684 622.458 L 691.629 622.423 L 693.585 622.564 L 695.545 622.352 L 697.503 622.387 L 699.686 622.387 L 701.62 622.352 L 703.575 622.423 L 705.524 622.387 L 707.459 622.352 L 709.41 622.422 L 711.339 622.387 L 713.288 622.316 L 715.466 622.281 L 717.418 622.316 L 719.379 622.316 L 719.636 622.316 L 719.636 780 Z" fill="#B3B3B3"/>
    <path id="window-10-percent-wave" data-name="10% waveform" d="M 626.909 622.812 L 628.29 622.812 L 630.265 622.777 L 632.198 622.706 L 634.137 622.777 L 636.336 622.706 L 638.291 622.777 L 640.259 622.776 L 642.2 622.635 L 644.158 622.706 L 646.112 622.67 L 648.068 622.635 L 650.003 622.6 L 652.219 622.6 L 654.155 622.493 L 656.099 622.635 L 658.051 622.671 L 659.986 622.493 L 661.953 622.493 L 663.895 622.564 L 665.851 622.671 L 668.05 622.387 L 669.993 622.529 L 671.96 622.458 L 673.9 622.493 L 675.85 622.529 L 677.78 622.529 L 679.72 622.458 L 681.675 622.529 L 683.857 622.493 L 685.804 622.564 L 687.747 622.422 L 689.684 622.458 L 691.629 622.423 L 693.585 622.564 L 695.545 622.352 L 697.503 622.387 L 699.686 622.387 L 701.62 622.352 L 703.575 622.423 L 705.524 622.387 L 707.459 622.352 L 709.41 622.422 L 711.339 622.387 L 713.288 622.316 L 715.466 622.281 L 717.418 622.316 L 719.379 622.316 L 719.636 622.316" fill="none" stroke="#8C8C8C" stroke-width="1.2" stroke-linecap="round" stroke-linejoin="round"/>
  </g>

  <g id="window-15-percent" data-name="15%" inkscape:groupmode="layer" inkscape:label="15%">
    <path id="window-15-percent-bar" data-name="15% bar" d="M 753.636 780 L 753.636 622.564 L 754.725 622.564 L 756.66 622.635 L 758.598 622.636 L 760.558 622.529 L 762.503 622.529 L 764.451 622.671 L 766.413 622.6 L 768.396 622.564 L 770.379 622.493 L 772.323 622.671 L 774.284 622.635 L 776.229 622.387 L 778.17 622.564 L 780.122 622.6 L 782.091 622.458 L 784.063 622.423 L 786.025 622.493 L 787.976 622.6 L 789.923 622.529 L 791.882 622.387 L 793.824 622.529 L 795.798 622.493 L 797.756 622.423 L 799.743 622.387 L 801.696 622.387 L 803.636 622.458 L 805.575 622.316 L 807.546 622.316 L 809.512 622.387 L 811.48 622.493 L 813.425 622.281 L 815.371 622.387 L 817.337 622.422 L 819.301 622.422 L 821.245 622.352 L 823.185 622.316 L 825.137 622.387 L 827.087 622.351 L 829.032 622.316 L 831.01 622.387 L 832.975 622.422 L 834.942 622.21 L 836.901 622.175 L 838.861 622.245 L 840.806 622.245 L 842.783 622.175 L 844.713 622.139 L 846.364 622.139 L 846.364 780 Z" fill="#B3B3B3"/>
    <path id="window-15-percent-wave" data-name="15% waveform" d="M 753.636 622.564 L 754.725 622.564 L 756.66 622.635 L 758.598 622.636 L 760.558 622.529 L 762.503 622.529 L 764.451 622.671 L 766.413 622.6 L 768.396 622.564 L 770.379 622.493 L 772.323 622.671 L 774.284 622.635 L 776.229 622.387 L 778.17 622.564 L 780.122 622.6 L 782.091 622.458 L 784.063 622.423 L 786.025 622.493 L 787.976 622.6 L 789.923 622.529 L 791.882 622.387 L 793.824 622.529 L 795.798 622.493 L 797.756 622.423 L 799.743 622.387 L 801.696 622.387 L 803.636 622.458 L 805.575 622.316 L 807.546 622.316 L 809.512 622.387 L 811.48 622.493 L 813.425 622.281 L 815.371 622.387 L 817.337 622.422 L 819.301 622.422 L 821.245 622.352 L 823.185 622.316 L 825.137 622.387 L 827.087 622.351 L 829.032 622.316 L 831.01 622.387 L 832.975 622.422 L 834.942 622.21 L 836.901 622.175 L 838.861 622.245 L 840.806 622.245 L 842.783 622.175 L 844.713 622.139 L 846.364 622.139" fill="none" stroke="#8C8C8C" stroke-width="1.2" stroke-linecap="round" stroke-linejoin="round"/>
  </g>

  <g id="window-20-percent" data-name="20%" inkscape:groupmode="layer" inkscape:label="20%">
    <path id="window-20-percent-bar" data-name="20% bar" d="M 880.364 780 L 880.364 623.096 L 881.364 623.096 L 883.294 623.025 L 885.271 622.919 L 887.206 622.848 L 889.134 622.918 L 891.085 622.883 L 893.036 622.883 L 894.993 622.848 L 896.931 622.883 L 898.895 622.812 L 900.832 622.777 L 902.78 622.848 L 904.739 622.919 L 906.732 622.777 L 908.675 622.671 L 910.638 622.812 L 912.571 622.919 L 914.509 622.777 L 916.467 622.671 L 918.398 622.777 L 920.344 622.848 L 922.298 622.741 L 924.236 622.635 L 926.173 622.812 L 928.122 622.706 L 930.069 622.6 L 932.02 622.6 L 933.966 622.741 L 935.911 622.6 L 937.861 622.564 L 939.825 622.635 L 941.768 622.706 L 943.709 622.564 L 945.663 622.529 L 947.624 622.635 L 949.566 622.671 L 951.492 622.565 L 953.447 622.6 L 955.382 622.635 L 957.323 622.599 L 959.284 622.458 L 961.212 622.6 L 963.161 622.706 L 965.108 622.494 L 967.062 622.529 L 969.004 622.6 L 970.926 622.529 L 972.858 622.458 L 973.091 622.458 L 973.091 780 Z" fill="#B3B3B3"/>
    <path id="window-20-percent-wave" data-name="20% waveform" d="M 880.364 623.096 L 881.364 623.096 L 883.294 623.025 L 885.271 622.919 L 887.206 622.848 L 889.134 622.918 L 891.085 622.883 L 893.036 622.883 L 894.993 622.848 L 896.931 622.883 L 898.895 622.812 L 900.832 622.777 L 902.78 622.848 L 904.739 622.919 L 906.732 622.777 L 908.675 622.671 L 910.638 622.812 L 912.571 622.919 L 914.509 622.777 L 916.467 622.671 L 918.398 622.777 L 920.344 622.848 L 922.298 622.741 L 924.236 622.635 L 926.173 622.812 L 928.122 622.706 L 930.069 622.6 L 932.02 622.6 L 933.966 622.741 L 935.911 622.6 L 937.861 622.564 L 939.825 622.635 L 941.768 622.706 L 943.709 622.564 L 945.663 622.529 L 947.624 622.635 L 949.566 622.671 L 951.492 622.565 L 953.447 622.6 L 955.382 622.635 L 957.323 622.599 L 959.284 622.458 L 961.212 622.6 L 963.161 622.706 L 965.108 622.494 L 967.062 622.529 L 969.004 622.6 L 970.926 622.529 L 972.858 622.458 L 973.091 622.458" fill="none" stroke="#8C8C8C" stroke-width="1.2" stroke-linecap="round" stroke-linejoin="round"/>
  </g>

  <g id="window-25-percent" data-name="25%" inkscape:groupmode="layer" inkscape:label="25%">
    <path id="window-25-percent-bar" data-name="25% bar" d="M 1007.091 780 L 1007.091 623.237 L 1008.184 623.237 L 1010.147 623.273 L 1012.101 623.202 L 1014.072 623.096 L 1016.019 623.273 L 1017.944 623.273 L 1019.908 623.096 L 1021.858 623.096 L 1023.791 623.202 L 1025.713 623.237 L 1027.674 623.131 L 1029.611 623.131 L 1031.56 623.202 L 1033.519 623.237 L 1035.463 623.096 L 1037.402 623.131 L 1039.353 623.167 L 1041.302 623.025 L 1043.245 623.025 L 1045.195 623.131 L 1047.144 623.06 L 1049.077 622.989 L 1051.057 622.989 L 1052.97 623.131 L 1054.897 623.096 L 1056.893 622.989 L 1058.852 623.096 L 1060.794 623.131 L 1062.739 622.989 L 1064.679 622.989 L 1066.621 623.061 L 1068.571 622.99 L 1070.518 622.918 L 1072.483 622.919 L 1074.434 622.919 L 1076.362 623.025 L 1078.303 622.883 L 1080.228 622.848 L 1082.164 622.919 L 1084.1 622.777 L 1086.048 622.777 L 1088.004 622.883 L 1089.96 622.883 L 1091.892 622.919 L 1093.849 622.848 L 1095.772 622.919 L 1097.718 622.883 L 1099.665 622.741 L 1099.818 622.741 L 1099.818 780 Z" fill="#B3B3B3"/>
    <path id="window-25-percent-wave" data-name="25% waveform" d="M 1007.091 623.237 L 1008.184 623.237 L 1010.147 623.273 L 1012.101 623.202 L 1014.072 623.096 L 1016.019 623.273 L 1017.944 623.273 L 1019.908 623.096 L 1021.858 623.096 L 1023.791 623.202 L 1025.713 623.237 L 1027.674 623.131 L 1029.611 623.131 L 1031.56 623.202 L 1033.519 623.237 L 1035.463 623.096 L 1037.402 623.131 L 1039.353 623.167 L 1041.302 623.025 L 1043.245 623.025 L 1045.195 623.131 L 1047.144 623.06 L 1049.077 622.989 L 1051.057 622.989 L 1052.97 623.131 L 1054.897 623.096 L 1056.893 622.989 L 1058.852 623.096 L 1060.794 623.131 L 1062.739 622.989 L 1064.679 622.989 L 1066.621 623.061 L 1068.571 622.99 L 1070.518 622.918 L 1072.483 622.919 L 1074.434 622.919 L 1076.362 623.025 L 1078.303 622.883 L 1080.228 622.848 L 1082.164 622.919 L 1084.1 622.777 L 1086.048 622.777 L 1088.004 622.883 L 1089.96 622.883 L 1091.892 622.919 L 1093.849 622.848 L 1095.772 622.919 L 1097.718 622.883 L 1099.665 622.741 L 1099.818 622.741" fill="none" stroke="#8C8C8C" stroke-width="1.2" stroke-linecap="round" stroke-linejoin="round"/>
  </g>

  <g id="window-50-percent" data-name="50%" inkscape:groupmode="layer" inkscape:label="50%">
    <path id="window-50-percent-bar" data-name="50% bar" d="M 1133.818 780 L 1133.818 624.867 L 1134.848 624.867 L 1136.786 624.867 L 1138.73 624.726 L 1140.665 624.761 L 1142.605 624.868 L 1144.545 624.726 L 1146.464 624.726 L 1148.388 624.832 L 1150.355 624.726 L 1152.302 624.62 L 1154.229 624.761 L 1156.166 624.832 L 1158.1 624.726 L 1160.038 624.655 L 1161.972 624.761 L 1163.911 624.726 L 1165.858 624.548 L 1167.796 624.584 L 1169.72 624.726 L 1171.64 624.69 L 1173.566 624.549 L 1175.524 624.62 L 1177.44 624.69 L 1179.397 624.513 L 1181.351 624.584 L 1183.529 624.655 L 1185.463 624.584 L 1187.396 624.726 L 1189.323 624.584 L 1191.258 624.549 L 1193.192 624.584 L 1195.153 624.62 L 1197.082 624.584 L 1199.024 624.655 L 1200.968 624.619 L 1202.917 624.584 L 1204.866 624.584 L 1206.787 624.584 L 1208.728 624.691 L 1210.661 624.726 L 1212.596 624.584 L 1214.748 624.62 L 1216.682 624.584 L 1218.607 624.655 L 1220.548 624.584 L 1222.482 624.584 L 1224.442 624.513 L 1226.397 624.584 L 1226.545 624.584 L 1226.545 780 Z" fill="#B3B3B3"/>
    <path id="window-50-percent-wave" data-name="50% waveform" d="M 1133.818 624.867 L 1134.848 624.867 L 1136.786 624.867 L 1138.73 624.726 L 1140.665 624.761 L 1142.605 624.868 L 1144.545 624.726 L 1146.464 624.726 L 1148.388 624.832 L 1150.355 624.726 L 1152.302 624.62 L 1154.229 624.761 L 1156.166 624.832 L 1158.1 624.726 L 1160.038 624.655 L 1161.972 624.761 L 1163.911 624.726 L 1165.858 624.548 L 1167.796 624.584 L 1169.72 624.726 L 1171.64 624.69 L 1173.566 624.549 L 1175.524 624.62 L 1177.44 624.69 L 1179.397 624.513 L 1181.351 624.584 L 1183.529 624.655 L 1185.463 624.584 L 1187.396 624.726 L 1189.323 624.584 L 1191.258 624.549 L 1193.192 624.584 L 1195.153 624.62 L 1197.082 624.584 L 1199.024 624.655 L 1200.968 624.619 L 1202.917 624.584 L 1204.866 624.584 L 1206.787 624.584 L 1208.728 624.691 L 1210.661 624.726 L 1212.596 624.584 L 1214.748 624.62 L 1216.682 624.584 L 1218.607 624.655 L 1220.548 624.584 L 1222.482 624.584 L 1224.442 624.513 L 1226.397 624.584 L 1226.545 624.584" fill="none" stroke="#8C8C8C" stroke-width="1.2" stroke-linecap="round" stroke-linejoin="round"/>
  </g>

  <g id="window-75-percent" data-name="75%" inkscape:groupmode="layer" inkscape:label="75%">
    <path id="window-75-percent-bar" data-name="75% bar" d="M 1260.545 780 L 1260.545 645.17 L 1261.783 645.17 L 1263.717 645.135 L 1265.65 645.099 L 1267.585 644.958 L 1269.571 645.064 L 1271.502 645.135 L 1273.481 645.064 L 1275.435 644.993 L 1277.359 644.993 L 1279.312 645.099 L 1281.256 644.958 L 1283.204 644.958 L 1285.152 645.064 L 1287.119 644.958 L 1289.062 644.958 L 1291.012 644.851 L 1292.954 645.029 L 1294.918 645.029 L 1296.861 644.887 L 1298.817 644.851 L 1300.755 644.993 L 1302.701 644.958 L 1304.631 644.887 L 1306.571 645.029 L 1308.526 644.887 L 1310.486 644.887 L 1312.429 644.851 L 1314.383 644.993 L 1316.342 644.851 L 1318.272 644.887 L 1320.229 644.922 L 1322.176 644.958 L 1324.113 644.887 L 1326.054 644.887 L 1327.986 644.887 L 1329.956 644.922 L 1331.929 644.816 L 1333.88 644.851 L 1335.821 644.816 L 1337.765 644.887 L 1339.719 644.851 L 1341.9 644.781 L 1343.857 644.851 L 1345.795 644.781 L 1347.743 644.887 L 1349.69 644.887 L 1351.646 644.781 L 1353.273 644.781 L 1353.273 780 Z" fill="#B3B3B3"/>
    <path id="window-75-percent-wave" data-name="75% waveform" d="M 1260.545 645.17 L 1261.783 645.17 L 1263.717 645.135 L 1265.65 645.099 L 1267.585 644.958 L 1269.571 645.064 L 1271.502 645.135 L 1273.481 645.064 L 1275.435 644.993 L 1277.359 644.993 L 1279.312 645.099 L 1281.256 644.958 L 1283.204 644.958 L 1285.152 645.064 L 1287.119 644.958 L 1289.062 644.958 L 1291.012 644.851 L 1292.954 645.029 L 1294.918 645.029 L 1296.861 644.887 L 1298.817 644.851 L 1300.755 644.993 L 1302.701 644.958 L 1304.631 644.887 L 1306.571 645.029 L 1308.526 644.887 L 1310.486 644.887 L 1312.429 644.851 L 1314.383 644.993 L 1316.342 644.851 L 1318.272 644.887 L 1320.229 644.922 L 1322.176 644.958 L 1324.113 644.887 L 1326.054 644.887 L 1327.986 644.887 L 1329.956 644.922 L 1331.929 644.816 L 1333.88 644.851 L 1335.821 644.816 L 1337.765 644.887 L 1339.719 644.851 L 1341.9 644.781 L 1343.857 644.851 L 1345.795 644.781 L 1347.743 644.887 L 1349.69 644.887 L 1351.646 644.781 L 1353.273 644.781" fill="none" stroke="#8C8C8C" stroke-width="1.2" stroke-linecap="round" stroke-linejoin="round"/>
  </g>

  <g id="window-100-percent" data-name="100%" inkscape:groupmode="layer" inkscape:label="100%">
    <path id="window-100-percent-bar" data-name="100% bar" d="M 1387.273 780 L 1387.273 682.445 L 1388.507 682.445 L 1390.435 682.303 L 1392.37 682.516 L 1394.308 682.48 L 1396.257 682.41 L 1398.223 682.374 L 1400.135 682.374 L 1402.084 682.516 L 1404.039 682.374 L 1405.966 682.41 L 1407.9 682.516 L 1409.824 682.516 L 1411.762 682.374 L 1413.719 682.481 L 1415.658 682.516 L 1417.594 682.374 L 1419.555 682.374 L 1421.497 682.445 L 1423.435 682.551 L 1425.361 682.41 L 1427.295 682.41 L 1429.248 682.445 L 1431.202 682.445 L 1433.164 682.374 L 1435.093 682.445 L 1437.034 682.516 L 1438.974 682.374 L 1440.932 682.374 L 1442.876 682.445 L 1444.81 682.445 L 1446.756 682.41 L 1448.694 682.374 L 1450.642 682.481 L 1452.58 682.516 L 1454.509 682.374 L 1456.476 682.374 L 1458.439 682.41 L 1460.41 682.481 L 1462.353 682.339 L 1464.318 682.374 L 1466.259 682.339 L 1468.435 682.445 L 1470.382 682.374 L 1472.311 682.339 L 1474.249 682.303 L 1476.209 682.339 L 1478.178 682.41 L 1480 682.41 L 1480 780 Z" fill="#B3B3B3"/>
    <path id="window-100-percent-wave" data-name="100% waveform" d="M 1387.273 682.445 L 1388.507 682.445 L 1390.435 682.303 L 1392.37 682.516 L 1394.308 682.48 L 1396.257 682.41 L 1398.223 682.374 L 1400.135 682.374 L 1402.084 682.516 L 1404.039 682.374 L 1405.966 682.41 L 1407.9 682.516 L 1409.824 682.516 L 1411.762 682.374 L 1413.719 682.481 L 1415.658 682.516 L 1417.594 682.374 L 1419.555 682.374 L 1421.497 682.445 L 1423.435 682.551 L 1425.361 682.41 L 1427.295 682.41 L 1429.248 682.445 L 1431.202 682.445 L 1433.164 682.374 L 1435.093 682.445 L 1437.034 682.516 L 1438.974 682.374 L 1440.932 682.374 L 1442.876 682.445 L 1444.81 682.445 L 1446.756 682.41 L 1448.694 682.374 L 1450.642 682.481 L 1452.58 682.516 L 1454.509 682.374 L 1456.476 682.374 L 1458.439 682.41 L 1460.41 682.481 L 1462.353 682.339 L 1464.318 682.374 L 1466.259 682.339 L 1468.435 682.445 L 1470.382 682.374 L 1472.311 682.339 L 1474.249 682.303 L 1476.209 682.339 L 1478.178 682.41 L 1480 682.41" fill="none" stroke="#8C8C8C" stroke-width="1.2" stroke-linecap="round" stroke-linejoin="round"/>
  </g>
</svg>
