<?xml version="1.0" encoding="UTF-8"?>
<svg xmlns="http://www.w3.org/2000/svg" xmlns:inkscape="http://www.inkscape.org/namespaces/inkscape" width="1600" height="900" viewBox="0 0 1600 900" version="1.1">
  <title>LG 77 C6 FILMMAKER模式 峰值亮度关 8.xlsx AI layered luminance SVG</title>
  <desc>Each percentage window is a separate group/layer. Y scale: 0 to 2500 nits.</desc>
  <rect id="artboard-background" data-name="Artboard background" x="0" y="0" width="1600" height="900" fill="#FFFFFF"/>

  <g id="window-1-percent" data-name="1%" inkscape:groupmode="layer" inkscape:label="1%">
    <path id="window-1-percent-bar" data-name="1% bar" d="M 120 780 L 120 649.103 L 121.572 649.103 L 123.434 648.925 L 125.27 649.138 L 127.097 649.067 L 128.964 648.961 L 130.791 648.925 L 132.66 649.067 L 134.549 648.961 L 136.424 648.925 L 138.294 648.961 L 140.164 648.996 L 142.009 648.961 L 143.876 648.925 L 145.705 649.067 L 147.583 648.925 L 149.444 648.89 L 151.288 648.854 L 153.154 648.89 L 154.995 648.925 L 156.855 648.819 L 158.712 648.854 L 160.565 648.854 L 162.427 648.89 L 164.29 648.819 L 166.129 648.854 L 167.983 648.925 L 169.832 648.854 L 171.675 648.784 L 173.517 648.925 L 175.361 648.819 L 177.21 648.748 L 179.068 648.819 L 180.915 648.89 L 182.781 648.819 L 184.641 648.784 L 186.49 648.819 L 188.35 648.89 L 190.211 648.713 L 192.065 648.713 L 193.914 648.819 L 195.776 648.89 L 197.643 648.713 L 199.488 648.784 L 201.357 648.819 L 203.218 648.819 L 205.107 648.713 L 206.962 648.677 L 208.82 648.854 L 210.683 648.713 L 212.528 648.677 L 212.727 648.677 L 212.727 780 Z" fill="#B3B3B3"/>
    <path id="window-1-percent-wave" data-name="1% waveform" d="M 120 649.103 L 121.572 649.103 L 123.434 648.925 L 125.27 649.138 L 127.097 649.067 L 128.964 648.961 L 130.791 648.925 L 132.66 649.067 L 134.549 648.961 L 136.424 648.925 L 138.294 648.961 L 140.164 648.996 L 142.009 648.961 L 143.876 648.925 L 145.705 649.067 L 147.583 648.925 L 149.444 648.89 L 151.288 648.854 L 153.154 648.89 L 154.995 648.925 L 156.855 648.819 L 158.712 648.854 L 160.565 648.854 L 162.427 648.89 L 164.29 648.819 L 166.129 648.854 L 167.983 648.925 L 169.832 648.854 L 171.675 648.784 L 173.517 648.925 L 175.361 648.819 L 177.21 648.748 L 179.068 648.819 L 180.915 648.89 L 182.781 648.819 L 184.641 648.784 L 186.49 648.819 L 188.35 648.89 L 190.211 648.713 L 192.065 648.713 L 193.914 648.819 L 195.776 648.89 L 197.643 648.713 L 199.488 648.784 L 201.357 648.819 L 203.218 648.819 L 205.107 648.713 L 206.962 648.677 L 208.82 648.854 L 210.683 648.713 L 212.528 648.677 L 212.727 648.677" fill="none" stroke="#8C8C8C" stroke-width="1.2" stroke-linecap="round" stroke-linejoin="round"/>
  </g>

  <g id="window-2-percent" data-name="2%" inkscape:groupmode="layer" inkscape:label="2%">
    <path id="window-2-percent-bar" data-name="2% bar" d="M 246.727 780 L 246.727 649.315 L 247.867 649.315 L 249.829 649.209 L 251.777 649.173 L 253.718 649.244 L 255.657 649.244 L 257.593 649.209 L 259.543 649.173 L 261.473 649.209 L 263.411 649.138 L 265.355 649.138 L 267.324 649.244 L 269.262 649.209 L 271.238 649.138 L 273.177 649.067 L 275.158 649.28 L 277.095 649.209 L 279.016 649.173 L 280.961 649.067 L 282.898 649.173 L 284.859 649.173 L 286.81 649.067 L 288.757 648.961 L 290.667 649.138 L 292.621 649.102 L 294.589 649.032 L 296.54 648.996 L 298.478 649.138 L 300.422 648.996 L 302.371 649.032 L 304.307 649.067 L 306.264 648.996 L 308.208 648.996 L 310.134 648.961 L 312.084 649.067 L 314.009 649.032 L 315.966 648.996 L 317.884 648.961 L 319.814 649.032 L 321.753 648.925 L 323.71 648.854 L 325.687 648.996 L 327.611 649.032 L 329.556 648.89 L 331.499 648.89 L 333.482 649.031 L 335.425 649.067 L 337.382 648.89 L 339.319 648.925 L 339.455 648.925 L 339.455 780 Z" fill="#B3B3B3"/>
    <path id="window-2-percent-wave" data-name="2% waveform" d="M 246.727 649.315 L 247.867 649.315 L 249.829 649.209 L 251.777 649.173 L 253.718 649.244 L 255.657 649.244 L 257.593 649.209 L 259.543 649.173 L 261.473 649.209 L 263.411 649.138 L 265.355 649.138 L 267.324 649.244 L 269.262 649.209 L 271.238 649.138 L 273.177 649.067 L 275.158 649.28 L 277.095 649.209 L 279.016 649.173 L 280.961 649.067 L 282.898 649.173 L 284.859 649.173 L 286.81 649.067 L 288.757 648.961 L 290.667 649.138 L 292.621 649.102 L 294.589 649.032 L 296.54 648.996 L 298.478 649.138 L 300.422 648.996 L 302.371 649.032 L 304.307 649.067 L 306.264 648.996 L 308.208 648.996 L 310.134 648.961 L 312.084 649.067 L 314.009 649.032 L 315.966 648.996 L 317.884 648.961 L 319.814 649.032 L 321.753 648.925 L 323.71 648.854 L 325.687 648.996 L 327.611 649.032 L 329.556 648.89 L 331.499 648.89 L 333.482 649.031 L 335.425 649.067 L 337.382 648.89 L 339.319 648.925 L 339.455 648.925" fill="none" stroke="#8C8C8C" stroke-width="1.2" stroke-linecap="round" stroke-linejoin="round"/>
  </g>

  <g id="window-3-percent" data-name="3%" inkscape:groupmode="layer" inkscape:label="3%">
    <path id="window-3-percent-bar" data-name="3% bar" d="M 373.455 780 L 373.455 649.103 L 374.475 649.103 L 376.41 649.103 L 378.362 649.173 L 380.301 649.138 L 382.261 649.067 L 384.217 648.996 L 386.176 649.067 L 388.129 649.103 L 390.066 649.032 L 392.037 649.067 L 393.998 649.067 L 395.96 649.067 L 397.912 649.032 L 399.848 648.996 L 401.79 649.102 L 403.73 649.067 L 405.671 648.925 L 407.625 648.996 L 409.557 649.102 L 411.494 649.032 L 413.464 649.032 L 415.401 648.996 L 417.341 649.032 L 419.267 648.925 L 421.214 648.961 L 423.151 649.138 L 425.087 648.961 L 427.036 648.89 L 428.997 648.89 L 430.939 648.996 L 432.901 648.89 L 434.841 648.89 L 436.786 648.855 L 438.733 649.032 L 440.718 648.855 L 442.67 648.925 L 444.621 648.961 L 446.567 648.996 L 448.506 648.89 L 450.431 648.854 L 452.367 648.925 L 454.313 648.925 L 456.254 648.855 L 458.196 648.89 L 460.147 648.996 L 462.101 648.855 L 464.034 648.819 L 465.979 648.819 L 466.182 648.819 L 466.182 780 Z" fill="#B3B3B3"/>
    <path id="window-3-percent-wave" data-name="3% waveform" d="M 373.455 649.103 L 374.475 649.103 L 376.41 649.103 L 378.362 649.173 L 380.301 649.138 L 382.261 649.067 L 384.217 648.996 L 386.176 649.067 L 388.129 649.103 L 390.066 649.032 L 392.037 649.067 L 393.998 649.067 L 395.96 649.067 L 397.912 649.032 L 399.848 648.996 L 401.79 649.102 L 403.73 649.067 L 405.671 648.925 L 407.625 648.996 L 409.557 649.102 L 411.494 649.032 L 413.464 649.032 L 415.401 648.996 L 417.341 649.032 L 419.267 648.925 L 421.214 648.961 L 423.151 649.138 L 425.087 648.961 L 427.036 648.89 L 428.997 648.89 L 430.939 648.996 L 432.901 648.89 L 434.841 648.89 L 436.786 648.855 L 438.733 649.032 L 440.718 648.855 L 442.67 648.925 L 444.621 648.961 L 446.567 648.996 L 448.506 648.89 L 450.431 648.854 L 452.367 648.925 L 454.313 648.925 L 456.254 648.855 L 458.196 648.89 L 460.147 648.996 L 462.101 648.855 L 464.034 648.819 L 465.979 648.819 L 466.182 648.819" fill="none" stroke="#8C8C8C" stroke-width="1.2" stroke-linecap="round" stroke-linejoin="round"/>
  </g>

  <g id="window-5-percent" data-name="5%" inkscape:groupmode="layer" inkscape:label="5%">
    <path id="window-5-percent-bar" data-name="5% bar" d="M 500.182 780 L 500.182 649.315 L 501.364 649.315 L 503.326 649.28 L 505.317 649.138 L 507.302 649.138 L 509.233 649.173 L 511.158 649.244 L 513.092 649.067 L 515.033 649.103 L 516.971 649.174 L 518.935 649.209 L 520.862 649.067 L 522.798 649.067 L 524.752 649.28 L 526.72 649.173 L 528.679 649.067 L 530.642 649.067 L 532.616 649.244 L 534.553 649.138 L 536.502 649.067 L 538.448 649.103 L 540.413 649.209 L 542.362 649.102 L 544.304 649.032 L 546.267 649.103 L 548.196 649.103 L 550.13 649.032 L 552.069 649.032 L 554.003 649.067 L 555.946 649.102 L 557.886 649.032 L 559.822 649.067 L 561.755 649.209 L 563.699 649.067 L 565.626 648.961 L 567.567 649.067 L 569.508 649.138 L 571.447 648.961 L 573.378 648.925 L 575.309 648.961 L 577.249 648.996 L 579.192 648.996 L 581.407 648.961 L 583.369 648.855 L 585.288 648.961 L 587.246 649.032 L 589.163 648.961 L 591.088 648.961 L 592.909 648.961 L 592.909 780 Z" fill="#B3B3B3"/>
    <path id="window-5-percent-wave" data-name="5% waveform" d="M 500.182 649.315 L 501.364 649.315 L 503.326 649.28 L 505.317 649.138 L 507.302 649.138 L 509.233 649.173 L 511.158 649.244 L 513.092 649.067 L 515.033 649.103 L 516.971 649.174 L 518.935 649.209 L 520.862 649.067 L 522.798 649.067 L 524.752 649.28 L 526.72 649.173 L 528.679 649.067 L 530.642 649.067 L 532.616 649.244 L 534.553 649.138 L 536.502 649.067 L 538.448 649.103 L 540.413 649.209 L 542.362 649.102 L 544.304 649.032 L 546.267 649.103 L 548.196 649.103 L 550.13 649.032 L 552.069 649.032 L 554.003 649.067 L 555.946 649.102 L 557.886 649.032 L 559.822 649.067 L 561.755 649.209 L 563.699 649.067 L 565.626 648.961 L 567.567 649.067 L 569.508 649.138 L 571.447 648.961 L 573.378 648.925 L 575.309 648.961 L 577.249 648.996 L 579.192 648.996 L 581.407 648.961 L 583.369 648.855 L 585.288 648.961 L 587.246 649.032 L 589.163 648.961 L 591.088 648.961 L 592.909 648.961" fill="none" stroke="#8C8C8C" stroke-width="1.2" stroke-linecap="round" stroke-linejoin="round"/>
  </g>

  <g id="window-10-percent" data-name="10%" inkscape:groupmode="layer" inkscape:label="10%">
    <path id="window-10-percent-bar" data-name="10% bar" d="M 626.909 780 L 626.909 649.422 L 627.848 649.422 L 629.797 649.457 L 631.724 649.492 L 633.687 649.563 L 635.621 649.457 L 637.549 649.528 L 639.473 649.563 L 641.406 649.457 L 643.346 649.457 L 645.31 649.599 L 647.267 649.563 L 649.204 649.457 L 651.172 649.386 L 653.114 649.492 L 655.054 649.421 L 657.008 649.386 L 658.978 649.386 L 660.912 649.457 L 662.847 649.492 L 664.818 649.386 L 666.774 649.457 L 668.704 649.457 L 670.655 649.351 L 672.611 649.351 L 674.553 649.457 L 676.524 649.457 L 678.467 649.386 L 680.439 649.351 L 682.366 649.422 L 684.319 649.386 L 686.245 649.351 L 688.192 649.421 L 690.164 649.492 L 692.126 649.351 L 694.077 649.351 L 696.025 649.386 L 697.976 649.351 L 699.934 649.315 L 701.889 649.421 L 703.854 649.315 L 705.814 649.457 L 707.764 649.351 L 709.721 649.315 L 711.641 649.386 L 713.603 649.563 L 715.557 649.528 L 717.506 649.457 L 719.448 649.492 L 719.636 649.492 L 719.636 780 Z" fill="#B3B3B3"/>
    <path id="window-10-percent-wave" data-name="10% waveform" d="M 626.909 649.422 L 627.848 649.422 L 629.797 649.457 L 631.724 649.492 L 633.687 649.563 L 635.621 649.457 L 637.549 649.528 L 639.473 649.563 L 641.406 649.457 L 643.346 649.457 L 645.31 649.599 L 647.267 649.563 L 649.204 649.457 L 651.172 649.386 L 653.114 649.492 L 655.054 649.421 L 657.008 649.386 L 658.978 649.386 L 660.912 649.457 L 662.847 649.492 L 664.818 649.386 L 666.774 649.457 L 668.704 649.457 L 670.655 649.351 L 672.611 649.351 L 674.553 649.457 L 676.524 649.457 L 678.467 649.386 L 680.439 649.351 L 682.366 649.422 L 684.319 649.386 L 686.245 649.351 L 688.192 649.421 L 690.164 649.492 L 692.126 649.351 L 694.077 649.351 L 696.025 649.386 L 697.976 649.351 L 699.934 649.315 L 701.889 649.421 L 703.854 649.315 L 705.814 649.457 L 707.764 649.351 L 709.721 649.315 L 711.641 649.386 L 713.603 649.563 L 715.557 649.528 L 717.506 649.457 L 719.448 649.492 L 719.636 649.492" fill="none" stroke="#8C8C8C" stroke-width="1.2" stroke-linecap="round" stroke-linejoin="round"/>
  </g>

  <g id="window-15-percent" data-name="15%" inkscape:groupmode="layer" inkscape:label="15%">
    <path id="window-15-percent-bar" data-name="15% bar" d="M 753.636 780 L 753.636 649.244 L 754.999 649.244 L 756.95 649.173 L 758.906 649.245 L 760.873 649.28 L 762.818 649.103 L 764.762 649.138 L 766.709 649.28 L 768.674 649.174 L 770.637 649.067 L 772.596 649.173 L 774.557 649.28 L 776.513 649.138 L 778.502 649.103 L 780.447 649.174 L 782.406 649.173 L 784.354 649.032 L 786.303 649.138 L 788.259 649.209 L 790.21 649.386 L 792.154 649.209 L 794.109 649.315 L 796.073 649.28 L 798.029 649.315 L 799.981 649.28 L 801.925 649.315 L 803.868 649.28 L 805.831 649.174 L 807.772 649.138 L 809.727 649.138 L 811.665 649.244 L 813.597 649.209 L 815.536 649.102 L 817.512 649.174 L 819.487 649.28 L 821.456 649.103 L 823.428 649.138 L 825.376 649.28 L 827.336 649.174 L 829.272 649.103 L 831.224 649.138 L 833.182 649.209 L 835.121 649.174 L 837.078 649.067 L 839.035 649.174 L 840.99 649.138 L 842.927 649.067 L 844.868 649.032 L 846.364 649.032 L 846.364 780 Z" fill="#B3B3B3"/>
    <path id="window-15-percent-wave" data-name="15% waveform" d="M 753.636 649.244 L 754.999 649.244 L 756.95 649.173 L 758.906 649.245 L 760.873 649.28 L 762.818 649.103 L 764.762 649.138 L 766.709 649.28 L 768.674 649.174 L 770.637 649.067 L 772.596 649.173 L 774.557 649.28 L 776.513 649.138 L 778.502 649.103 L 780.447 649.174 L 782.406 649.173 L 784.354 649.032 L 786.303 649.138 L 788.259 649.209 L 790.21 649.386 L 792.154 649.209 L 794.109 649.315 L 796.073 649.28 L 798.029 649.315 L 799.981 649.28 L 801.925 649.315 L 803.868 649.28 L 805.831 649.174 L 807.772 649.138 L 809.727 649.138 L 811.665 649.244 L 813.597 649.209 L 815.536 649.102 L 817.512 649.174 L 819.487 649.28 L 821.456 649.103 L 823.428 649.138 L 825.376 649.28 L 827.336 649.174 L 829.272 649.103 L 831.224 649.138 L 833.182 649.209 L 835.121 649.174 L 837.078 649.067 L 839.035 649.174 L 840.99 649.138 L 842.927 649.067 L 844.868 649.032 L 846.364 649.032" fill="none" stroke="#8C8C8C" stroke-width="1.2" stroke-linecap="round" stroke-linejoin="round"/>
  </g>

  <g id="window-20-percent" data-name="20%" inkscape:groupmode="layer" inkscape:label="20%">
    <path id="window-20-percent-bar" data-name="20% bar" d="M 880.364 780 L 880.364 649.634 L 881.743 649.634 L 883.681 649.634 L 885.593 649.599 L 887.546 649.67 L 889.485 649.741 L 891.422 649.528 L 893.346 649.634 L 895.3 649.67 L 897.247 649.599 L 899.187 649.599 L 901.141 649.634 L 903.079 649.599 L 905.288 649.492 L 907.251 649.563 L 909.206 649.493 L 911.159 649.457 L 913.092 649.599 L 915.063 649.422 L 917.006 649.457 L 918.949 649.492 L 921.147 649.563 L 923.117 649.528 L 925.056 649.599 L 927.006 649.528 L 928.953 649.457 L 930.908 649.563 L 932.85 649.528 L 934.804 649.492 L 937.004 649.422 L 938.951 649.422 L 940.884 649.422 L 942.831 649.493 L 944.786 649.422 L 946.715 649.422 L 948.685 649.421 L 950.629 649.422 L 952.802 649.457 L 954.752 649.422 L 956.723 649.351 L 958.676 649.386 L 960.636 649.457 L 962.59 649.457 L 964.515 649.386 L 966.46 649.351 L 968.629 649.351 L 970.568 649.351 L 972.515 649.351 L 973.091 649.351 L 973.091 780 Z" fill="#B3B3B3"/>
    <path id="window-20-percent-wave" data-name="20% waveform" d="M 880.364 649.634 L 881.743 649.634 L 883.681 649.634 L 885.593 649.599 L 887.546 649.67 L 889.485 649.741 L 891.422 649.528 L 893.346 649.634 L 895.3 649.67 L 897.247 649.599 L 899.187 649.599 L 901.141 649.634 L 903.079 649.599 L 905.288 649.492 L 907.251 649.563 L 909.206 649.493 L 911.159 649.457 L 913.092 649.599 L 915.063 649.422 L 917.006 649.457 L 918.949 649.492 L 921.147 649.563 L 923.117 649.528 L 925.056 649.599 L 927.006 649.528 L 928.953 649.457 L 930.908 649.563 L 932.85 649.528 L 934.804 649.492 L 937.004 649.422 L 938.951 649.422 L 940.884 649.422 L 942.831 649.493 L 944.786 649.422 L 946.715 649.422 L 948.685 649.421 L 950.629 649.422 L 952.802 649.457 L 954.752 649.422 L 956.723 649.351 L 958.676 649.386 L 960.636 649.457 L 962.59 649.457 L 964.515 649.386 L 966.46 649.351 L 968.629 649.351 L 970.568 649.351 L 972.515 649.351 L 973.091 649.351" fill="none" stroke="#8C8C8C" stroke-width="1.2" stroke-linecap="round" stroke-linejoin="round"/>
  </g>

  <g id="window-25-percent" data-name="25%" inkscape:groupmode="layer" inkscape:label="25%">
    <path id="window-25-percent-bar" data-name="25% bar" d="M 1007.091 780 L 1007.091 649.953 L 1008.194 649.953 L 1010.151 649.953 L 1012.091 649.847 L 1014.05 649.918 L 1015.986 649.953 L 1017.94 649.882 L 1019.873 649.741 L 1021.807 649.847 L 1023.755 649.812 L 1025.697 649.776 L 1027.676 649.847 L 1029.629 649.882 L 1031.563 649.918 L 1033.504 649.776 L 1035.429 649.776 L 1037.357 649.847 L 1039.285 649.705 L 1041.236 649.812 L 1043.185 649.812 L 1045.117 649.812 L 1047.061 649.812 L 1049.004 649.812 L 1050.956 649.812 L 1052.892 649.776 L 1054.849 649.776 L 1056.795 649.847 L 1058.766 649.776 L 1060.713 649.741 L 1062.65 649.741 L 1064.6 649.741 L 1066.536 649.705 L 1068.493 649.67 L 1070.464 649.67 L 1072.411 649.741 L 1074.358 649.741 L 1076.316 649.634 L 1078.292 649.812 L 1080.228 649.705 L 1082.172 649.599 L 1084.111 649.599 L 1086.074 649.776 L 1088.01 649.776 L 1089.948 649.67 L 1091.898 649.741 L 1093.841 649.705 L 1095.798 649.776 L 1097.737 649.705 L 1099.68 649.599 L 1099.818 649.599 L 1099.818 780 Z" fill="#B3B3B3"/>
    <path id="window-25-percent-wave" data-name="25% waveform" d="M 1007.091 649.953 L 1008.194 649.953 L 1010.151 649.953 L 1012.091 649.847 L 1014.05 649.918 L 1015.986 649.953 L 1017.94 649.882 L 1019.873 649.741 L 1021.807 649.847 L 1023.755 649.812 L 1025.697 649.776 L 1027.676 649.847 L 1029.629 649.882 L 1031.563 649.918 L 1033.504 649.776 L 1035.429 649.776 L 1037.357 649.847 L 1039.285 649.705 L 1041.236 649.812 L 1043.185 649.812 L 1045.117 649.812 L 1047.061 649.812 L 1049.004 649.812 L 1050.956 649.812 L 1052.892 649.776 L 1054.849 649.776 L 1056.795 649.847 L 1058.766 649.776 L 1060.713 649.741 L 1062.65 649.741 L 1064.6 649.741 L 1066.536 649.705 L 1068.493 649.67 L 1070.464 649.67 L 1072.411 649.741 L 1074.358 649.741 L 1076.316 649.634 L 1078.292 649.812 L 1080.228 649.705 L 1082.172 649.599 L 1084.111 649.599 L 1086.074 649.776 L 1088.01 649.776 L 1089.948 649.67 L 1091.898 649.741 L 1093.841 649.705 L 1095.798 649.776 L 1097.737 649.705 L 1099.68 649.599 L 1099.818 649.599" fill="none" stroke="#8C8C8C" stroke-width="1.2" stroke-linecap="round" stroke-linejoin="round"/>
  </g>

  <g id="window-50-percent" data-name="50%" inkscape:groupmode="layer" inkscape:label="50%">
    <path id="window-50-percent-bar" data-name="50% bar" d="M 1133.818 780 L 1133.818 651.194 L 1135.077 651.194 L 1137.041 651.123 L 1138.974 651.158 L 1141.144 651.123 L 1143.072 651.194 L 1145.029 651.087 L 1146.951 651.087 L 1148.881 651.123 L 1150.821 651.123 L 1152.761 651.016 L 1154.714 651.123 L 1156.911 651.158 L 1158.856 651.123 L 1160.799 651.229 L 1162.726 651.016 L 1164.678 651.052 L 1166.64 651.123 L 1168.569 651.194 L 1170.519 651.017 L 1172.692 650.981 L 1174.635 650.981 L 1176.563 651.052 L 1178.502 651.087 L 1180.445 651.158 L 1182.365 651.016 L 1184.292 650.981 L 1186.234 651.052 L 1188.408 651.016 L 1190.348 651.087 L 1192.299 650.945 L 1194.238 651.052 L 1196.162 651.052 L 1198.091 651.123 L 1200.019 650.981 L 1201.96 651.016 L 1204.121 651.052 L 1206.041 651.087 L 1207.97 651.052 L 1209.907 651.016 L 1211.865 651.016 L 1213.824 651.052 L 1215.779 650.946 L 1217.716 650.946 L 1219.927 650.981 L 1221.85 650.875 L 1223.777 650.981 L 1225.726 650.981 L 1226.545 650.981 L 1226.545 780 Z" fill="#B3B3B3"/>
    <path id="window-50-percent-wave" data-name="50% waveform" d="M 1133.818 651.194 L 1135.077 651.194 L 1137.041 651.123 L 1138.974 651.158 L 1141.144 651.123 L 1143.072 651.194 L 1145.029 651.087 L 1146.951 651.087 L 1148.881 651.123 L 1150.821 651.123 L 1152.761 651.016 L 1154.714 651.123 L 1156.911 651.158 L 1158.856 651.123 L 1160.799 651.229 L 1162.726 651.016 L 1164.678 651.052 L 1166.64 651.123 L 1168.569 651.194 L 1170.519 651.017 L 1172.692 650.981 L 1174.635 650.981 L 1176.563 651.052 L 1178.502 651.087 L 1180.445 651.158 L 1182.365 651.016 L 1184.292 650.981 L 1186.234 651.052 L 1188.408 651.016 L 1190.348 651.087 L 1192.299 650.945 L 1194.238 651.052 L 1196.162 651.052 L 1198.091 651.123 L 1200.019 650.981 L 1201.96 651.016 L 1204.121 651.052 L 1206.041 651.087 L 1207.97 651.052 L 1209.907 651.016 L 1211.865 651.016 L 1213.824 651.052 L 1215.779 650.946 L 1217.716 650.946 L 1219.927 650.981 L 1221.85 650.875 L 1223.777 650.981 L 1225.726 650.981 L 1226.545 650.981" fill="none" stroke="#8C8C8C" stroke-width="1.2" stroke-linecap="round" stroke-linejoin="round"/>
  </g>

  <g id="window-75-percent" data-name="75%" inkscape:groupmode="layer" inkscape:label="75%">
    <path id="window-75-percent-bar" data-name="75% bar" d="M 1260.545 780 L 1260.545 656.579 L 1261.54 656.579 L 1263.474 656.579 L 1265.413 656.579 L 1267.35 656.579 L 1269.324 656.473 L 1271.259 656.473 L 1273.2 656.544 L 1275.147 656.508 L 1277.114 656.437 L 1279.031 656.579 L 1280.97 656.544 L 1282.926 656.508 L 1284.866 656.473 L 1286.804 656.473 L 1288.757 656.473 L 1290.691 656.473 L 1292.641 656.402 L 1294.596 656.544 L 1296.551 656.438 L 1298.472 656.367 L 1300.44 656.544 L 1302.387 656.509 L 1304.339 656.438 L 1306.313 656.473 L 1308.283 656.473 L 1310.248 656.579 L 1312.164 656.438 L 1314.116 656.438 L 1316.058 656.544 L 1318.005 656.473 L 1319.957 656.402 L 1321.905 656.367 L 1323.854 656.473 L 1325.799 656.402 L 1327.749 656.296 L 1329.697 656.402 L 1331.61 656.438 L 1333.562 656.332 L 1335.524 656.331 L 1337.471 656.402 L 1339.417 656.438 L 1341.349 656.26 L 1343.308 656.367 L 1345.248 656.367 L 1347.437 656.438 L 1349.385 656.331 L 1351.328 656.367 L 1353.273 656.367 L 1353.273 780 Z" fill="#B3B3B3"/>
    <path id="window-75-percent-wave" data-name="75% waveform" d="M 1260.545 656.579 L 1261.54 656.579 L 1263.474 656.579 L 1265.413 656.579 L 1267.35 656.579 L 1269.324 656.473 L 1271.259 656.473 L 1273.2 656.544 L 1275.147 656.508 L 1277.114 656.437 L 1279.031 656.579 L 1280.97 656.544 L 1282.926 656.508 L 1284.866 656.473 L 1286.804 656.473 L 1288.757 656.473 L 1290.691 656.473 L 1292.641 656.402 L 1294.596 656.544 L 1296.551 656.438 L 1298.472 656.367 L 1300.44 656.544 L 1302.387 656.509 L 1304.339 656.438 L 1306.313 656.473 L 1308.283 656.473 L 1310.248 656.579 L 1312.164 656.438 L 1314.116 656.438 L 1316.058 656.544 L 1318.005 656.473 L 1319.957 656.402 L 1321.905 656.367 L 1323.854 656.473 L 1325.799 656.402 L 1327.749 656.296 L 1329.697 656.402 L 1331.61 656.438 L 1333.562 656.332 L 1335.524 656.331 L 1337.471 656.402 L 1339.417 656.438 L 1341.349 656.26 L 1343.308 656.367 L 1345.248 656.367 L 1347.437 656.438 L 1349.385 656.331 L 1351.328 656.367 L 1353.273 656.367" fill="none" stroke="#8C8C8C" stroke-width="1.2" stroke-linecap="round" stroke-linejoin="round"/>
  </g>

  <g id="window-100-percent" data-name="100%" inkscape:groupmode="layer" inkscape:label="100%">
    <path id="window-100-percent-bar" data-name="100% bar" d="M 1387.273 780 L 1387.273 669.122 L 1388.512 669.122 L 1390.454 668.981 L 1392.396 669.193 L 1394.57 669.122 L 1396.507 669.122 L 1398.436 669.087 L 1400.39 669.052 L 1402.309 669.122 L 1404.242 669.087 L 1406.186 669.052 L 1408.121 669.016 L 1410.302 669.016 L 1412.243 669.052 L 1414.207 669.122 L 1416.134 669.087 L 1418.082 668.981 L 1420.055 669.052 L 1422.019 669.122 L 1423.953 669.052 L 1426.136 668.91 L 1428.061 669.016 L 1429.996 669.052 L 1431.933 668.981 L 1433.866 669.052 L 1435.789 669.016 L 1437.735 669.016 L 1439.683 669.122 L 1441.854 669.016 L 1443.795 669.052 L 1445.717 669.016 L 1447.685 668.981 L 1449.615 669.016 L 1451.552 669.052 L 1453.486 668.91 L 1455.424 668.981 L 1457.595 669.016 L 1459.541 668.981 L 1461.485 669.087 L 1463.431 668.945 L 1465.361 668.945 L 1467.287 669.052 L 1469.236 669.016 L 1471.16 668.839 L 1473.343 668.91 L 1475.273 669.016 L 1477.217 668.981 L 1479.161 668.981 L 1480 668.981 L 1480 780 Z" fill="#B3B3B3"/>
    <path id="window-100-percent-wave" data-name="100% waveform" d="M 1387.273 669.122 L 1388.512 669.122 L 1390.454 668.981 L 1392.396 669.193 L 1394.57 669.122 L 1396.507 669.122 L 1398.436 669.087 L 1400.39 669.052 L 1402.309 669.122 L 1404.242 669.087 L 1406.186 669.052 L 1408.121 669.016 L 1410.302 669.016 L 1412.243 669.052 L 1414.207 669.122 L 1416.134 669.087 L 1418.082 668.981 L 1420.055 669.052 L 1422.019 669.122 L 1423.953 669.052 L 1426.136 668.91 L 1428.061 669.016 L 1429.996 669.052 L 1431.933 668.981 L 1433.866 669.052 L 1435.789 669.016 L 1437.735 669.016 L 1439.683 669.122 L 1441.854 669.016 L 1443.795 669.052 L 1445.717 669.016 L 1447.685 668.981 L 1449.615 669.016 L 1451.552 669.052 L 1453.486 668.91 L 1455.424 668.981 L 1457.595 669.016 L 1459.541 668.981 L 1461.485 669.087 L 1463.431 668.945 L 1465.361 668.945 L 1467.287 669.052 L 1469.236 669.016 L 1471.16 668.839 L 1473.343 668.91 L 1475.273 669.016 L 1477.217 668.981 L 1479.161 668.981 L 1480 668.981" fill="none" stroke="#8C8C8C" stroke-width="1.2" stroke-linecap="round" stroke-linejoin="round"/>
  </g>
</svg>
