<?xml version="1.0" encoding="UTF-8"?>
<svg xmlns="http://www.w3.org/2000/svg" xmlns:inkscape="http://www.inkscape.org/namespaces/inkscape" width="1600" height="900" viewBox="0 0 1600 900" version="1.1">
  <title>LG 77 C6 HDR 标准模式 峰值亮度高 8.xlsx AI layered luminance SVG</title>
  <desc>Each percentage window is a separate group/layer. Y scale: 0 to 2500 nits.</desc>
  <rect id="artboard-background" data-name="Artboard background" x="0" y="0" width="1600" height="900" fill="#FFFFFF"/>

  <g id="window-1-percent" data-name="1%" inkscape:groupmode="layer" inkscape:label="1%">
    <path id="window-1-percent-bar" data-name="1% bar" d="M 120 780 L 120 229.91 L 121.839 229.91 L 123.696 229.591 L 125.541 229.414 L 127.415 229.414 L 129.285 229.308 L 131.133 229.025 L 132.99 228.989 L 134.856 228.953 L 136.711 228.706 L 138.558 228.493 L 140.438 228.422 L 142.277 228.422 L 144.138 228.139 L 145.979 228.032 L 147.832 228.068 L 149.669 227.926 L 151.536 227.713 L 153.413 227.572 L 155.269 227.572 L 157.117 227.394 L 158.972 227.111 L 160.834 227.501 L 162.687 228.352 L 164.538 228.21 L 166.404 228.103 L 168.252 228.918 L 170.103 228.812 L 171.964 228.564 L 173.812 228.493 L 175.668 228.493 L 177.536 228.281 L 179.376 228.28 L 181.239 228.139 L 183.104 229.769 L 184.96 229.91 L 186.815 229.733 L 188.669 230.194 L 190.499 230.264 L 192.364 229.981 L 194.227 230.406 L 196.092 230.477 L 197.954 231.186 L 199.802 230.973 L 201.894 231.08 L 203.742 231.186 L 205.575 231.327 L 207.417 231.257 L 209.271 231.292 L 211.13 231.398 L 212.727 231.398 L 212.727 780 Z" fill="#B3B3B3"/>
    <path id="window-1-percent-wave" data-name="1% waveform" d="M 120 229.91 L 121.839 229.91 L 123.696 229.591 L 125.541 229.414 L 127.415 229.414 L 129.285 229.308 L 131.133 229.025 L 132.99 228.989 L 134.856 228.953 L 136.711 228.706 L 138.558 228.493 L 140.438 228.422 L 142.277 228.422 L 144.138 228.139 L 145.979 228.032 L 147.832 228.068 L 149.669 227.926 L 151.536 227.713 L 153.413 227.572 L 155.269 227.572 L 157.117 227.394 L 158.972 227.111 L 160.834 227.501 L 162.687 228.352 L 164.538 228.21 L 166.404 228.103 L 168.252 228.918 L 170.103 228.812 L 171.964 228.564 L 173.812 228.493 L 175.668 228.493 L 177.536 228.281 L 179.376 228.28 L 181.239 228.139 L 183.104 229.769 L 184.96 229.91 L 186.815 229.733 L 188.669 230.194 L 190.499 230.264 L 192.364 229.981 L 194.227 230.406 L 196.092 230.477 L 197.954 231.186 L 199.802 230.973 L 201.894 231.08 L 203.742 231.186 L 205.575 231.327 L 207.417 231.257 L 209.271 231.292 L 211.13 231.398 L 212.727 231.398" fill="none" stroke="#8C8C8C" stroke-width="1.2" stroke-linecap="round" stroke-linejoin="round"/>
  </g>

  <g id="window-2-percent" data-name="2%" inkscape:groupmode="layer" inkscape:label="2%">
    <path id="window-2-percent-bar" data-name="2% bar" d="M 246.727 780 L 246.727 227.076 L 248.032 227.076 L 249.996 226.899 L 251.951 227.111 L 253.896 226.863 L 255.815 226.721 L 257.768 226.544 L 259.715 226.473 L 261.653 226.509 L 263.598 226.367 L 265.551 226.296 L 267.514 226.261 L 269.411 225.977 L 271.335 225.977 L 273.269 225.942 L 275.183 225.694 L 277.137 225.517 L 279.091 225.658 L 281.013 225.481 L 282.921 225.304 L 284.86 225.304 L 286.811 225.233 L 288.762 225.056 L 290.684 225.587 L 292.617 225.694 L 294.573 225.729 L 296.532 225.446 L 298.49 225.269 L 300.446 225.41 L 302.392 225.127 L 304.322 225.056 L 306.27 226.509 L 308.224 226.509 L 310.158 226.474 L 312.123 226.19 L 314.054 226.19 L 315.989 226.332 L 317.95 226.119 L 319.878 226.261 L 321.832 227.182 L 323.768 227.182 L 325.709 226.828 L 327.932 226.722 L 329.873 226.721 L 331.833 226.58 L 333.782 226.863 L 335.727 226.934 L 337.649 226.934 L 339.455 226.934 L 339.455 780 Z" fill="#B3B3B3"/>
    <path id="window-2-percent-wave" data-name="2% waveform" d="M 246.727 227.076 L 248.032 227.076 L 249.996 226.899 L 251.951 227.111 L 253.896 226.863 L 255.815 226.721 L 257.768 226.544 L 259.715 226.473 L 261.653 226.509 L 263.598 226.367 L 265.551 226.296 L 267.514 226.261 L 269.411 225.977 L 271.335 225.977 L 273.269 225.942 L 275.183 225.694 L 277.137 225.517 L 279.091 225.658 L 281.013 225.481 L 282.921 225.304 L 284.86 225.304 L 286.811 225.233 L 288.762 225.056 L 290.684 225.587 L 292.617 225.694 L 294.573 225.729 L 296.532 225.446 L 298.49 225.269 L 300.446 225.41 L 302.392 225.127 L 304.322 225.056 L 306.27 226.509 L 308.224 226.509 L 310.158 226.474 L 312.123 226.19 L 314.054 226.19 L 315.989 226.332 L 317.95 226.119 L 319.878 226.261 L 321.832 227.182 L 323.768 227.182 L 325.709 226.828 L 327.932 226.722 L 329.873 226.721 L 331.833 226.58 L 333.782 226.863 L 335.727 226.934 L 337.649 226.934 L 339.455 226.934" fill="none" stroke="#8C8C8C" stroke-width="1.2" stroke-linecap="round" stroke-linejoin="round"/>
  </g>

  <g id="window-3-percent" data-name="3%" inkscape:groupmode="layer" inkscape:label="3%">
    <path id="window-3-percent-bar" data-name="3% bar" d="M 373.455 780 L 373.455 231.328 L 374.699 231.328 L 376.621 231.009 L 378.555 231.08 L 380.484 231.009 L 382.419 230.796 L 384.363 230.654 L 386.328 230.761 L 388.288 230.336 L 390.229 230.194 L 392.173 230.3 L 394.141 230.513 L 396.084 231.363 L 398.028 231.257 L 399.982 231.08 L 401.924 231.115 L 403.887 230.903 L 405.815 230.796 L 407.777 230.796 L 409.707 230.619 L 411.646 230.619 L 413.592 230.336 L 415.514 230.584 L 417.441 230.229 L 419.404 230.513 L 421.364 230.088 L 423.299 230.3 L 425.271 230.088 L 427.208 229.982 L 429.166 230.159 L 431.106 229.946 L 433.052 229.769 L 435.002 229.556 L 436.985 229.698 L 438.935 229.556 L 440.861 229.379 L 442.808 229.344 L 444.742 229.379 L 446.665 229.591 L 448.608 229.379 L 450.549 229.308 L 452.497 229.556 L 454.697 229.414 L 456.628 229.379 L 458.564 229.202 L 460.518 229.166 L 462.486 229.202 L 464.409 229.273 L 466.182 229.273 L 466.182 780 Z" fill="#B3B3B3"/>
    <path id="window-3-percent-wave" data-name="3% waveform" d="M 373.455 231.328 L 374.699 231.328 L 376.621 231.009 L 378.555 231.08 L 380.484 231.009 L 382.419 230.796 L 384.363 230.654 L 386.328 230.761 L 388.288 230.336 L 390.229 230.194 L 392.173 230.3 L 394.141 230.513 L 396.084 231.363 L 398.028 231.257 L 399.982 231.08 L 401.924 231.115 L 403.887 230.903 L 405.815 230.796 L 407.777 230.796 L 409.707 230.619 L 411.646 230.619 L 413.592 230.336 L 415.514 230.584 L 417.441 230.229 L 419.404 230.513 L 421.364 230.088 L 423.299 230.3 L 425.271 230.088 L 427.208 229.982 L 429.166 230.159 L 431.106 229.946 L 433.052 229.769 L 435.002 229.556 L 436.985 229.698 L 438.935 229.556 L 440.861 229.379 L 442.808 229.344 L 444.742 229.379 L 446.665 229.591 L 448.608 229.379 L 450.549 229.308 L 452.497 229.556 L 454.697 229.414 L 456.628 229.379 L 458.564 229.202 L 460.518 229.166 L 462.486 229.202 L 464.409 229.273 L 466.182 229.273" fill="none" stroke="#8C8C8C" stroke-width="1.2" stroke-linecap="round" stroke-linejoin="round"/>
  </g>

  <g id="window-5-percent" data-name="5%" inkscape:groupmode="layer" inkscape:label="5%">
    <path id="window-5-percent-bar" data-name="5% bar" d="M 500.182 780 L 500.182 232.001 L 501.264 232.001 L 503.211 231.753 L 505.167 231.505 L 507.094 231.576 L 509.027 231.434 L 510.97 231.221 L 512.933 231.222 L 514.876 231.115 L 516.817 231.116 L 518.769 230.832 L 520.734 230.797 L 522.657 230.761 L 524.59 230.903 L 526.55 230.442 L 528.47 230.548 L 530.4 230.442 L 532.351 230.407 L 534.295 230.265 L 536.239 230.265 L 538.177 230.123 L 540.146 229.946 L 542.106 229.84 L 544.076 230.052 L 546.034 229.911 L 548.029 229.662 L 549.974 229.663 L 551.88 229.627 L 553.842 229.592 L 555.77 229.45 L 557.723 229.344 L 559.698 229.308 L 561.643 229.308 L 563.593 229.096 L 565.817 228.99 L 567.77 228.989 L 569.714 228.954 L 571.637 228.777 L 573.58 228.848 L 575.513 228.706 L 577.457 228.706 L 579.369 228.671 L 581.555 228.635 L 583.484 228.493 L 585.435 228.316 L 587.383 228.352 L 589.337 228.387 L 591.293 228.245 L 592.909 228.245 L 592.909 780 Z" fill="#B3B3B3"/>
    <path id="window-5-percent-wave" data-name="5% waveform" d="M 500.182 232.001 L 501.264 232.001 L 503.211 231.753 L 505.167 231.505 L 507.094 231.576 L 509.027 231.434 L 510.97 231.221 L 512.933 231.222 L 514.876 231.115 L 516.817 231.116 L 518.769 230.832 L 520.734 230.797 L 522.657 230.761 L 524.59 230.903 L 526.55 230.442 L 528.47 230.548 L 530.4 230.442 L 532.351 230.407 L 534.295 230.265 L 536.239 230.265 L 538.177 230.123 L 540.146 229.946 L 542.106 229.84 L 544.076 230.052 L 546.034 229.911 L 548.029 229.662 L 549.974 229.663 L 551.88 229.627 L 553.842 229.592 L 555.77 229.45 L 557.723 229.344 L 559.698 229.308 L 561.643 229.308 L 563.593 229.096 L 565.817 228.99 L 567.77 228.989 L 569.714 228.954 L 571.637 228.777 L 573.58 228.848 L 575.513 228.706 L 577.457 228.706 L 579.369 228.671 L 581.555 228.635 L 583.484 228.493 L 585.435 228.316 L 587.383 228.352 L 589.337 228.387 L 591.293 228.245 L 592.909 228.245" fill="none" stroke="#8C8C8C" stroke-width="1.2" stroke-linecap="round" stroke-linejoin="round"/>
  </g>

  <g id="window-10-percent" data-name="10%" inkscape:groupmode="layer" inkscape:label="10%">
    <path id="window-10-percent-bar" data-name="10% bar" d="M 626.909 780 L 626.909 233.773 L 628.059 233.773 L 630.019 233.738 L 631.96 233.738 L 633.887 233.525 L 635.836 233.383 L 637.778 233.631 L 639.723 233.454 L 641.683 233.277 L 643.606 233.206 L 645.559 233.171 L 647.493 232.958 L 649.455 232.993 L 651.438 232.923 L 653.38 233.029 L 655.347 232.852 L 657.28 232.533 L 659.231 232.675 L 661.17 232.71 L 663.099 232.214 L 665.067 232.462 L 667.014 232.533 L 668.947 232.32 L 670.91 232.285 L 672.835 232.072 L 674.811 232.108 L 676.745 232.107 L 678.695 231.824 L 680.638 231.966 L 682.592 231.966 L 684.532 231.576 L 686.469 231.895 L 688.441 231.789 L 690.396 231.789 L 692.342 231.753 L 694.284 232.816 L 696.241 232.994 L 698.182 232.746 L 700.125 232.675 L 702.056 232.639 L 704.006 232.745 L 705.958 232.427 L 708.169 232.391 L 710.146 232.462 L 712.11 232.32 L 714.063 232.391 L 716.005 232.143 L 717.968 232.143 L 719.636 232.143 L 719.636 780 Z" fill="#B3B3B3"/>
    <path id="window-10-percent-wave" data-name="10% waveform" d="M 626.909 233.773 L 628.059 233.773 L 630.019 233.738 L 631.96 233.738 L 633.887 233.525 L 635.836 233.383 L 637.778 233.631 L 639.723 233.454 L 641.683 233.277 L 643.606 233.206 L 645.559 233.171 L 647.493 232.958 L 649.455 232.993 L 651.438 232.923 L 653.38 233.029 L 655.347 232.852 L 657.28 232.533 L 659.231 232.675 L 661.17 232.71 L 663.099 232.214 L 665.067 232.462 L 667.014 232.533 L 668.947 232.32 L 670.91 232.285 L 672.835 232.072 L 674.811 232.108 L 676.745 232.107 L 678.695 231.824 L 680.638 231.966 L 682.592 231.966 L 684.532 231.576 L 686.469 231.895 L 688.441 231.789 L 690.396 231.789 L 692.342 231.753 L 694.284 232.816 L 696.241 232.994 L 698.182 232.746 L 700.125 232.675 L 702.056 232.639 L 704.006 232.745 L 705.958 232.427 L 708.169 232.391 L 710.146 232.462 L 712.11 232.32 L 714.063 232.391 L 716.005 232.143 L 717.968 232.143 L 719.636 232.143" fill="none" stroke="#8C8C8C" stroke-width="1.2" stroke-linecap="round" stroke-linejoin="round"/>
  </g>

  <g id="window-15-percent" data-name="15%" inkscape:groupmode="layer" inkscape:label="15%">
    <path id="window-15-percent-bar" data-name="15% bar" d="M 753.636 780 L 753.636 322.283 L 754.748 322.283 L 756.707 322.106 L 758.665 322 L 760.617 321.823 L 762.57 321.929 L 764.515 321.823 L 766.467 321.716 L 768.401 321.823 L 770.349 321.823 L 772.283 321.716 L 774.243 321.468 L 776.214 321.539 L 778.177 322.708 L 780.13 322.531 L 782.078 322.531 L 784.025 322.744 L 786.012 322.531 L 787.995 322.319 L 789.927 322.39 L 791.88 322.354 L 793.84 322.567 L 795.803 322.283 L 797.762 322.248 L 799.718 322.248 L 801.652 322.106 L 803.601 322.106 L 805.552 322.212 L 807.487 322.071 L 809.43 322.035 L 811.395 321.964 L 813.338 321.929 L 815.29 321.929 L 817.263 321.61 L 819.468 321.752 L 821.444 321.645 L 823.443 321.575 L 825.443 321.787 L 827.435 321.716 L 829.438 321.681 L 831.43 321.575 L 833.435 321.575 L 835.426 321.504 L 837.421 321.539 L 839.409 321.468 L 841.398 321.433 L 843.373 321.468 L 845.318 321.539 L 846.364 321.539 L 846.364 780 Z" fill="#B3B3B3"/>
    <path id="window-15-percent-wave" data-name="15% waveform" d="M 753.636 322.283 L 754.748 322.283 L 756.707 322.106 L 758.665 322 L 760.617 321.823 L 762.57 321.929 L 764.515 321.823 L 766.467 321.716 L 768.401 321.823 L 770.349 321.823 L 772.283 321.716 L 774.243 321.468 L 776.214 321.539 L 778.177 322.708 L 780.13 322.531 L 782.078 322.531 L 784.025 322.744 L 786.012 322.531 L 787.995 322.319 L 789.927 322.39 L 791.88 322.354 L 793.84 322.567 L 795.803 322.283 L 797.762 322.248 L 799.718 322.248 L 801.652 322.106 L 803.601 322.106 L 805.552 322.212 L 807.487 322.071 L 809.43 322.035 L 811.395 321.964 L 813.338 321.929 L 815.29 321.929 L 817.263 321.61 L 819.468 321.752 L 821.444 321.645 L 823.443 321.575 L 825.443 321.787 L 827.435 321.716 L 829.438 321.681 L 831.43 321.575 L 833.435 321.575 L 835.426 321.504 L 837.421 321.539 L 839.409 321.468 L 841.398 321.433 L 843.373 321.468 L 845.318 321.539 L 846.364 321.539" fill="none" stroke="#8C8C8C" stroke-width="1.2" stroke-linecap="round" stroke-linejoin="round"/>
  </g>

  <g id="window-20-percent" data-name="20%" inkscape:groupmode="layer" inkscape:label="20%">
    <path id="window-20-percent-bar" data-name="20% bar" d="M 880.364 780 L 880.364 408.49 L 881.826 408.49 L 883.824 408.526 L 885.8 408.313 L 887.734 408.384 L 889.708 408.278 L 891.722 408.419 L 893.707 408.242 L 895.686 408.242 L 897.704 407.959 L 899.671 408.136 L 901.663 408.172 L 903.63 408.101 L 905.568 408.065 L 907.503 407.959 L 909.443 407.817 L 911.391 407.994 L 913.336 407.853 L 915.284 407.888 L 917.213 408.03 L 919.158 407.782 L 921.093 407.782 L 923.042 407.782 L 924.978 407.675 L 926.93 407.64 L 928.873 407.499 L 930.816 407.676 L 932.762 407.746 L 934.713 407.427 L 936.654 407.534 L 938.594 407.746 L 940.564 407.569 L 942.504 407.392 L 944.468 407.569 L 946.41 407.605 L 948.367 407.463 L 950.321 407.25 L 952.254 407.392 L 954.202 407.25 L 956.147 407.286 L 958.091 407.286 L 960.038 407.286 L 961.979 407.25 L 963.924 407.109 L 965.883 407.179 L 967.827 407.179 L 969.779 407.144 L 971.727 407.073 L 973.091 407.073 L 973.091 780 Z" fill="#B3B3B3"/>
    <path id="window-20-percent-wave" data-name="20% waveform" d="M 880.364 408.49 L 881.826 408.49 L 883.824 408.526 L 885.8 408.313 L 887.734 408.384 L 889.708 408.278 L 891.722 408.419 L 893.707 408.242 L 895.686 408.242 L 897.704 407.959 L 899.671 408.136 L 901.663 408.172 L 903.63 408.101 L 905.568 408.065 L 907.503 407.959 L 909.443 407.817 L 911.391 407.994 L 913.336 407.853 L 915.284 407.888 L 917.213 408.03 L 919.158 407.782 L 921.093 407.782 L 923.042 407.782 L 924.978 407.675 L 926.93 407.64 L 928.873 407.499 L 930.816 407.676 L 932.762 407.746 L 934.713 407.427 L 936.654 407.534 L 938.594 407.746 L 940.564 407.569 L 942.504 407.392 L 944.468 407.569 L 946.41 407.605 L 948.367 407.463 L 950.321 407.25 L 952.254 407.392 L 954.202 407.25 L 956.147 407.286 L 958.091 407.286 L 960.038 407.286 L 961.979 407.25 L 963.924 407.109 L 965.883 407.179 L 967.827 407.179 L 969.779 407.144 L 971.727 407.073 L 973.091 407.073" fill="none" stroke="#8C8C8C" stroke-width="1.2" stroke-linecap="round" stroke-linejoin="round"/>
  </g>

  <g id="window-25-percent" data-name="25%" inkscape:groupmode="layer" inkscape:label="25%">
    <path id="window-25-percent-bar" data-name="25% bar" d="M 1007.091 780 L 1007.091 529.953 L 1008.241 529.953 L 1010.171 529.882 L 1012.115 529.74 L 1014.094 529.811 L 1016.046 529.917 L 1018.026 529.811 L 1019.977 529.811 L 1021.928 529.811 L 1023.863 530.343 L 1025.821 530.236 L 1027.773 530.449 L 1029.72 530.52 L 1031.657 530.414 L 1033.608 530.201 L 1035.585 530.272 L 1037.511 530.378 L 1039.459 530.343 L 1041.401 530.236 L 1043.357 530.236 L 1045.277 530.378 L 1047.219 530.272 L 1049.155 530.201 L 1051.07 530.307 L 1053.027 530.165 L 1054.962 530.095 L 1057.149 530.201 L 1059.092 530.13 L 1061.026 530.201 L 1063.007 530.307 L 1064.942 530.095 L 1066.902 530.165 L 1068.863 530.307 L 1070.806 530.095 L 1072.76 530.024 L 1074.721 530.165 L 1076.646 530.095 L 1078.577 530.095 L 1080.51 530.059 L 1082.439 530.059 L 1084.391 530.165 L 1086.358 530.024 L 1088.548 529.917 L 1090.48 529.847 L 1092.415 530.059 L 1094.373 530.059 L 1096.3 529.988 L 1098.234 529.917 L 1099.818 529.917 L 1099.818 780 Z" fill="#B3B3B3"/>
    <path id="window-25-percent-wave" data-name="25% waveform" d="M 1007.091 529.953 L 1008.241 529.953 L 1010.171 529.882 L 1012.115 529.74 L 1014.094 529.811 L 1016.046 529.917 L 1018.026 529.811 L 1019.977 529.811 L 1021.928 529.811 L 1023.863 530.343 L 1025.821 530.236 L 1027.773 530.449 L 1029.72 530.52 L 1031.657 530.414 L 1033.608 530.201 L 1035.585 530.272 L 1037.511 530.378 L 1039.459 530.343 L 1041.401 530.236 L 1043.357 530.236 L 1045.277 530.378 L 1047.219 530.272 L 1049.155 530.201 L 1051.07 530.307 L 1053.027 530.165 L 1054.962 530.095 L 1057.149 530.201 L 1059.092 530.13 L 1061.026 530.201 L 1063.007 530.307 L 1064.942 530.095 L 1066.902 530.165 L 1068.863 530.307 L 1070.806 530.095 L 1072.76 530.024 L 1074.721 530.165 L 1076.646 530.095 L 1078.577 530.095 L 1080.51 530.059 L 1082.439 530.059 L 1084.391 530.165 L 1086.358 530.024 L 1088.548 529.917 L 1090.48 529.847 L 1092.415 530.059 L 1094.373 530.059 L 1096.3 529.988 L 1098.234 529.917 L 1099.818 529.917" fill="none" stroke="#8C8C8C" stroke-width="1.2" stroke-linecap="round" stroke-linejoin="round"/>
  </g>

  <g id="window-50-percent" data-name="50%" inkscape:groupmode="layer" inkscape:label="50%">
    <path id="window-50-percent-bar" data-name="50% bar" d="M 1133.818 780 L 1133.818 634.691 L 1135.021 634.691 L 1136.935 634.549 L 1138.884 634.727 L 1140.836 634.727 L 1142.774 634.727 L 1144.709 634.691 L 1146.652 634.691 L 1148.596 634.762 L 1150.533 634.762 L 1152.463 634.656 L 1154.396 634.798 L 1156.314 634.762 L 1158.266 634.691 L 1160.218 634.727 L 1162.148 634.762 L 1164.073 634.656 L 1166.015 634.691 L 1167.965 634.798 L 1169.908 634.727 L 1171.839 634.62 L 1173.779 634.585 L 1175.704 634.62 L 1177.672 634.691 L 1179.605 634.585 L 1181.548 634.656 L 1183.48 634.798 L 1185.403 634.656 L 1187.335 634.62 L 1189.248 634.833 L 1191.185 634.762 L 1193.114 634.656 L 1195.05 634.656 L 1197.002 634.691 L 1199.162 634.727 L 1201.101 634.727 L 1203.035 634.691 L 1204.986 634.62 L 1206.928 634.691 L 1208.885 634.727 L 1210.829 634.585 L 1212.762 634.62 L 1214.699 634.833 L 1216.649 634.727 L 1218.589 634.656 L 1220.525 634.656 L 1222.466 634.798 L 1224.408 634.727 L 1226.359 634.691 L 1226.545 634.691 L 1226.545 780 Z" fill="#B3B3B3"/>
    <path id="window-50-percent-wave" data-name="50% waveform" d="M 1133.818 634.691 L 1135.021 634.691 L 1136.935 634.549 L 1138.884 634.727 L 1140.836 634.727 L 1142.774 634.727 L 1144.709 634.691 L 1146.652 634.691 L 1148.596 634.762 L 1150.533 634.762 L 1152.463 634.656 L 1154.396 634.798 L 1156.314 634.762 L 1158.266 634.691 L 1160.218 634.727 L 1162.148 634.762 L 1164.073 634.656 L 1166.015 634.691 L 1167.965 634.798 L 1169.908 634.727 L 1171.839 634.62 L 1173.779 634.585 L 1175.704 634.62 L 1177.672 634.691 L 1179.605 634.585 L 1181.548 634.656 L 1183.48 634.798 L 1185.403 634.656 L 1187.335 634.62 L 1189.248 634.833 L 1191.185 634.762 L 1193.114 634.656 L 1195.05 634.656 L 1197.002 634.691 L 1199.162 634.727 L 1201.101 634.727 L 1203.035 634.691 L 1204.986 634.62 L 1206.928 634.691 L 1208.885 634.727 L 1210.829 634.585 L 1212.762 634.62 L 1214.699 634.833 L 1216.649 634.727 L 1218.589 634.656 L 1220.525 634.656 L 1222.466 634.798 L 1224.408 634.727 L 1226.359 634.691 L 1226.545 634.691" fill="none" stroke="#8C8C8C" stroke-width="1.2" stroke-linecap="round" stroke-linejoin="round"/>
  </g>

  <g id="window-75-percent" data-name="75%" inkscape:groupmode="layer" inkscape:label="75%">
    <path id="window-75-percent-bar" data-name="75% bar" d="M 1260.545 780 L 1260.545 671.612 L 1261.577 671.612 L 1263.535 671.754 L 1265.494 671.754 L 1267.448 671.718 L 1269.4 671.647 L 1271.336 671.612 L 1273.262 671.824 L 1275.208 671.718 L 1277.161 671.647 L 1279.111 671.754 L 1281.051 671.718 L 1282.999 671.612 L 1284.947 671.683 L 1286.915 671.789 L 1288.85 671.718 L 1290.792 671.647 L 1292.728 671.683 L 1294.669 671.825 L 1296.617 671.683 L 1298.569 671.647 L 1300.514 671.754 L 1302.449 671.718 L 1304.381 671.647 L 1306.327 671.718 L 1308.27 671.789 L 1310.232 671.825 L 1312.189 671.647 L 1314.121 671.683 L 1316.079 671.754 L 1318.028 671.754 L 1319.983 671.647 L 1321.927 671.86 L 1323.87 671.789 L 1325.803 671.754 L 1327.747 671.683 L 1329.699 671.718 L 1331.662 671.647 L 1333.639 671.683 L 1335.601 671.647 L 1337.544 671.754 L 1339.497 671.86 L 1341.456 671.718 L 1343.409 671.683 L 1345.343 671.789 L 1347.27 671.683 L 1349.202 671.648 L 1351.126 671.789 L 1353.07 671.824 L 1353.273 671.824 L 1353.273 780 Z" fill="#B3B3B3"/>
    <path id="window-75-percent-wave" data-name="75% waveform" d="M 1260.545 671.612 L 1261.577 671.612 L 1263.535 671.754 L 1265.494 671.754 L 1267.448 671.718 L 1269.4 671.647 L 1271.336 671.612 L 1273.262 671.824 L 1275.208 671.718 L 1277.161 671.647 L 1279.111 671.754 L 1281.051 671.718 L 1282.999 671.612 L 1284.947 671.683 L 1286.915 671.789 L 1288.85 671.718 L 1290.792 671.647 L 1292.728 671.683 L 1294.669 671.825 L 1296.617 671.683 L 1298.569 671.647 L 1300.514 671.754 L 1302.449 671.718 L 1304.381 671.647 L 1306.327 671.718 L 1308.27 671.789 L 1310.232 671.825 L 1312.189 671.647 L 1314.121 671.683 L 1316.079 671.754 L 1318.028 671.754 L 1319.983 671.647 L 1321.927 671.86 L 1323.87 671.789 L 1325.803 671.754 L 1327.747 671.683 L 1329.699 671.718 L 1331.662 671.647 L 1333.639 671.683 L 1335.601 671.647 L 1337.544 671.754 L 1339.497 671.86 L 1341.456 671.718 L 1343.409 671.683 L 1345.343 671.789 L 1347.27 671.683 L 1349.202 671.648 L 1351.126 671.789 L 1353.07 671.824 L 1353.273 671.824" fill="none" stroke="#8C8C8C" stroke-width="1.2" stroke-linecap="round" stroke-linejoin="round"/>
  </g>

  <g id="window-100-percent" data-name="100%" inkscape:groupmode="layer" inkscape:label="100%">
    <path id="window-100-percent-bar" data-name="100% bar" d="M 1387.273 780 L 1387.273 687.982 L 1388.585 687.982 L 1390.546 687.946 L 1392.49 688.017 L 1394.427 688.017 L 1396.352 687.946 L 1398.286 687.876 L 1400.218 688.088 L 1402.408 688.053 L 1404.344 688.088 L 1406.277 687.947 L 1408.222 687.911 L 1410.165 688.053 L 1412.101 687.946 L 1414.036 687.947 L 1415.985 687.946 L 1418.181 688.088 L 1420.122 688.017 L 1422.059 687.982 L 1424.004 687.947 L 1425.948 687.876 L 1427.875 688.088 L 1429.825 688.053 L 1431.762 687.982 L 1433.952 687.982 L 1435.909 687.946 L 1437.853 688.018 L 1439.782 688.124 L 1441.717 688.017 L 1443.646 687.911 L 1445.572 688.053 L 1447.531 688.124 L 1449.729 688.017 L 1451.647 688.088 L 1453.608 687.946 L 1455.543 688.053 L 1457.499 688.088 L 1459.429 687.982 L 1461.36 687.982 L 1463.301 688.053 L 1465.477 688.088 L 1467.398 688.159 L 1469.348 688.017 L 1471.276 688.017 L 1473.225 688.053 L 1475.17 688.053 L 1477.111 688.017 L 1479.072 687.982 L 1480 687.982 L 1480 780 Z" fill="#B3B3B3"/>
    <path id="window-100-percent-wave" data-name="100% waveform" d="M 1387.273 687.982 L 1388.585 687.982 L 1390.546 687.946 L 1392.49 688.017 L 1394.427 688.017 L 1396.352 687.946 L 1398.286 687.876 L 1400.218 688.088 L 1402.408 688.053 L 1404.344 688.088 L 1406.277 687.947 L 1408.222 687.911 L 1410.165 688.053 L 1412.101 687.946 L 1414.036 687.947 L 1415.985 687.946 L 1418.181 688.088 L 1420.122 688.017 L 1422.059 687.982 L 1424.004 687.947 L 1425.948 687.876 L 1427.875 688.088 L 1429.825 688.053 L 1431.762 687.982 L 1433.952 687.982 L 1435.909 687.946 L 1437.853 688.018 L 1439.782 688.124 L 1441.717 688.017 L 1443.646 687.911 L 1445.572 688.053 L 1447.531 688.124 L 1449.729 688.017 L 1451.647 688.088 L 1453.608 687.946 L 1455.543 688.053 L 1457.499 688.088 L 1459.429 687.982 L 1461.36 687.982 L 1463.301 688.053 L 1465.477 688.088 L 1467.398 688.159 L 1469.348 688.017 L 1471.276 688.017 L 1473.225 688.053 L 1475.17 688.053 L 1477.111 688.017 L 1479.072 687.982 L 1480 687.982" fill="none" stroke="#8C8C8C" stroke-width="1.2" stroke-linecap="round" stroke-linejoin="round"/>
  </g>
</svg>
