<?xml version="1.0" encoding="UTF-8"?>
<svg xmlns="http://www.w3.org/2000/svg" xmlns:inkscape="http://www.inkscape.org/namespaces/inkscape" width="1600" height="900" viewBox="0 0 1600 900" version="1.1">
  <title>LG G6 SDR FILMMAKER模式 亮度数据.xlsx AI layered luminance SVG</title>
  <desc>Each percentage window is a separate group/layer. Y scale: 0 to 2500 nits.</desc>
  <rect id="artboard-background" data-name="Artboard background" x="0" y="0" width="1600" height="900" fill="#FFFFFF"/>

  <g id="window-1-percent" data-name="1%" inkscape:groupmode="layer" inkscape:label="1%">
    <path id="window-1-percent-bar" data-name="1% bar" d="M 120 780 L 120 513.115 L 120.153 513.115 L 120.848 513.08 L 121.551 513.115 L 122.237 513.08 L 122.954 513.15 L 123.639 513.15 L 124.309 512.905 L 125.028 513.08 L 125.741 512.975 L 126.443 513.01 L 127.112 513.045 L 127.595 512.975 L 128.278 512.975 L 128.976 513.045 L 129.451 513.045 L 130.169 512.975 L 130.834 513.01 L 131.527 513.01 L 132.232 512.87 L 132.713 512.94 L 133.407 512.94 L 133.88 512.87 L 134.592 512.94 L 135.284 512.73 L 135.758 512.8 L 136.445 512.87 L 137.13 512.835 L 137.836 512.73 L 138.531 512.835 L 139.212 512.765 L 139.696 512.66 L 140.306 512.66 L 140.871 512.765 L 141.562 512.765 L 142.246 512.73 L 142.945 512.94 L 143.647 512.73 L 144.346 512.765 L 145.043 512.625 L 145.767 512.554 L 146.446 512.835 L 147.136 512.695 L 147.813 512.695 L 148.525 512.625 L 149.011 512.695 L 149.703 512.554 L 150.402 512.589 L 151.1 512.52 L 151.777 512.625 L 152.49 512.66 L 153.152 512.555 L 153.657 512.589 L 154.126 512.519 L 154.847 512.625 L 155.54 512.485 L 156.242 512.485 L 156.925 512.625 L 157.626 512.449 L 158.32 512.554 L 159.011 512.485 L 159.713 512.45 L 160.405 512.45 L 161.088 512.45 L 161.57 512.45 L 162.272 512.485 L 162.971 512.344 L 163.67 512.344 L 164.367 512.52 L 164.834 512.45 L 165.31 512.414 L 166.016 512.344 L 166.722 512.38 L 167.42 512.344 L 167.917 512.38 L 168.617 512.274 L 169.295 512.45 L 170 512.309 L 170.678 512.309 L 171.159 512.239 L 171.649 512.344 L 172.347 512.379 L 173.049 512.135 L 173.528 512.204 L 174.234 512.38 L 174.918 512.204 L 175.646 512.239 L 176.332 512.274 L 177.045 512.204 L 177.737 512.309 L 178.421 512.204 L 179.112 512.169 L 179.81 512.239 L 180.5 512.204 L 181.208 512.169 L 181.897 512.169 L 182.573 512.134 L 183.265 512.169 L 183.963 512.029 L 184.659 512.169 L 185.459 512.029 L 186.077 512.029 L 186.543 511.959 L 187.233 512.134 L 187.927 511.994 L 188.642 512.064 L 189.356 512.029 L 190.056 511.959 L 190.763 512.099 L 191.437 511.924 L 192.137 512.064 L 192.828 512.029 L 193.541 512.029 L 194.214 512.099 L 194.915 511.959 L 195.644 512.029 L 196.351 511.959 L 197.035 511.959 L 197.731 512.029 L 198.43 511.854 L 199.111 511.924 L 199.837 511.994 L 200.543 511.889 L 201.263 511.994 L 201.944 511.854 L 202.417 511.819 L 203.113 511.889 L 203.823 511.784 L 204.532 511.854 L 205.234 511.749 L 205.953 511.784 L 206.643 511.889 L 207.338 511.819 L 208.065 511.994 L 208.751 511.854 L 209.232 511.784 L 209.93 511.784 L 210.409 511.749 L 211.091 511.924 L 211.815 511.784 L 212.505 511.749 L 212.727 511.749 L 212.727 780 Z" fill="#B3B3B3"/>
    <path id="window-1-percent-wave" data-name="1% waveform" d="M 120 513.115 L 120.153 513.115 L 120.848 513.08 L 121.551 513.115 L 122.237 513.08 L 122.954 513.15 L 123.639 513.15 L 124.309 512.905 L 125.028 513.08 L 125.741 512.975 L 126.443 513.01 L 127.112 513.045 L 127.595 512.975 L 128.278 512.975 L 128.976 513.045 L 129.451 513.045 L 130.169 512.975 L 130.834 513.01 L 131.527 513.01 L 132.232 512.87 L 132.713 512.94 L 133.407 512.94 L 133.88 512.87 L 134.592 512.94 L 135.284 512.73 L 135.758 512.8 L 136.445 512.87 L 137.13 512.835 L 137.836 512.73 L 138.531 512.835 L 139.212 512.765 L 139.696 512.66 L 140.306 512.66 L 140.871 512.765 L 141.562 512.765 L 142.246 512.73 L 142.945 512.94 L 143.647 512.73 L 144.346 512.765 L 145.043 512.625 L 145.767 512.554 L 146.446 512.835 L 147.136 512.695 L 147.813 512.695 L 148.525 512.625 L 149.011 512.695 L 149.703 512.554 L 150.402 512.589 L 151.1 512.52 L 151.777 512.625 L 152.49 512.66 L 153.152 512.555 L 153.657 512.589 L 154.126 512.519 L 154.847 512.625 L 155.54 512.485 L 156.242 512.485 L 156.925 512.625 L 157.626 512.449 L 158.32 512.554 L 159.011 512.485 L 159.713 512.45 L 160.405 512.45 L 161.088 512.45 L 161.57 512.45 L 162.272 512.485 L 162.971 512.344 L 163.67 512.344 L 164.367 512.52 L 164.834 512.45 L 165.31 512.414 L 166.016 512.344 L 166.722 512.38 L 167.42 512.344 L 167.917 512.38 L 168.617 512.274 L 169.295 512.45 L 170 512.309 L 170.678 512.309 L 171.159 512.239 L 171.649 512.344 L 172.347 512.379 L 173.049 512.135 L 173.528 512.204 L 174.234 512.38 L 174.918 512.204 L 175.646 512.239 L 176.332 512.274 L 177.045 512.204 L 177.737 512.309 L 178.421 512.204 L 179.112 512.169 L 179.81 512.239 L 180.5 512.204 L 181.208 512.169 L 181.897 512.169 L 182.573 512.134 L 183.265 512.169 L 183.963 512.029 L 184.659 512.169 L 185.459 512.029 L 186.077 512.029 L 186.543 511.959 L 187.233 512.134 L 187.927 511.994 L 188.642 512.064 L 189.356 512.029 L 190.056 511.959 L 190.763 512.099 L 191.437 511.924 L 192.137 512.064 L 192.828 512.029 L 193.541 512.029 L 194.214 512.099 L 194.915 511.959 L 195.644 512.029 L 196.351 511.959 L 197.035 511.959 L 197.731 512.029 L 198.43 511.854 L 199.111 511.924 L 199.837 511.994 L 200.543 511.889 L 201.263 511.994 L 201.944 511.854 L 202.417 511.819 L 203.113 511.889 L 203.823 511.784 L 204.532 511.854 L 205.234 511.749 L 205.953 511.784 L 206.643 511.889 L 207.338 511.819 L 208.065 511.994 L 208.751 511.854 L 209.232 511.784 L 209.93 511.784 L 210.409 511.749 L 211.091 511.924 L 211.815 511.784 L 212.505 511.749 L 212.727 511.749" fill="none" stroke="#8C8C8C" stroke-width="1.2" stroke-linecap="round" stroke-linejoin="round"/>
  </g>

  <g id="window-2-percent" data-name="2%" inkscape:groupmode="layer" inkscape:label="2%">
    <path id="window-2-percent-bar" data-name="2% bar" d="M 246.727 780 L 246.727 513.446 L 249.121 513.446 L 249.755 513.08 L 250.489 513.044 L 251.207 513.149 L 251.922 513.08 L 252.676 513.08 L 253.4 513.079 L 254.139 513.079 L 254.779 513.01 L 255.353 513.114 L 255.865 513.15 L 256.599 513.044 L 257.326 512.974 L 258.041 513.009 L 258.767 512.904 L 259.284 512.939 L 260.047 512.975 L 260.737 513.01 L 261.252 512.94 L 261.972 512.904 L 262.697 512.94 L 263.433 512.904 L 264.175 512.904 L 264.684 513.045 L 265.408 512.834 L 266.152 512.905 L 266.887 513.044 L 267.607 512.834 L 268.348 512.939 L 269.083 512.834 L 269.827 512.904 L 270.691 512.799 L 271.292 512.764 L 272.037 512.869 L 272.772 512.694 L 273.493 512.729 L 274.227 512.694 L 274.959 512.659 L 275.695 512.799 L 276.408 512.624 L 277.144 512.694 L 277.888 512.729 L 278.638 512.624 L 279.368 512.764 L 280.093 512.519 L 280.815 512.659 L 281.548 512.589 L 282.307 512.589 L 283.023 512.624 L 283.509 512.764 L 284.019 512.694 L 284.763 512.554 L 285.509 512.694 L 286.375 512.554 L 286.989 512.659 L 287.726 512.659 L 288.448 512.449 L 289.189 515.111 L 289.92 514.935 L 290.675 514.97 L 291.391 514.97 L 292.13 515.005 L 292.643 515.006 L 293.381 515.076 L 294.135 514.83 L 294.863 514.936 L 295.599 514.9 L 296.334 514.901 L 297.062 515.005 L 297.814 514.83 L 298.559 515.005 L 299.273 514.935 L 300.01 514.97 L 300.76 514.97 L 301.49 514.865 L 302.33 514.901 L 302.933 514.795 L 303.441 514.866 L 304.175 514.901 L 304.91 514.831 L 305.637 514.83 L 306.364 514.9 L 307.11 514.795 L 307.821 514.83 L 308.546 514.83 L 309.283 514.795 L 309.793 514.69 L 310.54 514.901 L 311.295 514.725 L 311.983 514.76 L 312.729 514.831 L 313.446 514.655 L 314.167 514.76 L 314.923 514.69 L 315.645 514.69 L 316.381 514.655 L 317.114 514.725 L 317.96 514.865 L 318.536 514.725 L 319.268 514.725 L 319.948 514.725 L 320.69 514.69 L 321.436 514.725 L 322.176 514.62 L 322.93 514.725 L 323.645 514.725 L 324.358 514.515 L 325.106 514.76 L 325.841 514.62 L 326.586 514.795 L 327.329 514.585 L 328.041 514.585 L 328.785 514.69 L 329.52 514.62 L 330.254 514.655 L 330.991 514.515 L 331.746 514.62 L 332.455 514.585 L 333.165 514.445 L 333.923 514.62 L 334.637 514.48 L 335.354 514.48 L 336.078 514.55 L 336.597 514.585 L 337.313 514.55 L 337.83 514.445 L 338.556 514.55 L 339.275 514.515 L 339.455 514.515 L 339.455 780 Z" fill="#B3B3B3"/>
    <path id="window-2-percent-wave" data-name="2% waveform" d="M 246.727 513.446 L 249.121 513.446 L 249.755 513.08 L 250.489 513.044 L 251.207 513.149 L 251.922 513.08 L 252.676 513.08 L 253.4 513.079 L 254.139 513.079 L 254.779 513.01 L 255.353 513.114 L 255.865 513.15 L 256.599 513.044 L 257.326 512.974 L 258.041 513.009 L 258.767 512.904 L 259.284 512.939 L 260.047 512.975 L 260.737 513.01 L 261.252 512.94 L 261.972 512.904 L 262.697 512.94 L 263.433 512.904 L 264.175 512.904 L 264.684 513.045 L 265.408 512.834 L 266.152 512.905 L 266.887 513.044 L 267.607 512.834 L 268.348 512.939 L 269.083 512.834 L 269.827 512.904 L 270.691 512.799 L 271.292 512.764 L 272.037 512.869 L 272.772 512.694 L 273.493 512.729 L 274.227 512.694 L 274.959 512.659 L 275.695 512.799 L 276.408 512.624 L 277.144 512.694 L 277.888 512.729 L 278.638 512.624 L 279.368 512.764 L 280.093 512.519 L 280.815 512.659 L 281.548 512.589 L 282.307 512.589 L 283.023 512.624 L 283.509 512.764 L 284.019 512.694 L 284.763 512.554 L 285.509 512.694 L 286.375 512.554 L 286.989 512.659 L 287.726 512.659 L 288.448 512.449 L 289.189 515.111 L 289.92 514.935 L 290.675 514.97 L 291.391 514.97 L 292.13 515.005 L 292.643 515.006 L 293.381 515.076 L 294.135 514.83 L 294.863 514.936 L 295.599 514.9 L 296.334 514.901 L 297.062 515.005 L 297.814 514.83 L 298.559 515.005 L 299.273 514.935 L 300.01 514.97 L 300.76 514.97 L 301.49 514.865 L 302.33 514.901 L 302.933 514.795 L 303.441 514.866 L 304.175 514.901 L 304.91 514.831 L 305.637 514.83 L 306.364 514.9 L 307.11 514.795 L 307.821 514.83 L 308.546 514.83 L 309.283 514.795 L 309.793 514.69 L 310.54 514.901 L 311.295 514.725 L 311.983 514.76 L 312.729 514.831 L 313.446 514.655 L 314.167 514.76 L 314.923 514.69 L 315.645 514.69 L 316.381 514.655 L 317.114 514.725 L 317.96 514.865 L 318.536 514.725 L 319.268 514.725 L 319.948 514.725 L 320.69 514.69 L 321.436 514.725 L 322.176 514.62 L 322.93 514.725 L 323.645 514.725 L 324.358 514.515 L 325.106 514.76 L 325.841 514.62 L 326.586 514.795 L 327.329 514.585 L 328.041 514.585 L 328.785 514.69 L 329.52 514.62 L 330.254 514.655 L 330.991 514.515 L 331.746 514.62 L 332.455 514.585 L 333.165 514.445 L 333.923 514.62 L 334.637 514.48 L 335.354 514.48 L 336.078 514.55 L 336.597 514.585 L 337.313 514.55 L 337.83 514.445 L 338.556 514.55 L 339.275 514.515 L 339.455 514.515" fill="none" stroke="#8C8C8C" stroke-width="1.2" stroke-linecap="round" stroke-linejoin="round"/>
  </g>

  <g id="window-3-percent" data-name="3%" inkscape:groupmode="layer" inkscape:label="3%">
    <path id="window-3-percent-bar" data-name="3% bar" d="M 373.455 780 L 373.455 515.279 L 375.908 515.279 L 376.564 515.321 L 377.287 515.285 L 378.026 515.356 L 378.531 515.32 L 379.27 515.285 L 380.009 515.145 L 380.718 515.215 L 381.384 515.18 L 381.982 515.215 L 382.718 515.25 L 383.452 515.075 L 384.163 515.25 L 384.66 515.215 L 385.161 515.075 L 385.666 515.005 L 386.4 515.181 L 387.125 515.11 L 387.868 515.215 L 388.606 515.041 L 389.316 515.11 L 390.061 515.146 L 390.808 515.04 L 391.525 515.145 L 392.275 515.04 L 392.987 515.04 L 393.706 515.11 L 394.426 514.935 L 395.157 515.04 L 395.892 514.935 L 396.614 514.935 L 397.334 515.075 L 398.075 514.9 L 398.787 515.04 L 399.523 514.865 L 400.253 514.97 L 400.996 514.935 L 401.724 514.9 L 402.218 514.83 L 402.97 514.935 L 403.703 514.76 L 404.438 514.9 L 405.166 514.865 L 405.918 514.795 L 406.665 514.865 L 407.375 514.83 L 408.1 514.795 L 408.835 514.795 L 409.553 514.795 L 410.307 514.935 L 411.039 514.76 L 411.553 514.76 L 412.259 514.76 L 413.006 514.76 L 413.746 514.725 L 414.482 514.795 L 415.221 514.62 L 415.94 514.655 L 416.663 514.585 L 417.381 514.585 L 418.121 514.795 L 418.866 514.69 L 419.585 514.795 L 420.302 514.655 L 420.809 514.76 L 421.546 514.55 L 422.271 514.76 L 422.995 514.585 L 423.728 514.585 L 424.462 514.69 L 425.208 514.515 L 425.928 514.62 L 426.657 514.515 L 427.393 514.55 L 428.13 514.585 L 428.858 514.515 L 429.58 514.585 L 430.312 514.48 L 431.054 514.515 L 431.798 514.515 L 432.555 514.48 L 433.264 514.585 L 433.991 514.41 L 434.722 514.515 L 435.462 514.445 L 436.194 514.48 L 436.909 514.445 L 437.648 514.41 L 438.389 514.48 L 439.118 514.445 L 439.837 514.445 L 440.548 514.55 L 441.32 514.445 L 442.022 514.515 L 442.771 514.445 L 443.471 514.305 L 444.339 514.445 L 444.967 514.375 L 445.71 514.41 L 446.436 514.34 L 447.172 514.375 L 447.927 514.41 L 448.636 514.305 L 449.373 514.41 L 450.104 514.305 L 450.807 514.235 L 451.553 514.375 L 452.275 514.2 L 453.014 514.375 L 453.745 514.27 L 454.474 514.305 L 455.179 514.41 L 455.918 514.235 L 456.67 514.34 L 457.414 514.235 L 458.131 514.235 L 458.638 514.235 L 459.362 514.27 L 460.097 514.235 L 460.817 514.235 L 461.545 514.235 L 462.29 514.235 L 463.009 514.2 L 463.756 514.13 L 464.509 514.27 L 465.228 514.095 L 465.975 514.165 L 466.182 514.165 L 466.182 780 Z" fill="#B3B3B3"/>
    <path id="window-3-percent-wave" data-name="3% waveform" d="M 373.455 515.279 L 375.908 515.279 L 376.564 515.321 L 377.287 515.285 L 378.026 515.356 L 378.531 515.32 L 379.27 515.285 L 380.009 515.145 L 380.718 515.215 L 381.384 515.18 L 381.982 515.215 L 382.718 515.25 L 383.452 515.075 L 384.163 515.25 L 384.66 515.215 L 385.161 515.075 L 385.666 515.005 L 386.4 515.181 L 387.125 515.11 L 387.868 515.215 L 388.606 515.041 L 389.316 515.11 L 390.061 515.146 L 390.808 515.04 L 391.525 515.145 L 392.275 515.04 L 392.987 515.04 L 393.706 515.11 L 394.426 514.935 L 395.157 515.04 L 395.892 514.935 L 396.614 514.935 L 397.334 515.075 L 398.075 514.9 L 398.787 515.04 L 399.523 514.865 L 400.253 514.97 L 400.996 514.935 L 401.724 514.9 L 402.218 514.83 L 402.97 514.935 L 403.703 514.76 L 404.438 514.9 L 405.166 514.865 L 405.918 514.795 L 406.665 514.865 L 407.375 514.83 L 408.1 514.795 L 408.835 514.795 L 409.553 514.795 L 410.307 514.935 L 411.039 514.76 L 411.553 514.76 L 412.259 514.76 L 413.006 514.76 L 413.746 514.725 L 414.482 514.795 L 415.221 514.62 L 415.94 514.655 L 416.663 514.585 L 417.381 514.585 L 418.121 514.795 L 418.866 514.69 L 419.585 514.795 L 420.302 514.655 L 420.809 514.76 L 421.546 514.55 L 422.271 514.76 L 422.995 514.585 L 423.728 514.585 L 424.462 514.69 L 425.208 514.515 L 425.928 514.62 L 426.657 514.515 L 427.393 514.55 L 428.13 514.585 L 428.858 514.515 L 429.58 514.585 L 430.312 514.48 L 431.054 514.515 L 431.798 514.515 L 432.555 514.48 L 433.264 514.585 L 433.991 514.41 L 434.722 514.515 L 435.462 514.445 L 436.194 514.48 L 436.909 514.445 L 437.648 514.41 L 438.389 514.48 L 439.118 514.445 L 439.837 514.445 L 440.548 514.55 L 441.32 514.445 L 442.022 514.515 L 442.771 514.445 L 443.471 514.305 L 444.339 514.445 L 444.967 514.375 L 445.71 514.41 L 446.436 514.34 L 447.172 514.375 L 447.927 514.41 L 448.636 514.305 L 449.373 514.41 L 450.104 514.305 L 450.807 514.235 L 451.553 514.375 L 452.275 514.2 L 453.014 514.375 L 453.745 514.27 L 454.474 514.305 L 455.179 514.41 L 455.918 514.235 L 456.67 514.34 L 457.414 514.235 L 458.131 514.235 L 458.638 514.235 L 459.362 514.27 L 460.097 514.235 L 460.817 514.235 L 461.545 514.235 L 462.29 514.235 L 463.009 514.2 L 463.756 514.13 L 464.509 514.27 L 465.228 514.095 L 465.975 514.165 L 466.182 514.165" fill="none" stroke="#8C8C8C" stroke-width="1.2" stroke-linecap="round" stroke-linejoin="round"/>
  </g>

  <g id="window-5-percent" data-name="5%" inkscape:groupmode="layer" inkscape:label="5%">
    <path id="window-5-percent-bar" data-name="5% bar" d="M 500.182 780 L 500.182 515.012 L 502.582 515.012 L 503.28 515.04 L 504.005 515.18 L 504.731 515.04 L 505.465 515.145 L 506.192 515.11 L 506.938 514.97 L 507.675 515.04 L 508.411 514.935 L 509.159 515.04 L 509.88 514.9 L 510.609 514.9 L 511.33 514.935 L 512.056 514.9 L 512.766 514.9 L 513.278 514.935 L 514.013 514.97 L 514.755 514.865 L 515.257 514.795 L 515.983 515.04 L 516.713 514.9 L 517.432 514.9 L 518.163 514.935 L 518.916 514.865 L 519.623 514.935 L 520.359 514.83 L 521.11 514.935 L 521.844 514.9 L 522.569 514.795 L 523.318 514.97 L 524.044 514.83 L 524.778 514.83 L 525.511 514.83 L 526.245 514.76 L 526.952 514.83 L 527.674 514.795 L 528.413 514.76 L 529.135 514.795 L 529.88 514.725 L 530.61 514.795 L 531.35 514.655 L 532.087 514.725 L 532.845 514.62 L 533.561 514.655 L 534.265 514.795 L 534.999 514.655 L 535.726 514.76 L 536.459 514.655 L 537.203 514.655 L 537.928 514.76 L 538.654 514.55 L 539.505 514.725 L 540.096 514.76 L 540.613 514.585 L 541.368 514.515 L 542.081 514.725 L 542.825 514.515 L 543.568 514.655 L 544.294 514.585 L 545.029 514.55 L 545.757 514.655 L 546.494 514.515 L 547.211 514.585 L 547.932 514.55 L 548.654 514.515 L 549.408 514.62 L 550.137 514.48 L 550.86 514.515 L 551.568 514.48 L 552.074 514.515 L 552.808 514.41 L 553.537 514.515 L 554.262 514.445 L 554.992 514.515 L 555.71 514.375 L 556.453 514.27 L 557.194 514.445 L 557.928 514.445 L 558.623 514.445 L 559.36 514.41 L 560.107 514.375 L 560.827 514.41 L 561.549 514.235 L 562.05 514.305 L 562.784 514.27 L 563.51 514.34 L 564.265 514.235 L 564.991 514.375 L 565.719 514.2 L 566.454 514.339 L 567.172 514.34 L 567.913 514.13 L 568.661 514.305 L 569.398 514.235 L 570.136 514.34 L 570.98 514.234 L 571.629 514.27 L 572.361 514.235 L 573.074 514.199 L 573.825 514.235 L 574.553 514.13 L 575.297 514.13 L 576.009 514.234 L 576.748 514.13 L 577.254 514.2 L 578.002 514.235 L 578.74 514.164 L 579.46 514.164 L 580.175 514.199 L 580.926 514.025 L 581.639 514.199 L 582.378 514.094 L 582.87 514.094 L 583.625 514.094 L 584.363 514.13 L 585.099 513.989 L 585.81 514.025 L 586.677 513.989 L 587.27 514.094 L 588.015 514.095 L 588.753 513.954 L 589.464 514.095 L 590.197 513.954 L 590.921 514.06 L 591.66 514.06 L 592.402 513.919 L 592.909 513.919 L 592.909 780 Z" fill="#B3B3B3"/>
    <path id="window-5-percent-wave" data-name="5% waveform" d="M 500.182 515.012 L 502.582 515.012 L 503.28 515.04 L 504.005 515.18 L 504.731 515.04 L 505.465 515.145 L 506.192 515.11 L 506.938 514.97 L 507.675 515.04 L 508.411 514.935 L 509.159 515.04 L 509.88 514.9 L 510.609 514.9 L 511.33 514.935 L 512.056 514.9 L 512.766 514.9 L 513.278 514.935 L 514.013 514.97 L 514.755 514.865 L 515.257 514.795 L 515.983 515.04 L 516.713 514.9 L 517.432 514.9 L 518.163 514.935 L 518.916 514.865 L 519.623 514.935 L 520.359 514.83 L 521.11 514.935 L 521.844 514.9 L 522.569 514.795 L 523.318 514.97 L 524.044 514.83 L 524.778 514.83 L 525.511 514.83 L 526.245 514.76 L 526.952 514.83 L 527.674 514.795 L 528.413 514.76 L 529.135 514.795 L 529.88 514.725 L 530.61 514.795 L 531.35 514.655 L 532.087 514.725 L 532.845 514.62 L 533.561 514.655 L 534.265 514.795 L 534.999 514.655 L 535.726 514.76 L 536.459 514.655 L 537.203 514.655 L 537.928 514.76 L 538.654 514.55 L 539.505 514.725 L 540.096 514.76 L 540.613 514.585 L 541.368 514.515 L 542.081 514.725 L 542.825 514.515 L 543.568 514.655 L 544.294 514.585 L 545.029 514.55 L 545.757 514.655 L 546.494 514.515 L 547.211 514.585 L 547.932 514.55 L 548.654 514.515 L 549.408 514.62 L 550.137 514.48 L 550.86 514.515 L 551.568 514.48 L 552.074 514.515 L 552.808 514.41 L 553.537 514.515 L 554.262 514.445 L 554.992 514.515 L 555.71 514.375 L 556.453 514.27 L 557.194 514.445 L 557.928 514.445 L 558.623 514.445 L 559.36 514.41 L 560.107 514.375 L 560.827 514.41 L 561.549 514.235 L 562.05 514.305 L 562.784 514.27 L 563.51 514.34 L 564.265 514.235 L 564.991 514.375 L 565.719 514.2 L 566.454 514.339 L 567.172 514.34 L 567.913 514.13 L 568.661 514.305 L 569.398 514.235 L 570.136 514.34 L 570.98 514.234 L 571.629 514.27 L 572.361 514.235 L 573.074 514.199 L 573.825 514.235 L 574.553 514.13 L 575.297 514.13 L 576.009 514.234 L 576.748 514.13 L 577.254 514.2 L 578.002 514.235 L 578.74 514.164 L 579.46 514.164 L 580.175 514.199 L 580.926 514.025 L 581.639 514.199 L 582.378 514.094 L 582.87 514.094 L 583.625 514.094 L 584.363 514.13 L 585.099 513.989 L 585.81 514.025 L 586.677 513.989 L 587.27 514.094 L 588.015 514.095 L 588.753 513.954 L 589.464 514.095 L 590.197 513.954 L 590.921 514.06 L 591.66 514.06 L 592.402 513.919 L 592.909 513.919" fill="none" stroke="#8C8C8C" stroke-width="1.2" stroke-linecap="round" stroke-linejoin="round"/>
  </g>

  <g id="window-10-percent" data-name="10%" inkscape:groupmode="layer" inkscape:label="10%">
    <path id="window-10-percent-bar" data-name="10% bar" d="M 626.909 780 L 626.909 514.579 L 629.298 514.579 L 629.896 514.83 L 630.639 514.76 L 631.364 514.725 L 632.103 514.76 L 632.808 514.585 L 633.549 514.76 L 634.289 514.76 L 635.08 514.619 L 635.733 514.725 L 636.483 514.515 L 637.219 514.69 L 637.978 514.585 L 638.704 514.585 L 639.444 514.69 L 640.152 514.55 L 640.874 514.55 L 641.368 514.445 L 642.13 514.55 L 642.876 514.585 L 643.598 514.585 L 644.349 514.48 L 645.054 514.585 L 645.783 514.515 L 646.522 514.339 L 647.25 514.515 L 647.99 514.444 L 648.687 514.41 L 649.43 514.515 L 650.176 514.305 L 650.9 514.515 L 651.655 514.339 L 652.369 514.409 L 653.118 514.34 L 653.835 514.48 L 654.58 514.515 L 655.307 514.339 L 656.035 514.444 L 656.773 514.374 L 657.517 514.375 L 658.248 514.409 L 659.016 514.235 L 659.734 514.444 L 660.454 514.339 L 661.177 514.339 L 661.917 514.444 L 662.66 514.269 L 663.383 514.305 L 664.122 514.199 L 664.858 514.199 L 665.581 514.269 L 666.422 514.234 L 667.037 514.305 L 667.765 514.164 L 668.518 514.024 L 669.243 514.094 L 669.973 514.129 L 670.716 514.199 L 671.473 514.094 L 672.179 514.164 L 672.688 514.199 L 673.407 514.235 L 674.138 514.059 L 674.858 514.129 L 675.597 514.094 L 676.343 514.094 L 677.097 514.094 L 677.808 513.989 L 678.561 514.164 L 679.306 514.024 L 680.033 514.164 L 680.764 514.129 L 681.303 514.094 L 682.14 513.989 L 682.728 514.199 L 683.452 514.059 L 684.193 514.059 L 684.941 514.024 L 685.688 513.954 L 686.431 514.129 L 687.143 513.989 L 687.914 514.059 L 688.647 513.919 L 689.381 513.989 L 689.887 513.919 L 690.635 513.954 L 691.359 513.849 L 691.867 513.779 L 692.393 513.849 L 693.108 513.954 L 693.83 513.814 L 694.349 513.849 L 695.084 513.849 L 695.799 513.849 L 696.532 513.814 L 697.278 513.884 L 698.11 513.779 L 698.73 513.744 L 699.459 513.919 L 700.208 513.744 L 700.967 513.744 L 701.694 513.744 L 702.429 513.779 L 703.18 513.814 L 703.938 513.709 L 704.688 513.779 L 705.396 513.639 L 706.148 513.744 L 706.898 513.639 L 707.64 513.604 L 708.385 513.744 L 709.073 513.569 L 709.83 513.639 L 710.555 513.639 L 711.293 513.639 L 712.041 513.744 L 712.79 513.604 L 713.637 513.674 L 714.246 513.569 L 714.999 513.674 L 715.723 513.604 L 716.482 513.499 L 717.2 513.709 L 717.945 513.604 L 718.694 513.639 L 719.438 513.534 L 719.636 513.534 L 719.636 780 Z" fill="#B3B3B3"/>
    <path id="window-10-percent-wave" data-name="10% waveform" d="M 626.909 514.579 L 629.298 514.579 L 629.896 514.83 L 630.639 514.76 L 631.364 514.725 L 632.103 514.76 L 632.808 514.585 L 633.549 514.76 L 634.289 514.76 L 635.08 514.619 L 635.733 514.725 L 636.483 514.515 L 637.219 514.69 L 637.978 514.585 L 638.704 514.585 L 639.444 514.69 L 640.152 514.55 L 640.874 514.55 L 641.368 514.445 L 642.13 514.55 L 642.876 514.585 L 643.598 514.585 L 644.349 514.48 L 645.054 514.585 L 645.783 514.515 L 646.522 514.339 L 647.25 514.515 L 647.99 514.444 L 648.687 514.41 L 649.43 514.515 L 650.176 514.305 L 650.9 514.515 L 651.655 514.339 L 652.369 514.409 L 653.118 514.34 L 653.835 514.48 L 654.58 514.515 L 655.307 514.339 L 656.035 514.444 L 656.773 514.374 L 657.517 514.375 L 658.248 514.409 L 659.016 514.235 L 659.734 514.444 L 660.454 514.339 L 661.177 514.339 L 661.917 514.444 L 662.66 514.269 L 663.383 514.305 L 664.122 514.199 L 664.858 514.199 L 665.581 514.269 L 666.422 514.234 L 667.037 514.305 L 667.765 514.164 L 668.518 514.024 L 669.243 514.094 L 669.973 514.129 L 670.716 514.199 L 671.473 514.094 L 672.179 514.164 L 672.688 514.199 L 673.407 514.235 L 674.138 514.059 L 674.858 514.129 L 675.597 514.094 L 676.343 514.094 L 677.097 514.094 L 677.808 513.989 L 678.561 514.164 L 679.306 514.024 L 680.033 514.164 L 680.764 514.129 L 681.303 514.094 L 682.14 513.989 L 682.728 514.199 L 683.452 514.059 L 684.193 514.059 L 684.941 514.024 L 685.688 513.954 L 686.431 514.129 L 687.143 513.989 L 687.914 514.059 L 688.647 513.919 L 689.381 513.989 L 689.887 513.919 L 690.635 513.954 L 691.359 513.849 L 691.867 513.779 L 692.393 513.849 L 693.108 513.954 L 693.83 513.814 L 694.349 513.849 L 695.084 513.849 L 695.799 513.849 L 696.532 513.814 L 697.278 513.884 L 698.11 513.779 L 698.73 513.744 L 699.459 513.919 L 700.208 513.744 L 700.967 513.744 L 701.694 513.744 L 702.429 513.779 L 703.18 513.814 L 703.938 513.709 L 704.688 513.779 L 705.396 513.639 L 706.148 513.744 L 706.898 513.639 L 707.64 513.604 L 708.385 513.744 L 709.073 513.569 L 709.83 513.639 L 710.555 513.639 L 711.293 513.639 L 712.041 513.744 L 712.79 513.604 L 713.637 513.674 L 714.246 513.569 L 714.999 513.674 L 715.723 513.604 L 716.482 513.499 L 717.2 513.709 L 717.945 513.604 L 718.694 513.639 L 719.438 513.534 L 719.636 513.534" fill="none" stroke="#8C8C8C" stroke-width="1.2" stroke-linecap="round" stroke-linejoin="round"/>
  </g>

  <g id="window-15-percent" data-name="15%" inkscape:groupmode="layer" inkscape:label="15%">
    <path id="window-15-percent-bar" data-name="15% bar" d="M 753.636 780 L 753.636 513.978 L 756.162 513.978 L 756.776 514.129 L 757.509 513.884 L 758.243 514.059 L 758.971 513.954 L 759.702 514.024 L 760.437 514.024 L 761.19 513.884 L 761.929 514.059 L 762.67 513.919 L 763.4 513.919 L 763.914 513.814 L 764.656 513.989 L 765.401 513.884 L 766.123 513.884 L 766.883 513.884 L 767.634 513.884 L 768.355 513.884 L 769.107 513.849 L 769.851 513.744 L 770.6 513.744 L 771.33 513.919 L 772.076 513.779 L 772.793 513.674 L 773.538 513.814 L 774.26 513.709 L 774.771 513.709 L 775.504 513.639 L 776.243 513.709 L 776.983 513.674 L 777.695 513.709 L 778.43 513.604 L 779.184 513.674 L 779.688 513.639 L 780.428 513.674 L 781.16 513.604 L 781.885 513.709 L 782.609 513.499 L 783.355 513.709 L 784.082 513.639 L 784.85 513.569 L 785.569 513.709 L 786.293 513.534 L 787.02 513.604 L 788.414 513.499 L 788.967 513.429 L 789.689 513.604 L 790.412 513.429 L 791.195 513.499 L 791.928 513.429 L 792.65 513.429 L 793.372 513.569 L 794.121 513.464 L 794.861 513.499 L 795.593 513.429 L 796.329 513.359 L 797.04 513.464 L 797.805 513.394 L 798.514 513.429 L 799.261 513.359 L 800.011 513.394 L 800.735 513.429 L 801.475 513.254 L 802.175 513.289 L 802.927 513.289 L 803.649 513.219 L 804.398 513.324 L 805.124 513.254 L 805.854 513.254 L 806.361 513.324 L 807.09 513.254 L 807.837 513.149 L 808.561 513.324 L 809.281 513.184 L 810.011 513.289 L 810.763 513.289 L 811.509 513.184 L 812.25 513.254 L 812.976 513.149 L 813.71 513.289 L 814.458 513.184 L 815.192 513.184 L 815.943 513.149 L 816.662 513.114 L 817.37 513.219 L 818.131 513.149 L 818.867 513.114 L 819.578 513.219 L 820.321 513.114 L 821.024 513.079 L 821.782 513.149 L 822.533 513.079 L 823.259 513.254 L 823.775 513.149 L 824.624 513.009 L 825.221 513.044 L 825.966 513.114 L 826.696 512.974 L 827.437 513.219 L 828.164 512.974 L 828.911 513.078 L 829.625 512.974 L 830.129 513.044 L 830.893 512.974 L 831.59 513.114 L 832.324 512.904 L 833.055 512.973 L 833.794 513.009 L 834.556 512.869 L 835.278 513.044 L 836.015 512.833 L 836.733 512.974 L 837.482 512.939 L 838.23 512.938 L 838.971 513.009 L 839.708 512.833 L 840.57 513.008 L 841.185 512.868 L 841.924 512.973 L 842.647 512.939 L 843.383 512.904 L 844.106 513.009 L 844.812 512.834 L 845.561 512.939 L 846.304 512.868 L 846.364 512.868 L 846.364 780 Z" fill="#B3B3B3"/>
    <path id="window-15-percent-wave" data-name="15% waveform" d="M 753.636 513.978 L 756.162 513.978 L 756.776 514.129 L 757.509 513.884 L 758.243 514.059 L 758.971 513.954 L 759.702 514.024 L 760.437 514.024 L 761.19 513.884 L 761.929 514.059 L 762.67 513.919 L 763.4 513.919 L 763.914 513.814 L 764.656 513.989 L 765.401 513.884 L 766.123 513.884 L 766.883 513.884 L 767.634 513.884 L 768.355 513.884 L 769.107 513.849 L 769.851 513.744 L 770.6 513.744 L 771.33 513.919 L 772.076 513.779 L 772.793 513.674 L 773.538 513.814 L 774.26 513.709 L 774.771 513.709 L 775.504 513.639 L 776.243 513.709 L 776.983 513.674 L 777.695 513.709 L 778.43 513.604 L 779.184 513.674 L 779.688 513.639 L 780.428 513.674 L 781.16 513.604 L 781.885 513.709 L 782.609 513.499 L 783.355 513.709 L 784.082 513.639 L 784.85 513.569 L 785.569 513.709 L 786.293 513.534 L 787.02 513.604 L 788.414 513.499 L 788.967 513.429 L 789.689 513.604 L 790.412 513.429 L 791.195 513.499 L 791.928 513.429 L 792.65 513.429 L 793.372 513.569 L 794.121 513.464 L 794.861 513.499 L 795.593 513.429 L 796.329 513.359 L 797.04 513.464 L 797.805 513.394 L 798.514 513.429 L 799.261 513.359 L 800.011 513.394 L 800.735 513.429 L 801.475 513.254 L 802.175 513.289 L 802.927 513.289 L 803.649 513.219 L 804.398 513.324 L 805.124 513.254 L 805.854 513.254 L 806.361 513.324 L 807.09 513.254 L 807.837 513.149 L 808.561 513.324 L 809.281 513.184 L 810.011 513.289 L 810.763 513.289 L 811.509 513.184 L 812.25 513.254 L 812.976 513.149 L 813.71 513.289 L 814.458 513.184 L 815.192 513.184 L 815.943 513.149 L 816.662 513.114 L 817.37 513.219 L 818.131 513.149 L 818.867 513.114 L 819.578 513.219 L 820.321 513.114 L 821.024 513.079 L 821.782 513.149 L 822.533 513.079 L 823.259 513.254 L 823.775 513.149 L 824.624 513.009 L 825.221 513.044 L 825.966 513.114 L 826.696 512.974 L 827.437 513.219 L 828.164 512.974 L 828.911 513.078 L 829.625 512.974 L 830.129 513.044 L 830.893 512.974 L 831.59 513.114 L 832.324 512.904 L 833.055 512.973 L 833.794 513.009 L 834.556 512.869 L 835.278 513.044 L 836.015 512.833 L 836.733 512.974 L 837.482 512.939 L 838.23 512.938 L 838.971 513.009 L 839.708 512.833 L 840.57 513.008 L 841.185 512.868 L 841.924 512.973 L 842.647 512.939 L 843.383 512.904 L 844.106 513.009 L 844.812 512.834 L 845.561 512.939 L 846.304 512.868 L 846.364 512.868" fill="none" stroke="#8C8C8C" stroke-width="1.2" stroke-linecap="round" stroke-linejoin="round"/>
  </g>

  <g id="window-20-percent" data-name="20%" inkscape:groupmode="layer" inkscape:label="20%">
    <path id="window-20-percent-bar" data-name="20% bar" d="M 880.364 780 L 880.364 513.912 L 882.715 513.912 L 883.351 514.024 L 884.068 514.059 L 884.777 513.989 L 885.497 514.059 L 886.229 514.164 L 886.945 513.849 L 887.695 513.989 L 888.514 513.884 L 889.175 513.989 L 889.915 513.884 L 890.641 513.954 L 891.364 513.919 L 892.104 513.884 L 892.846 513.919 L 893.585 513.989 L 894.324 513.849 L 895.043 513.919 L 895.783 513.744 L 896.505 513.849 L 897.251 513.814 L 897.957 513.814 L 898.706 513.849 L 899.438 513.744 L 900.177 513.814 L 900.932 513.744 L 901.649 513.744 L 902.379 513.779 L 903.121 513.639 L 903.991 513.709 L 904.58 513.709 L 905.32 513.744 L 906.058 513.709 L 906.8 513.639 L 907.526 513.744 L 908.264 513.674 L 908.991 513.569 L 909.718 513.779 L 910.451 513.534 L 911.2 513.709 L 911.951 513.569 L 912.678 513.604 L 913.398 513.499 L 914.133 513.464 L 914.663 513.534 L 915.379 513.569 L 916.13 513.499 L 916.886 513.604 L 917.597 513.604 L 918.366 513.534 L 919.086 513.534 L 919.929 513.359 L 920.567 513.534 L 921.288 513.534 L 922.029 513.464 L 922.773 513.499 L 923.52 513.359 L 924.262 513.464 L 924.987 513.289 L 925.7 513.359 L 926.434 513.394 L 927.169 513.324 L 927.905 513.464 L 928.422 513.429 L 929.165 513.324 L 929.891 513.394 L 930.643 513.464 L 931.36 513.289 L 932.097 513.394 L 932.837 513.289 L 933.575 513.429 L 934.323 513.289 L 935.025 513.289 L 935.876 513.359 L 936.445 513.289 L 937.196 513.219 L 937.919 513.324 L 938.428 513.254 L 939.149 513.148 L 939.882 513.254 L 940.623 513.184 L 941.368 513.183 L 942.099 513.148 L 942.803 513.114 L 943.546 513.289 L 944.292 513.149 L 945.026 513.184 L 945.774 513.184 L 946.489 513.113 L 947.234 513.149 L 947.943 513.078 L 948.656 513.114 L 949.385 513.078 L 950.141 512.974 L 950.858 513.113 L 951.736 513.009 L 952.339 513.148 L 953.08 513.009 L 953.789 512.973 L 954.549 513.148 L 955.257 512.904 L 956.005 512.973 L 956.722 513.009 L 957.455 513.009 L 958.159 512.974 L 958.896 512.974 L 959.635 513.008 L 960.357 513.009 L 961.088 512.904 L 961.81 513.009 L 962.567 512.938 L 963.294 512.903 L 964.035 512.868 L 964.782 512.903 L 965.494 512.904 L 966.22 512.833 L 966.971 512.904 L 967.712 512.834 L 968.443 512.903 L 969.147 512.868 L 969.889 512.798 L 970.626 512.903 L 971.37 512.868 L 972.102 512.833 L 972.834 512.833 L 973.091 512.833 L 973.091 780 Z" fill="#B3B3B3"/>
    <path id="window-20-percent-wave" data-name="20% waveform" d="M 880.364 513.912 L 882.715 513.912 L 883.351 514.024 L 884.068 514.059 L 884.777 513.989 L 885.497 514.059 L 886.229 514.164 L 886.945 513.849 L 887.695 513.989 L 888.514 513.884 L 889.175 513.989 L 889.915 513.884 L 890.641 513.954 L 891.364 513.919 L 892.104 513.884 L 892.846 513.919 L 893.585 513.989 L 894.324 513.849 L 895.043 513.919 L 895.783 513.744 L 896.505 513.849 L 897.251 513.814 L 897.957 513.814 L 898.706 513.849 L 899.438 513.744 L 900.177 513.814 L 900.932 513.744 L 901.649 513.744 L 902.379 513.779 L 903.121 513.639 L 903.991 513.709 L 904.58 513.709 L 905.32 513.744 L 906.058 513.709 L 906.8 513.639 L 907.526 513.744 L 908.264 513.674 L 908.991 513.569 L 909.718 513.779 L 910.451 513.534 L 911.2 513.709 L 911.951 513.569 L 912.678 513.604 L 913.398 513.499 L 914.133 513.464 L 914.663 513.534 L 915.379 513.569 L 916.13 513.499 L 916.886 513.604 L 917.597 513.604 L 918.366 513.534 L 919.086 513.534 L 919.929 513.359 L 920.567 513.534 L 921.288 513.534 L 922.029 513.464 L 922.773 513.499 L 923.52 513.359 L 924.262 513.464 L 924.987 513.289 L 925.7 513.359 L 926.434 513.394 L 927.169 513.324 L 927.905 513.464 L 928.422 513.429 L 929.165 513.324 L 929.891 513.394 L 930.643 513.464 L 931.36 513.289 L 932.097 513.394 L 932.837 513.289 L 933.575 513.429 L 934.323 513.289 L 935.025 513.289 L 935.876 513.359 L 936.445 513.289 L 937.196 513.219 L 937.919 513.324 L 938.428 513.254 L 939.149 513.148 L 939.882 513.254 L 940.623 513.184 L 941.368 513.183 L 942.099 513.148 L 942.803 513.114 L 943.546 513.289 L 944.292 513.149 L 945.026 513.184 L 945.774 513.184 L 946.489 513.113 L 947.234 513.149 L 947.943 513.078 L 948.656 513.114 L 949.385 513.078 L 950.141 512.974 L 950.858 513.113 L 951.736 513.009 L 952.339 513.148 L 953.08 513.009 L 953.789 512.973 L 954.549 513.148 L 955.257 512.904 L 956.005 512.973 L 956.722 513.009 L 957.455 513.009 L 958.159 512.974 L 958.896 512.974 L 959.635 513.008 L 960.357 513.009 L 961.088 512.904 L 961.81 513.009 L 962.567 512.938 L 963.294 512.903 L 964.035 512.868 L 964.782 512.903 L 965.494 512.904 L 966.22 512.833 L 966.971 512.904 L 967.712 512.834 L 968.443 512.903 L 969.147 512.868 L 969.889 512.798 L 970.626 512.903 L 971.37 512.868 L 972.102 512.833 L 972.834 512.833 L 973.091 512.833" fill="none" stroke="#8C8C8C" stroke-width="1.2" stroke-linecap="round" stroke-linejoin="round"/>
  </g>

  <g id="window-25-percent" data-name="25%" inkscape:groupmode="layer" inkscape:label="25%">
    <path id="window-25-percent-bar" data-name="25% bar" d="M 1007.091 780 L 1007.091 514.045 L 1009.45 514.045 L 1010.059 514.199 L 1010.821 514.199 L 1011.536 514.164 L 1012.27 514.234 L 1012.994 514.129 L 1013.514 514.059 L 1014.266 514.164 L 1015.099 514.164 L 1015.723 513.989 L 1016.434 514.129 L 1017.158 514.094 L 1017.89 514.059 L 1018.599 514.164 L 1019.335 514.059 L 1020.087 514.094 L 1020.808 513.989 L 1021.533 514.024 L 1022.262 513.989 L 1023.001 513.954 L 1023.745 514.024 L 1024.503 513.884 L 1025.25 513.954 L 1025.957 513.989 L 1026.684 513.779 L 1027.441 513.954 L 1028.174 513.814 L 1028.92 513.954 L 1029.677 513.884 L 1030.404 513.849 L 1031.154 513.814 L 1031.891 513.639 L 1032.61 513.884 L 1033.364 513.814 L 1034.11 513.849 L 1034.824 513.849 L 1035.562 513.779 L 1036.308 513.919 L 1037.04 513.744 L 1037.755 513.674 L 1038.478 513.744 L 1039.207 513.709 L 1039.923 513.744 L 1040.665 513.604 L 1041.421 513.709 L 1042.176 513.709 L 1042.894 513.569 L 1043.629 513.709 L 1044.356 513.569 L 1045.094 513.639 L 1045.829 513.604 L 1046.682 513.569 L 1047.28 513.709 L 1048.014 513.464 L 1048.716 513.499 L 1049.457 513.534 L 1050.168 513.464 L 1050.897 513.569 L 1051.655 513.394 L 1052.383 513.499 L 1053.115 513.499 L 1053.852 513.499 L 1054.585 513.674 L 1055.309 513.359 L 1056.054 513.464 L 1056.772 513.534 L 1057.503 513.464 L 1058.231 513.534 L 1058.96 513.429 L 1059.715 513.429 L 1060.478 513.394 L 1061.189 513.464 L 1061.94 513.499 L 1062.678 513.324 L 1063.395 513.429 L 1064.115 513.289 L 1064.862 513.429 L 1065.58 513.394 L 1066.327 513.358 L 1067.049 513.394 L 1067.767 513.359 L 1068.511 513.324 L 1069.257 513.358 L 1069.979 513.219 L 1070.697 513.324 L 1071.461 513.324 L 1072.181 513.324 L 1072.911 513.289 L 1073.653 513.184 L 1074.381 513.359 L 1075.105 513.219 L 1075.847 513.324 L 1076.588 513.254 L 1077.285 513.219 L 1078.183 513.288 L 1078.783 513.184 L 1079.537 513.254 L 1080.275 513.219 L 1081.014 513.078 L 1081.756 513.289 L 1082.481 513.184 L 1083.199 513.183 L 1083.717 513.219 L 1084.454 513.079 L 1085.182 513.113 L 1085.904 513.254 L 1086.637 513.078 L 1087.364 513.148 L 1088.085 513.148 L 1088.611 513.113 L 1089.345 513.009 L 1090.086 513.148 L 1090.814 513.043 L 1091.558 513.079 L 1092.291 513.078 L 1093.009 512.973 L 1093.882 513.183 L 1094.483 512.938 L 1095.202 513.008 L 1095.932 513.043 L 1096.663 513.009 L 1097.381 513.043 L 1098.141 512.868 L 1098.883 513.008 L 1099.621 512.939 L 1099.818 512.939 L 1099.818 780 Z" fill="#B3B3B3"/>
    <path id="window-25-percent-wave" data-name="25% waveform" d="M 1007.091 514.045 L 1009.45 514.045 L 1010.059 514.199 L 1010.821 514.199 L 1011.536 514.164 L 1012.27 514.234 L 1012.994 514.129 L 1013.514 514.059 L 1014.266 514.164 L 1015.099 514.164 L 1015.723 513.989 L 1016.434 514.129 L 1017.158 514.094 L 1017.89 514.059 L 1018.599 514.164 L 1019.335 514.059 L 1020.087 514.094 L 1020.808 513.989 L 1021.533 514.024 L 1022.262 513.989 L 1023.001 513.954 L 1023.745 514.024 L 1024.503 513.884 L 1025.25 513.954 L 1025.957 513.989 L 1026.684 513.779 L 1027.441 513.954 L 1028.174 513.814 L 1028.92 513.954 L 1029.677 513.884 L 1030.404 513.849 L 1031.154 513.814 L 1031.891 513.639 L 1032.61 513.884 L 1033.364 513.814 L 1034.11 513.849 L 1034.824 513.849 L 1035.562 513.779 L 1036.308 513.919 L 1037.04 513.744 L 1037.755 513.674 L 1038.478 513.744 L 1039.207 513.709 L 1039.923 513.744 L 1040.665 513.604 L 1041.421 513.709 L 1042.176 513.709 L 1042.894 513.569 L 1043.629 513.709 L 1044.356 513.569 L 1045.094 513.639 L 1045.829 513.604 L 1046.682 513.569 L 1047.28 513.709 L 1048.014 513.464 L 1048.716 513.499 L 1049.457 513.534 L 1050.168 513.464 L 1050.897 513.569 L 1051.655 513.394 L 1052.383 513.499 L 1053.115 513.499 L 1053.852 513.499 L 1054.585 513.674 L 1055.309 513.359 L 1056.054 513.464 L 1056.772 513.534 L 1057.503 513.464 L 1058.231 513.534 L 1058.96 513.429 L 1059.715 513.429 L 1060.478 513.394 L 1061.189 513.464 L 1061.94 513.499 L 1062.678 513.324 L 1063.395 513.429 L 1064.115 513.289 L 1064.862 513.429 L 1065.58 513.394 L 1066.327 513.358 L 1067.049 513.394 L 1067.767 513.359 L 1068.511 513.324 L 1069.257 513.358 L 1069.979 513.219 L 1070.697 513.324 L 1071.461 513.324 L 1072.181 513.324 L 1072.911 513.289 L 1073.653 513.184 L 1074.381 513.359 L 1075.105 513.219 L 1075.847 513.324 L 1076.588 513.254 L 1077.285 513.219 L 1078.183 513.288 L 1078.783 513.184 L 1079.537 513.254 L 1080.275 513.219 L 1081.014 513.078 L 1081.756 513.289 L 1082.481 513.184 L 1083.199 513.183 L 1083.717 513.219 L 1084.454 513.079 L 1085.182 513.113 L 1085.904 513.254 L 1086.637 513.078 L 1087.364 513.148 L 1088.085 513.148 L 1088.611 513.113 L 1089.345 513.009 L 1090.086 513.148 L 1090.814 513.043 L 1091.558 513.079 L 1092.291 513.078 L 1093.009 512.973 L 1093.882 513.183 L 1094.483 512.938 L 1095.202 513.008 L 1095.932 513.043 L 1096.663 513.009 L 1097.381 513.043 L 1098.141 512.868 L 1098.883 513.008 L 1099.621 512.939 L 1099.818 512.939" fill="none" stroke="#8C8C8C" stroke-width="1.2" stroke-linecap="round" stroke-linejoin="round"/>
  </g>

  <g id="window-50-percent" data-name="50%" inkscape:groupmode="layer" inkscape:label="50%">
    <path id="window-50-percent-bar" data-name="50% bar" d="M 1133.818 780 L 1133.818 523.183 L 1136.171 523.183 L 1136.763 523.304 L 1137.502 523.164 L 1138.225 522.603 L 1138.981 522.744 L 1139.678 523.759 L 1140.393 524.32 L 1141.117 527.751 L 1141.949 527.717 L 1142.583 531.323 L 1143.318 531.288 L 1144.076 531.358 L 1144.803 531.218 L 1145.553 531.253 L 1146.275 531.218 L 1147.011 531.253 L 1147.754 534.335 L 1148.463 534.3 L 1148.975 534.37 L 1149.71 534.335 L 1150.424 538.152 L 1151.166 538.117 L 1151.882 538.117 L 1152.601 538.082 L 1153.359 538.222 L 1154.071 538.082 L 1154.77 539.728 L 1155.494 541.584 L 1156.241 541.584 L 1156.958 541.619 L 1157.687 541.619 L 1158.412 541.619 L 1159.124 541.724 L 1159.846 541.619 L 1160.606 544.946 L 1161.322 545.051 L 1162.077 545.191 L 1162.801 545.156 L 1163.535 545.051 L 1164.245 545.191 L 1164.963 545.086 L 1165.701 545.121 L 1166.453 548.798 L 1167.174 548.798 L 1167.917 548.833 L 1168.617 548.728 L 1169.352 548.798 L 1170.116 548.833 L 1170.836 548.693 L 1171.555 548.833 L 1172.274 548.728 L 1173.123 548.693 L 1173.745 548.728 L 1174.477 548.763 L 1175.212 548.833 L 1175.914 548.728 L 1176.446 548.623 L 1177.187 548.728 L 1177.908 548.833 L 1178.631 548.623 L 1179.331 548.728 L 1180.09 548.728 L 1180.827 548.658 L 1181.549 548.658 L 1182.254 548.693 L 1182.991 548.693 L 1183.741 548.587 L 1184.46 548.728 L 1185.175 548.693 L 1185.908 548.658 L 1186.658 548.693 L 1187.356 548.587 L 1188.102 548.728 L 1188.948 548.658 L 1189.545 548.587 L 1190.269 548.693 L 1191.001 548.518 L 1191.725 548.588 L 1192.444 548.588 L 1193.183 548.588 L 1193.912 548.623 L 1194.656 548.518 L 1195.397 548.587 L 1196.132 548.587 L 1196.845 548.588 L 1197.58 548.623 L 1198.311 548.518 L 1199.031 548.518 L 1199.772 548.552 L 1200.517 548.552 L 1201.222 548.552 L 1201.929 548.448 L 1202.448 548.552 L 1203.168 548.518 L 1203.889 548.552 L 1204.773 548.517 L 1205.356 548.587 L 1206.07 548.518 L 1206.841 548.517 L 1207.579 548.447 L 1208.311 548.518 L 1209.037 548.517 L 1209.757 548.553 L 1210.467 548.483 L 1211.232 548.378 L 1211.982 548.413 L 1212.729 548.342 L 1213.444 548.378 L 1214.189 548.448 L 1214.916 548.342 L 1215.662 548.377 L 1216.396 548.447 L 1217.106 548.342 L 1217.845 548.412 L 1218.565 548.307 L 1219.292 548.342 L 1220.027 548.377 L 1220.754 548.377 L 1221.287 548.342 L 1221.997 548.377 L 1222.71 548.342 L 1223.435 548.377 L 1224.163 548.342 L 1224.897 548.307 L 1225.607 548.448 L 1226.345 548.307 L 1226.545 548.307 L 1226.545 780 Z" fill="#B3B3B3"/>
    <path id="window-50-percent-wave" data-name="50% waveform" d="M 1133.818 523.183 L 1136.171 523.183 L 1136.763 523.304 L 1137.502 523.164 L 1138.225 522.603 L 1138.981 522.744 L 1139.678 523.759 L 1140.393 524.32 L 1141.117 527.751 L 1141.949 527.717 L 1142.583 531.323 L 1143.318 531.288 L 1144.076 531.358 L 1144.803 531.218 L 1145.553 531.253 L 1146.275 531.218 L 1147.011 531.253 L 1147.754 534.335 L 1148.463 534.3 L 1148.975 534.37 L 1149.71 534.335 L 1150.424 538.152 L 1151.166 538.117 L 1151.882 538.117 L 1152.601 538.082 L 1153.359 538.222 L 1154.071 538.082 L 1154.77 539.728 L 1155.494 541.584 L 1156.241 541.584 L 1156.958 541.619 L 1157.687 541.619 L 1158.412 541.619 L 1159.124 541.724 L 1159.846 541.619 L 1160.606 544.946 L 1161.322 545.051 L 1162.077 545.191 L 1162.801 545.156 L 1163.535 545.051 L 1164.245 545.191 L 1164.963 545.086 L 1165.701 545.121 L 1166.453 548.798 L 1167.174 548.798 L 1167.917 548.833 L 1168.617 548.728 L 1169.352 548.798 L 1170.116 548.833 L 1170.836 548.693 L 1171.555 548.833 L 1172.274 548.728 L 1173.123 548.693 L 1173.745 548.728 L 1174.477 548.763 L 1175.212 548.833 L 1175.914 548.728 L 1176.446 548.623 L 1177.187 548.728 L 1177.908 548.833 L 1178.631 548.623 L 1179.331 548.728 L 1180.09 548.728 L 1180.827 548.658 L 1181.549 548.658 L 1182.254 548.693 L 1182.991 548.693 L 1183.741 548.587 L 1184.46 548.728 L 1185.175 548.693 L 1185.908 548.658 L 1186.658 548.693 L 1187.356 548.587 L 1188.102 548.728 L 1188.948 548.658 L 1189.545 548.587 L 1190.269 548.693 L 1191.001 548.518 L 1191.725 548.588 L 1192.444 548.588 L 1193.183 548.588 L 1193.912 548.623 L 1194.656 548.518 L 1195.397 548.587 L 1196.132 548.587 L 1196.845 548.588 L 1197.58 548.623 L 1198.311 548.518 L 1199.031 548.518 L 1199.772 548.552 L 1200.517 548.552 L 1201.222 548.552 L 1201.929 548.448 L 1202.448 548.552 L 1203.168 548.518 L 1203.889 548.552 L 1204.773 548.517 L 1205.356 548.587 L 1206.07 548.518 L 1206.841 548.517 L 1207.579 548.447 L 1208.311 548.518 L 1209.037 548.517 L 1209.757 548.553 L 1210.467 548.483 L 1211.232 548.378 L 1211.982 548.413 L 1212.729 548.342 L 1213.444 548.378 L 1214.189 548.448 L 1214.916 548.342 L 1215.662 548.377 L 1216.396 548.447 L 1217.106 548.342 L 1217.845 548.412 L 1218.565 548.307 L 1219.292 548.342 L 1220.027 548.377 L 1220.754 548.377 L 1221.287 548.342 L 1221.997 548.377 L 1222.71 548.342 L 1223.435 548.377 L 1224.163 548.342 L 1224.897 548.307 L 1225.607 548.448 L 1226.345 548.307 L 1226.545 548.307" fill="none" stroke="#8C8C8C" stroke-width="1.2" stroke-linecap="round" stroke-linejoin="round"/>
  </g>

  <g id="window-75-percent" data-name="75%" inkscape:groupmode="layer" inkscape:label="75%">
    <path id="window-75-percent-bar" data-name="75% bar" d="M 1260.545 780 L 1260.545 599.559 L 1262.915 599.559 L 1263.538 599.645 L 1264.041 599.575 L 1264.769 597.579 L 1265.51 597.579 L 1266.232 597.579 L 1266.968 598.419 L 1267.712 598.314 L 1268.58 598.91 L 1269.173 598.98 L 1269.905 599.085 L 1270.631 599.155 L 1271.374 599.05 L 1272.101 599.015 L 1272.866 598.314 L 1273.581 598.209 L 1274.317 598.769 L 1275.06 598.665 L 1275.78 598.559 L 1276.511 597.929 L 1277.243 597.894 L 1277.994 598.385 L 1278.696 598.279 L 1279.454 598.384 L 1280.164 598.244 L 1280.884 599.05 L 1281.643 599.05 L 1282.376 598.875 L 1283.104 598.98 L 1283.816 598.91 L 1284.561 599.225 L 1285.297 599.4 L 1286.036 599.295 L 1286.741 601.221 L 1287.46 601.116 L 1288.197 601.116 L 1288.937 601.151 L 1289.646 603.917 L 1290.399 603.987 L 1291.105 603.952 L 1291.841 606.194 L 1292.602 606.894 L 1293.288 606.894 L 1294.048 606.894 L 1294.797 606.859 L 1295.537 606.894 L 1296.276 606.894 L 1297.005 608.61 L 1297.77 609.836 L 1298.499 609.766 L 1299.228 609.8 L 1300.111 612.987 L 1300.698 612.952 L 1301.43 612.987 L 1302.15 612.917 L 1302.898 612.882 L 1303.678 612.882 L 1304.362 612.987 L 1305.115 612.987 L 1305.827 612.847 L 1306.584 612.987 L 1307.285 612.917 L 1308.041 612.917 L 1308.776 612.952 L 1309.503 612.882 L 1310.214 612.882 L 1310.975 612.812 L 1311.687 612.917 L 1312.426 612.847 L 1313.169 612.953 L 1313.9 612.952 L 1314.619 612.847 L 1315.145 612.882 L 1316.022 612.882 L 1316.628 612.952 L 1317.364 612.812 L 1318.094 612.882 L 1318.841 612.847 L 1319.567 612.882 L 1320.305 612.847 L 1321.058 612.812 L 1321.792 612.917 L 1322.521 612.847 L 1323.022 612.882 L 1323.759 612.847 L 1324.507 612.882 L 1325.235 612.847 L 1325.956 612.952 L 1326.702 612.777 L 1327.443 612.882 L 1328.184 612.777 L 1328.946 612.882 L 1329.675 612.882 L 1330.418 612.777 L 1331.142 612.917 L 1331.787 612.987 L 1332.369 612.777 L 1332.889 612.847 L 1333.645 612.847 L 1334.807 612.847 L 1335.398 612.812 L 1336.116 612.777 L 1336.855 612.812 L 1337.592 612.882 L 1338.314 612.812 L 1339.065 612.882 L 1339.781 612.707 L 1340.533 612.882 L 1341.263 612.777 L 1342.008 612.882 L 1342.735 612.812 L 1343.47 612.847 L 1344.201 612.847 L 1344.949 612.707 L 1345.687 612.917 L 1346.432 612.952 L 1347.178 612.847 L 1347.922 612.812 L 1348.653 612.672 L 1349.387 612.847 L 1350.11 612.777 L 1350.851 612.742 L 1351.58 612.812 L 1352.314 612.742 L 1353.061 612.777 L 1353.273 612.777 L 1353.273 780 Z" fill="#B3B3B3"/>
    <path id="window-75-percent-wave" data-name="75% waveform" d="M 1260.545 599.559 L 1262.915 599.559 L 1263.538 599.645 L 1264.041 599.575 L 1264.769 597.579 L 1265.51 597.579 L 1266.232 597.579 L 1266.968 598.419 L 1267.712 598.314 L 1268.58 598.91 L 1269.173 598.98 L 1269.905 599.085 L 1270.631 599.155 L 1271.374 599.05 L 1272.101 599.015 L 1272.866 598.314 L 1273.581 598.209 L 1274.317 598.769 L 1275.06 598.665 L 1275.78 598.559 L 1276.511 597.929 L 1277.243 597.894 L 1277.994 598.385 L 1278.696 598.279 L 1279.454 598.384 L 1280.164 598.244 L 1280.884 599.05 L 1281.643 599.05 L 1282.376 598.875 L 1283.104 598.98 L 1283.816 598.91 L 1284.561 599.225 L 1285.297 599.4 L 1286.036 599.295 L 1286.741 601.221 L 1287.46 601.116 L 1288.197 601.116 L 1288.937 601.151 L 1289.646 603.917 L 1290.399 603.987 L 1291.105 603.952 L 1291.841 606.194 L 1292.602 606.894 L 1293.288 606.894 L 1294.048 606.894 L 1294.797 606.859 L 1295.537 606.894 L 1296.276 606.894 L 1297.005 608.61 L 1297.77 609.836 L 1298.499 609.766 L 1299.228 609.8 L 1300.111 612.987 L 1300.698 612.952 L 1301.43 612.987 L 1302.15 612.917 L 1302.898 612.882 L 1303.678 612.882 L 1304.362 612.987 L 1305.115 612.987 L 1305.827 612.847 L 1306.584 612.987 L 1307.285 612.917 L 1308.041 612.917 L 1308.776 612.952 L 1309.503 612.882 L 1310.214 612.882 L 1310.975 612.812 L 1311.687 612.917 L 1312.426 612.847 L 1313.169 612.953 L 1313.9 612.952 L 1314.619 612.847 L 1315.145 612.882 L 1316.022 612.882 L 1316.628 612.952 L 1317.364 612.812 L 1318.094 612.882 L 1318.841 612.847 L 1319.567 612.882 L 1320.305 612.847 L 1321.058 612.812 L 1321.792 612.917 L 1322.521 612.847 L 1323.022 612.882 L 1323.759 612.847 L 1324.507 612.882 L 1325.235 612.847 L 1325.956 612.952 L 1326.702 612.777 L 1327.443 612.882 L 1328.184 612.777 L 1328.946 612.882 L 1329.675 612.882 L 1330.418 612.777 L 1331.142 612.917 L 1331.787 612.987 L 1332.369 612.777 L 1332.889 612.847 L 1333.645 612.847 L 1334.807 612.847 L 1335.398 612.812 L 1336.116 612.777 L 1336.855 612.812 L 1337.592 612.882 L 1338.314 612.812 L 1339.065 612.882 L 1339.781 612.707 L 1340.533 612.882 L 1341.263 612.777 L 1342.008 612.882 L 1342.735 612.812 L 1343.47 612.847 L 1344.201 612.847 L 1344.949 612.707 L 1345.687 612.917 L 1346.432 612.952 L 1347.178 612.847 L 1347.922 612.812 L 1348.653 612.672 L 1349.387 612.847 L 1350.11 612.777 L 1350.851 612.742 L 1351.58 612.812 L 1352.314 612.742 L 1353.061 612.777 L 1353.273 612.777" fill="none" stroke="#8C8C8C" stroke-width="1.2" stroke-linecap="round" stroke-linejoin="round"/>
  </g>

  <g id="window-100-percent" data-name="100%" inkscape:groupmode="layer" inkscape:label="100%">
    <path id="window-100-percent-bar" data-name="100% bar" d="M 1387.273 780 L 1387.273 633.078 L 1389.711 633.078 L 1390.382 632.738 L 1390.907 632.318 L 1391.638 634.629 L 1392.349 634.734 L 1393.079 634.314 L 1393.805 635.19 L 1394.539 636.205 L 1395.377 637.396 L 1395.981 639.602 L 1396.705 641.493 L 1397.429 641.633 L 1398.156 645.59 L 1398.902 647.971 L 1399.634 649.932 L 1400.363 652.173 L 1401.097 652.138 L 1401.812 654.59 L 1402.55 656.726 L 1403.279 656.796 L 1403.797 656.726 L 1404.532 656.691 L 1405.28 656.796 L 1406.022 656.761 L 1406.735 656.691 L 1407.476 656.726 L 1408.229 656.656 L 1408.957 656.866 L 1409.674 656.691 L 1410.416 656.656 L 1411.258 656.726 L 1411.843 656.656 L 1412.592 656.761 L 1413.333 656.691 L 1414.051 656.656 L 1414.771 656.656 L 1415.507 656.656 L 1416.236 656.691 L 1416.958 656.691 L 1417.686 656.656 L 1418.408 656.726 L 1419.161 656.656 L 1419.892 656.726 L 1420.599 656.621 L 1421.327 656.586 L 1422.057 656.691 L 1422.774 656.551 L 1423.489 656.621 L 1424.227 656.621 L 1424.943 656.621 L 1425.462 656.656 L 1426.202 656.726 L 1427.044 656.551 L 1427.653 656.621 L 1428.391 656.726 L 1429.111 656.656 L 1429.834 656.656 L 1430.584 656.586 L 1431.3 656.621 L 1432.015 656.691 L 1432.749 656.586 L 1433.487 656.691 L 1434.231 656.621 L 1434.941 656.656 L 1435.667 656.621 L 1436.412 656.551 L 1437.128 656.656 L 1437.869 656.621 L 1438.611 656.621 L 1439.331 656.691 L 1440.064 656.586 L 1440.807 656.586 L 1441.526 656.516 L 1442.258 656.586 L 1443.021 656.656 L 1443.733 656.621 L 1444.442 656.691 L 1445.171 656.621 L 1445.906 656.621 L 1446.628 656.551 L 1447.357 656.586 L 1448.068 656.621 L 1448.8 656.551 L 1449.574 656.656 L 1450.288 656.551 L 1451.029 656.551 L 1451.753 656.586 L 1452.487 656.551 L 1453.218 656.656 L 1453.948 656.586 L 1454.683 656.481 L 1455.389 656.586 L 1456.141 656.516 L 1456.873 656.586 L 1457.594 656.55 L 1458.439 656.586 L 1459.046 656.621 L 1459.788 656.516 L 1460.539 656.621 L 1461.247 656.551 L 1461.979 656.516 L 1462.687 656.586 L 1463.439 656.586 L 1464.163 656.586 L 1464.876 656.586 L 1465.613 656.516 L 1466.347 656.656 L 1466.854 656.586 L 1467.616 656.586 L 1468.35 656.691 L 1469.062 656.551 L 1469.781 656.586 L 1470.526 656.621 L 1471.244 656.551 L 1471.966 656.551 L 1472.691 656.586 L 1473.443 656.656 L 1474.29 656.656 L 1474.898 656.551 L 1475.628 656.621 L 1476.386 656.621 L 1477.101 656.586 L 1477.849 656.621 L 1478.591 656.551 L 1479.291 656.551 L 1480 656.551 L 1480 780 Z" fill="#B3B3B3"/>
    <path id="window-100-percent-wave" data-name="100% waveform" d="M 1387.273 633.078 L 1389.711 633.078 L 1390.382 632.738 L 1390.907 632.318 L 1391.638 634.629 L 1392.349 634.734 L 1393.079 634.314 L 1393.805 635.19 L 1394.539 636.205 L 1395.377 637.396 L 1395.981 639.602 L 1396.705 641.493 L 1397.429 641.633 L 1398.156 645.59 L 1398.902 647.971 L 1399.634 649.932 L 1400.363 652.173 L 1401.097 652.138 L 1401.812 654.59 L 1402.55 656.726 L 1403.279 656.796 L 1403.797 656.726 L 1404.532 656.691 L 1405.28 656.796 L 1406.022 656.761 L 1406.735 656.691 L 1407.476 656.726 L 1408.229 656.656 L 1408.957 656.866 L 1409.674 656.691 L 1410.416 656.656 L 1411.258 656.726 L 1411.843 656.656 L 1412.592 656.761 L 1413.333 656.691 L 1414.051 656.656 L 1414.771 656.656 L 1415.507 656.656 L 1416.236 656.691 L 1416.958 656.691 L 1417.686 656.656 L 1418.408 656.726 L 1419.161 656.656 L 1419.892 656.726 L 1420.599 656.621 L 1421.327 656.586 L 1422.057 656.691 L 1422.774 656.551 L 1423.489 656.621 L 1424.227 656.621 L 1424.943 656.621 L 1425.462 656.656 L 1426.202 656.726 L 1427.044 656.551 L 1427.653 656.621 L 1428.391 656.726 L 1429.111 656.656 L 1429.834 656.656 L 1430.584 656.586 L 1431.3 656.621 L 1432.015 656.691 L 1432.749 656.586 L 1433.487 656.691 L 1434.231 656.621 L 1434.941 656.656 L 1435.667 656.621 L 1436.412 656.551 L 1437.128 656.656 L 1437.869 656.621 L 1438.611 656.621 L 1439.331 656.691 L 1440.064 656.586 L 1440.807 656.586 L 1441.526 656.516 L 1442.258 656.586 L 1443.021 656.656 L 1443.733 656.621 L 1444.442 656.691 L 1445.171 656.621 L 1445.906 656.621 L 1446.628 656.551 L 1447.357 656.586 L 1448.068 656.621 L 1448.8 656.551 L 1449.574 656.656 L 1450.288 656.551 L 1451.029 656.551 L 1451.753 656.586 L 1452.487 656.551 L 1453.218 656.656 L 1453.948 656.586 L 1454.683 656.481 L 1455.389 656.586 L 1456.141 656.516 L 1456.873 656.586 L 1457.594 656.55 L 1458.439 656.586 L 1459.046 656.621 L 1459.788 656.516 L 1460.539 656.621 L 1461.247 656.551 L 1461.979 656.516 L 1462.687 656.586 L 1463.439 656.586 L 1464.163 656.586 L 1464.876 656.586 L 1465.613 656.516 L 1466.347 656.656 L 1466.854 656.586 L 1467.616 656.586 L 1468.35 656.691 L 1469.062 656.551 L 1469.781 656.586 L 1470.526 656.621 L 1471.244 656.551 L 1471.966 656.551 L 1472.691 656.586 L 1473.443 656.656 L 1474.29 656.656 L 1474.898 656.551 L 1475.628 656.621 L 1476.386 656.621 L 1477.101 656.586 L 1477.849 656.621 L 1478.591 656.551 L 1479.291 656.551 L 1480 656.551" fill="none" stroke="#8C8C8C" stroke-width="1.2" stroke-linecap="round" stroke-linejoin="round"/>
  </g>
</svg>
